<svg xmlns="http://www.w3.org/2000/svg" xmlns:xlink="http://www.w3.org/1999/xlink" viewBox="0 0 2358 664"><defs><style>.a{clip-path:url(#b);}.b{fill:#edf1f4;}.c{fill:#414141;font-size:25px;font-family:ProductSans-Regular, Product Sans;}.d{font-size:28px;font-family:ProductSans-Bold, Product Sans;font-weight:700;}.e,.g{fill:none;}.e{stroke:#000;stroke-width:3.5px;}.f{stroke:none;}.h{fill:#fff;}</style><clipPath id="b"><rect width="2358" height="664"/></clipPath></defs><g id="a" class="a"><rect class="h" width="2358" height="664"/><rect class="b" width="2358" height="1076"/><text class="c" transform="translate(551 370)"><tspan x="18.488" y="24">• A modular alarm that has memo </tspan><tspan x="118.15" y="49">and reminders. </tspan><tspan x="199" y="74"></tspan><tspan x="41.063" y="99">• An alarm that calculates the </tspan><tspan x="81.275" y="124">progress and updates</tspan><tspan x="199" y="149"></tspan><tspan x="199" y="174"> </tspan><tspan x="199" y="199"></tspan></text><text class="c" transform="translate(1082 370)"><tspan x="13" y="24">• An assistive alarm that learn from </tspan><tspan x="99.35" y="49">the users activities</tspan><tspan x="200.5" y="74"></tspan><tspan x="13.375" y="99">• An alarm that can be adjusted for </tspan><tspan x="116.463" y="124">many activities. </tspan><tspan x="200.5" y="149"></tspan><tspan x="200.5" y="174"> </tspan><tspan x="200.5" y="199"></tspan></text><text class="c" transform="translate(1568 370)"><tspan x="6.012" y="24">• A social media powered alarm that </tspan><tspan x="5.863" y="49">has community building and sharing </tspan><tspan x="155.45" y="74">features</tspan><tspan x="200.5" y="99"></tspan><tspan x="200.5" y="124"></tspan><tspan x="200.5" y="149"> </tspan><tspan x="200.5" y="174"></tspan></text><g transform="translate(332 -477)"><text class="d" transform="translate(302 815)"><tspan x="0" y="0">Modular Application</tspan></text><g transform="translate(244.07 17.324)"><g transform="translate(149.523 673.426)"><g transform="translate(13.564 37.719)"><path d="M51.634,62.386a4.853,4.853,0,1,1-8.965,2.574,4.815,4.815,0,0,1,.774-2.626A.881.881,0,0,0,42.682,61H28.887a.888.888,0,0,0-.887.887V79.63a.888.888,0,0,0,.887.887h37.27a.888.888,0,0,0,.887-.887V61.882a.888.888,0,0,0-.887-.887h-13.8A.889.889,0,0,0,51.634,62.386Z" transform="translate(-28 -60.995)"/></g><g transform="translate(0 0)"><path d="M48.929,21.535A9.053,9.053,0,0,0,46.148,39.2h-.012v3.574a4.853,4.853,0,1,0,5.585,0V39.2H51.71a9.053,9.053,0,0,0-2.781-17.669Zm0,15.113a6.059,6.059,0,1,1,6.059-6.059A6.059,6.059,0,0,1,48.929,36.648Z" transform="translate(-15.774 -18.831)"/><path d="M30.3,21.582H13.159a.444.444,0,0,0-.444.444V39.164a.444.444,0,0,0,.444.444h5.776v2.2a2.2,2.2,0,0,1-.665,1.544,4.853,4.853,0,1,0,6.924.011,2.235,2.235,0,0,1-.675-1.557V39.607H30.3a.444.444,0,0,0,.444-.444V22.026A.443.443,0,0,0,30.3,21.582ZM27.787,36.209a.444.444,0,0,1-.444.444H16.113a.444.444,0,0,1-.444-.444V24.979a.444.444,0,0,1,.444-.444H27.343a.444.444,0,0,1,.444.444Z" transform="translate(-12.715 -18.837)"/><path d="M87.7,38.715l-5.775-10-5.775-10a.444.444,0,0,0-.768,0l-5.775,10-5.775,10a.444.444,0,0,0,.384.666h8.619v3.053a4.957,4.957,0,0,0-1.365,6.591,3.817,3.817,0,0,0,1.543,1.539A4.913,4.913,0,0,0,80.476,46.4a4.843,4.843,0,0,0-2.06-3.965V39.381h8.9A.445.445,0,0,0,87.7,38.715Zm-5.191-1.964H69.02a.444.444,0,0,1-.384-.666l3.372-5.84,3.372-5.84a.444.444,0,0,1,.768,0l3.372,5.84,3.372,5.84A.445.445,0,0,1,82.506,36.751Z" transform="translate(-18.465 -18.488)"/></g></g><g class="e" transform="translate(115.93 635.676)"><rect class="f" width="127.141" height="125.648" rx="30"/><rect class="g" x="1.75" y="1.75" width="123.641" height="122.148" rx="28.25"/></g></g></g><g transform="translate(351 -477)"><text class="d" transform="translate(820 815)"><tspan x="0" y="0">Smart &amp; Ubiquitous</tspan></text><g transform="translate(278.07 -1.676)"><g class="e" transform="translate(594.93 654.676)"><rect class="f" width="127.141" height="125.648" rx="30"/><rect class="g" x="1.75" y="1.75" width="123.641" height="122.148" rx="28.25"/></g><g transform="translate(626.226 679.906)"><g transform="translate(0 5)"><path d="M3.166,58.332A3.169,3.169,0,0,0,6.14,56.243H9.868l3.3,1.319h4.188a8.739,8.739,0,0,1,.893-2.111H13.572l-3.3-1.319H6.156a3.165,3.165,0,1,0-2.99,4.2Z" transform="translate(0 -27.197)"/><path d="M3.166,74.333A3.169,3.169,0,0,0,6.14,72.243H9.868l3.3,1.319h1.21a10.686,10.686,0,0,1,.11-2.111h-.912l-3.3-1.319H6.156a3.165,3.165,0,1,0-2.99,4.2Z" transform="translate(0 -34.753)"/><path d="M3.166,90.333A3.169,3.169,0,0,0,6.156,88.2h4.118l3.3-1.319h.214a6.883,6.883,0,0,1,.037-2.111h-.657l-3.3,1.319H6.14a3.165,3.165,0,1,0-2.974,4.244Z" transform="translate(0 -42.31)"/><path d="M111.871,68a3.169,3.169,0,0,0-2.99,2.133h-4.118l-3.3,1.319h-.912a10.686,10.686,0,0,1,.11,2.111h1.21l3.3-1.319H108.9A3.165,3.165,0,1,0,111.871,68Z" transform="translate(-47.488 -34.753)"/><path d="M109.474,100a3.169,3.169,0,0,0-2.974,2.089h-3.728l-3.3-1.319h-2.87a8.684,8.684,0,0,1-.71,1.5c-.118.192-.262.4-.417.609h3.59l3.3,1.319h4.118a3.165,3.165,0,1,0,2.99-4.2Z" transform="translate(-45.092 -49.866)"/><path d="M112.463,84a3.169,3.169,0,0,0-2.974,2.089h-3.728l-3.3-1.319h-.657a6.884,6.884,0,0,1,.037,2.111h.214l3.3,1.319h4.118a3.165,3.165,0,1,0,2.99-4.2Z" transform="translate(-48.08 -42.31)"/><path d="M36.133,11.156v4.118l1.319,3.3v9.3a1.041,1.041,0,0,0,.11.46,6.14,6.14,0,0,1,2-1.481V18.166l-1.319-3.3V11.14a3.165,3.165,0,1,0-2.111.016Z" transform="translate(-16.057 -5)"/><path d="M53.166,5a3.164,3.164,0,0,0-1.034,6.156v4.118l1.319,3.3v6.49a5.915,5.915,0,0,1,2.111.446V18.166l-1.319-3.3V11.14A3.164,3.164,0,0,0,53.166,5Z" transform="translate(-23.614 -5)"/><path d="M84.089,11.14v3.728l-1.319,3.3v8.681a6.137,6.137,0,0,1,2,1.481,1.043,1.043,0,0,0,.109-.46v-9.3l1.319-3.3V11.156a3.167,3.167,0,1,0-2.111-.016Z" transform="translate(-38.726 -5)"/><path d="M68.089,11.14v3.728l-1.319,3.3v7.342a5.922,5.922,0,0,1,2.111-.446v-6.49l1.319-3.3V11.156a3.167,3.167,0,1,0-2.111-.016Z" transform="translate(-31.17 -5)"/><path d="M16.035,100.769h-2.87l-3.3,1.319H6.14a3.166,3.166,0,1,0,.016,2.111h4.118l3.3-1.319h3.59c-.155-.21-.3-.417-.418-.609A8.7,8.7,0,0,1,16.035,100.769Z" transform="translate(0 -49.866)"/><path d="M94.318,57.563h4.188l3.3-1.319h3.728a3.166,3.166,0,1,0-.016-2.111H101.4l-3.3,1.319H93.425A8.738,8.738,0,0,1,94.318,57.563Z" transform="translate(-44.122 -27.197)"/><path d="M43.819,47a6.474,6.474,0,0,0-3.374,1.135,4.451,4.451,0,0,0-4.358,4.452c-2.47.856-2.818,4.386-2.866,5.161a1.034,1.034,0,0,0-.043.181c-3.68,2.317-2.239,7.492-2.239,7.492a5.075,5.075,0,0,0,.695,6.693,8.1,8.1,0,0,0,1.077,4.021,6.98,6.98,0,0,0,2.839,2.609c1.9.773,2.711,2.593,4.051,3.962a4.452,4.452,0,0,0,3.191,1.234,5.1,5.1,0,0,0,1.881-.354c.391-.156,2.214-1.03,2.214-1.59V48.467A3.906,3.906,0,0,0,43.819,47ZM42.793,81.83a2.385,2.385,0,0,1-1.683-.6,14.078,14.078,0,0,1-1-1.2,9.153,9.153,0,0,0-3.761-3.237A5,5,0,0,1,34.51,75.03a5.964,5.964,0,0,1-.765-2.957l-.018-.959-.734-.616a2.7,2.7,0,0,1-.788-2.734,4.334,4.334,0,0,0,1.586,1.308,1.055,1.055,0,0,0,.863-1.926A4.153,4.153,0,0,1,33.1,65.1a1.063,1.063,0,0,0-.122-.228l-.006-.022c-.009-.032-.74-2.864.634-4.528a4.748,4.748,0,0,0,.881,1.623,1.055,1.055,0,1,0,1.578-1.4,4.765,4.765,0,0,1-.754-2.2l.012-.39c.025-.818.356-2.6,1.163-3.216A5.771,5.771,0,0,0,38.5,56.388a1.055,1.055,0,1,0,.942-1.889,3.7,3.7,0,0,1-1.238-.985l-.007-.943a2.23,2.23,0,0,1,1.836-2.247,3.434,3.434,0,0,0,.461,1.943,1.056,1.056,0,1,0,1.84-1.034,1.229,1.229,0,0,1,.109-1.475,1.048,1.048,0,0,0,.19-.4,3.364,3.364,0,0,1,1.185-.248,1.7,1.7,0,0,1,.957.272v3.6a3.455,3.455,0,0,1-1.822,1.431,1.055,1.055,0,0,0,.478,2.056,4.273,4.273,0,0,0,1.344-.581V59.63a3.069,3.069,0,0,1-2.024,2.243,1.055,1.055,0,1,0,.881,1.918,6.744,6.744,0,0,0,1.143-.664V79.178a1.485,1.485,0,0,1-1.011-.85l-.067-.115c-.546-.935-1.565-2.673-3.462-2.072a1.055,1.055,0,1,0,.637,2.012c.248-.079.541.335,1,1.125l.07.12a3.49,3.49,0,0,0,2.639,1.884,7.239,7.239,0,0,1-.694.346A2.981,2.981,0,0,1,42.793,81.83Z" transform="translate(-14.168 -24.836)"/><path d="M44.071,77.444a.993.993,0,0,0,.11-.006,1.056,1.056,0,0,0,.941-1.159c-.07-.673.165-1.07.752-1.761a4.586,4.586,0,0,0,1.087-4.778,1.055,1.055,0,1,0-2.015.63,2.544,2.544,0,0,1-.681,2.78A4.157,4.157,0,0,0,43.023,76.5,1.056,1.056,0,0,0,44.071,77.444Z" transform="translate(-20.307 -35.226)"/><path d="M45.749,94.638a1.056,1.056,0,0,0-1.055-1.055,2.68,2.68,0,0,1-1.707-1.024,1.055,1.055,0,0,0-1.908.9,4.609,4.609,0,0,0,3.614,2.237A1.056,1.056,0,0,0,45.749,94.638Z" transform="translate(-19.363 -46.088)"/><path d="M51.337,88.991a1.056,1.056,0,1,0,1.555-1.427,2.416,2.416,0,0,1-.483-2.943,1.056,1.056,0,0,0-1.777-1.14A4.541,4.541,0,0,0,51.337,88.991Z" transform="translate(-23.617 -41.837)"/><path d="M81.947,65.421s1.442-5.175-2.239-7.492a1.051,1.051,0,0,0-.043-.182c-.047-.775-.4-4.3-2.866-5.161a4.451,4.451,0,0,0-4.358-4.452A6.474,6.474,0,0,0,69.068,47,3.906,3.906,0,0,0,66,48.467V82c0,.56,1.823,1.434,2.214,1.59a5.1,5.1,0,0,0,1.881.354,4.452,4.452,0,0,0,3.191-1.234c1.34-1.369,2.15-3.19,4.051-3.962a6.98,6.98,0,0,0,2.839-2.609,8.1,8.1,0,0,0,1.077-4.021A5.075,5.075,0,0,0,81.947,65.421Zm-2.062,5.085-.723.567-.019,1a5.965,5.965,0,0,1-.766,2.957,5,5,0,0,1-1.835,1.758,9.153,9.153,0,0,0-3.761,3.237,14.029,14.029,0,0,1-1,1.2,2.384,2.384,0,0,1-1.682.6,2.975,2.975,0,0,1-1.1-.2,7.1,7.1,0,0,1-.694-.345A3.491,3.491,0,0,0,70.942,79.4l.07-.12c.461-.789.753-1.2,1-1.125a1.055,1.055,0,1,0,.637-2.012c-1.9-.6-2.916,1.137-3.462,2.072l-.067.115a1.485,1.485,0,0,1-1.011.85V63.127a6.744,6.744,0,0,0,1.143.664,1.055,1.055,0,0,0,.881-1.918,3.094,3.094,0,0,1-2.024-2.256V55.891a4.272,4.272,0,0,0,1.344.581,1.055,1.055,0,0,0,.478-2.056,3.455,3.455,0,0,1-1.822-1.431v-3.6a1.7,1.7,0,0,1,.958-.272,3.406,3.406,0,0,1,1.185.25,1.048,1.048,0,0,0,.19.4,1.229,1.229,0,0,1,.109,1.475,1.056,1.056,0,1,0,1.84,1.034,3.433,3.433,0,0,0,.461-1.945,2.2,2.2,0,0,1,1.836,2.26l-.035.964a3.689,3.689,0,0,1-1.209.953,1.055,1.055,0,1,0,.942,1.889A5.77,5.77,0,0,0,76.4,54.745c.807.612,1.138,2.4,1.163,3.207l.009.421a4.736,4.736,0,0,1-.751,2.175,1.055,1.055,0,1,0,1.578,1.4,4.745,4.745,0,0,0,.881-1.623c1.374,1.666.64,4.5.634,4.528l-.006.022a1.031,1.031,0,0,0-.123.231,4.1,4.1,0,0,1-1.551,2.039,1.055,1.055,0,1,0,.863,1.926,4.327,4.327,0,0,0,1.583-1.3A2.747,2.747,0,0,1,79.885,70.506Z" transform="translate(-31.17 -24.836)"/><path d="M79.1,76.28a1.056,1.056,0,0,0,.941,1.159.993.993,0,0,0,.11.006A1.056,1.056,0,0,0,81.2,76.5a4.156,4.156,0,0,0-1.244-3.346,2.544,2.544,0,0,1-.681-2.78,1.055,1.055,0,1,0-2.015-.63,4.586,4.586,0,0,0,1.087,4.778C78.931,75.21,79.166,75.607,79.1,76.28Z" transform="translate(-36.362 -35.226)"/><path d="M82.1,92.079a1.056,1.056,0,0,0-1.334.48,2.68,2.68,0,0,1-1.707,1.024,1.055,1.055,0,1,0,0,2.111,4.609,4.609,0,0,0,3.614-2.237A1.055,1.055,0,0,0,82.1,92.079Z" transform="translate(-36.837 -46.088)"/><path d="M73.093,83.173a1.062,1.062,0,0,0-.333,1.45,2.416,2.416,0,0,1-.482,2.945A1.056,1.056,0,0,0,73.833,89a4.541,4.541,0,0,0,.7-5.51A1.051,1.051,0,0,0,73.093,83.173Z" transform="translate(-34.004 -41.842)"/></g></g></g></g><g transform="translate(332 -477)"><text class="d" transform="translate(1391 815)"><tspan x="0" y="0">Social </tspan></text><g transform="translate(244 5)"><g class="e" transform="translate(1122 648)"><rect class="f" width="127.141" height="125.648" rx="30"/><rect class="g" x="1.75" y="1.75" width="123.641" height="122.148" rx="28.25"/></g><g transform="translate(1153.886 677.711)"><path d="M42.155,34.465h11.99a5.2,5.2,0,1,0,0-2.6H42.155a8.978,8.978,0,0,0-1.7-4.14L54.272,13.9a6.447,6.447,0,0,0,3.586,1.089,6.5,6.5,0,1,0-6.5-6.5,6.449,6.449,0,0,0,1.077,3.565L38.613,25.894a9.031,9.031,0,0,0-10.883,0L13.905,12.068A6.441,6.441,0,0,0,14.99,8.5a6.525,6.525,0,1,0-2.921,5.41L25.889,27.725a8.9,8.9,0,0,0-1.718,4.142H12.207a5.194,5.194,0,1,0,0,2.6H24.172A8.9,8.9,0,0,0,25.892,38.6L12.057,52.438A6.491,6.491,0,1,0,8.5,64.353a6.514,6.514,0,0,0,6.5-6.5,6.447,6.447,0,0,0-1.09-3.588L27.733,40.437a9.033,9.033,0,0,0,10.87,0l13.84,13.839a6.511,6.511,0,1,0,1.837-1.837L40.443,38.606A8.907,8.907,0,0,0,42.155,34.465Z" transform="translate(0.824)"/></g></g></g></g></svg>