<svg xmlns="http://www.w3.org/2000/svg" xmlns:xlink="http://www.w3.org/1999/xlink" width="375" height="667" viewBox="0 0 375 667">
  <defs>
    <linearGradient id="linear-gradient" x1="0.5" x2="0.5" y2="1" gradientUnits="objectBoundingBox">
      <stop offset="0" stop-color="#ff5252"/>
      <stop offset="1" stop-color="#ff9b52"/>
    </linearGradient>
    <filter id="Ellipse_38" x="-23" y="-273" width="428" height="428" filterUnits="userSpaceOnUse">
      <feOffset dy="3" input="SourceAlpha"/>
      <feGaussianBlur stdDeviation="10" result="blur"/>
      <feFlood flood-opacity="0.031"/>
      <feComposite operator="in" in2="blur"/>
      <feComposite in="SourceGraphic"/>
    </filter>
    <filter id="Ellipse_20" x="-64" y="-296" width="515" height="515" filterUnits="userSpaceOnUse">
      <feOffset dy="3" input="SourceAlpha"/>
      <feGaussianBlur stdDeviation="10" result="blur-2"/>
      <feFlood flood-opacity="0.102"/>
      <feComposite operator="in" in2="blur-2"/>
      <feComposite in="SourceGraphic"/>
    </filter>
    <filter id="Ellipse_21" x="-23" y="-273" width="428" height="428" filterUnits="userSpaceOnUse">
      <feOffset dy="3" input="SourceAlpha"/>
      <feGaussianBlur stdDeviation="10" result="blur-3"/>
      <feFlood flood-opacity="0.059"/>
      <feComposite operator="in" in2="blur-3"/>
      <feComposite in="SourceGraphic"/>
    </filter>
    <clipPath id="clip-path">
      <rect width="385.141" height="702.281" fill="none"/>
    </clipPath>
    <filter id="Rectangle_5" x="-7.5" y="206.5" width="363" height="110" filterUnits="userSpaceOnUse">
      <feOffset dy="5" input="SourceAlpha"/>
      <feGaussianBlur stdDeviation="7.5" result="blur-4"/>
      <feFlood flood-opacity="0.031"/>
      <feComposite operator="in" in2="blur-4"/>
      <feComposite in="SourceGraphic"/>
    </filter>
    <filter id="Ellipse_39" x="228.359" y="181.297" width="149.281" height="149.281" filterUnits="userSpaceOnUse">
      <feOffset dy="3" input="SourceAlpha"/>
      <feGaussianBlur stdDeviation="7.5" result="blur-5"/>
      <feFlood flood-opacity="0.063"/>
      <feComposite operator="in" in2="blur-5"/>
      <feComposite in="SourceGraphic"/>
    </filter>
    <filter id="Rectangle_5-2" x="-7.5" y="321.5" width="363" height="110" filterUnits="userSpaceOnUse">
      <feOffset dy="5" input="SourceAlpha"/>
      <feGaussianBlur stdDeviation="7.5" result="blur-6"/>
      <feFlood flood-opacity="0.031"/>
      <feComposite operator="in" in2="blur-6"/>
      <feComposite in="SourceGraphic"/>
    </filter>
    <filter id="Ellipse_39-2" x="228.359" y="296.297" width="149.281" height="149.281" filterUnits="userSpaceOnUse">
      <feOffset dy="3" input="SourceAlpha"/>
      <feGaussianBlur stdDeviation="7.5" result="blur-7"/>
      <feFlood flood-opacity="0.063"/>
      <feComposite operator="in" in2="blur-7"/>
      <feComposite in="SourceGraphic"/>
    </filter>
    <filter id="Rectangle_5-3" x="-7.5" y="436.5" width="363" height="110" filterUnits="userSpaceOnUse">
      <feOffset dy="5" input="SourceAlpha"/>
      <feGaussianBlur stdDeviation="7.5" result="blur-8"/>
      <feFlood flood-opacity="0.031"/>
      <feComposite operator="in" in2="blur-8"/>
      <feComposite in="SourceGraphic"/>
    </filter>
    <filter id="Ellipse_39-3" x="228.359" y="411.297" width="149.281" height="149.281" filterUnits="userSpaceOnUse">
      <feOffset dy="3" input="SourceAlpha"/>
      <feGaussianBlur stdDeviation="7.5" result="blur-9"/>
      <feFlood flood-opacity="0.063"/>
      <feComposite operator="in" in2="blur-9"/>
      <feComposite in="SourceGraphic"/>
    </filter>
    <filter id="Rectangle_5-4" x="-7.5" y="551.5" width="363" height="110" filterUnits="userSpaceOnUse">
      <feOffset dy="5" input="SourceAlpha"/>
      <feGaussianBlur stdDeviation="7.5" result="blur-10"/>
      <feFlood flood-opacity="0.031"/>
      <feComposite operator="in" in2="blur-10"/>
      <feComposite in="SourceGraphic"/>
    </filter>
    <filter id="Ellipse_39-4" x="228.359" y="526.297" width="149.281" height="149.281" filterUnits="userSpaceOnUse">
      <feOffset dy="3" input="SourceAlpha"/>
      <feGaussianBlur stdDeviation="7.5" result="blur-11"/>
      <feFlood flood-opacity="0.063"/>
      <feComposite operator="in" in2="blur-11"/>
      <feComposite in="SourceGraphic"/>
    </filter>
    <filter id="Rectangle_5-5" x="-7.5" y="666.5" width="363" height="110" filterUnits="userSpaceOnUse">
      <feOffset dy="5" input="SourceAlpha"/>
      <feGaussianBlur stdDeviation="7.5" result="blur-12"/>
      <feFlood flood-opacity="0.031"/>
      <feComposite operator="in" in2="blur-12"/>
      <feComposite in="SourceGraphic"/>
    </filter>
    <filter id="Ellipse_39-5" x="228.359" y="641.297" width="149.281" height="149.281" filterUnits="userSpaceOnUse">
      <feOffset dy="3" input="SourceAlpha"/>
      <feGaussianBlur stdDeviation="7.5" result="blur-13"/>
      <feFlood flood-opacity="0.063"/>
      <feComposite operator="in" in2="blur-13"/>
      <feComposite in="SourceGraphic"/>
    </filter>
    <filter id="Rectangle_5-6" x="-7.5" y="781.5" width="363" height="110" filterUnits="userSpaceOnUse">
      <feOffset dy="5" input="SourceAlpha"/>
      <feGaussianBlur stdDeviation="7.5" result="blur-14"/>
      <feFlood flood-opacity="0.031"/>
      <feComposite operator="in" in2="blur-14"/>
      <feComposite in="SourceGraphic"/>
    </filter>
    <filter id="Ellipse_39-6" x="228.359" y="756.297" width="149.281" height="149.281" filterUnits="userSpaceOnUse">
      <feOffset dy="3" input="SourceAlpha"/>
      <feGaussianBlur stdDeviation="7.5" result="blur-15"/>
      <feFlood flood-opacity="0.063"/>
      <feComposite operator="in" in2="blur-15"/>
      <feComposite in="SourceGraphic"/>
    </filter>
    <filter id="Rectangle_5-7" x="-7.5" y="896.5" width="363" height="110" filterUnits="userSpaceOnUse">
      <feOffset dy="5" input="SourceAlpha"/>
      <feGaussianBlur stdDeviation="7.5" result="blur-16"/>
      <feFlood flood-opacity="0.031"/>
      <feComposite operator="in" in2="blur-16"/>
      <feComposite in="SourceGraphic"/>
    </filter>
    <filter id="Ellipse_39-7" x="228.359" y="871.297" width="149.281" height="149.281" filterUnits="userSpaceOnUse">
      <feOffset dy="3" input="SourceAlpha"/>
      <feGaussianBlur stdDeviation="7.5" result="blur-17"/>
      <feFlood flood-opacity="0.063"/>
      <feComposite operator="in" in2="blur-17"/>
      <feComposite in="SourceGraphic"/>
    </filter>
    <clipPath id="clip-path-2">
      <rect width="55" height="55" fill="none"/>
    </clipPath>
    <clipPath id="clip-path-3">
      <rect width="18" height="18" fill="none"/>
    </clipPath>
    <clipPath id="clip-iPhone_6_7_8_34">
      <rect width="375" height="667"/>
    </clipPath>
  </defs>
  <g id="iPhone_6_7_8_34" data-name="iPhone 6/7/8 – 34" clip-path="url(#clip-iPhone_6_7_8_34)">
    <rect width="375" height="667" fill="#fff"/>
    <g transform="matrix(1, 0, 0, 1, 0, 0)" filter="url(#Ellipse_38)">
      <circle id="Ellipse_38-2" data-name="Ellipse 38" cx="184" cy="184" r="184" transform="translate(7 -246)" fill="url(#linear-gradient)"/>
    </g>
    <g transform="matrix(1, 0, 0, 1, 0, 0)" filter="url(#Ellipse_20)">
      <circle id="Ellipse_20-2" data-name="Ellipse 20" cx="227.5" cy="227.5" r="227.5" transform="translate(-34 -269)" fill="#fff"/>
    </g>
    <g transform="matrix(1, 0, 0, 1, 0, 0)" filter="url(#Ellipse_21)">
      <circle id="Ellipse_21-2" data-name="Ellipse 21" cx="184" cy="184" r="184" transform="translate(7 -246)" fill="#fff"/>
    </g>
    <g id="Group_194" data-name="Group 194" transform="translate(-975.728 1413.039) rotate(45)">
      <circle id="Ellipse_30" data-name="Ellipse 30" cx="19.415" cy="19.415" r="19.415" transform="translate(-266.415 -1677.415)" fill="#00cc4f" opacity="0.059"/>
      <g id="Group_193" data-name="Group 193">
        <text id="Cycling" transform="translate(-254 -1658)" fill="#00cc4f" font-size="13" font-family="SFProText-Medium, SF Pro Text" font-weight="500"><tspan x="0" y="0">27</tspan></text>
        <text id="Cycling-2" data-name="Cycling" transform="translate(-253 -1650)" fill="#00cc4f" font-size="9" font-family="SFProText-Regular, SF Pro Text"><tspan x="0" y="0">FRI</tspan></text>
      </g>
    </g>
    <g id="Group_195" data-name="Group 195" transform="translate(-853.032 1507.536) rotate(40)">
      <circle id="Ellipse_32" data-name="Ellipse 32" cx="19.415" cy="19.415" r="19.415" transform="translate(-213 -1677.415)" fill="#fa3877" opacity="0.059"/>
      <g id="Group_192" data-name="Group 192">
        <text id="Cycling-3" data-name="Cycling" transform="translate(-202 -1658)" fill="#fa3877" font-size="13" font-family="SFProText-Medium, SF Pro Text" font-weight="500"><tspan x="0" y="0">28</tspan></text>
        <text id="Cycling-4" data-name="Cycling" transform="translate(-202 -1650)" fill="#fa3877" font-size="9" font-family="SFProText-Regular, SF Pro Text"><tspan x="0" y="0">SAT</tspan></text>
      </g>
    </g>
    <g id="Group_196" data-name="Group 196" transform="matrix(0.819, 0.574, -0.574, 0.819, -713.489, 1588.028)">
      <circle id="Ellipse_33" data-name="Ellipse 33" cx="19.415" cy="19.415" r="19.415" transform="translate(-160.415 -1677.415)" fill="#ffcf4a" opacity="0.059"/>
      <g id="Group_191" data-name="Group 191">
        <text id="Cycling-5" data-name="Cycling" transform="translate(-150 -1658)" fill="#ffcf4a" font-size="13" font-family="SFProText-Medium, SF Pro Text" font-weight="500"><tspan x="0" y="0">29</tspan></text>
        <text id="Cycling-6" data-name="Cycling" transform="translate(-151 -1650)" fill="#ffcf4a" font-size="9" font-family="SFProText-Regular, SF Pro Text"><tspan x="0" y="0">SUN</tspan></text>
      </g>
    </g>
    <g id="Group_197" data-name="Group 197" transform="translate(282 1815)">
      <circle id="Ellipse_34" data-name="Ellipse 34" cx="19.415" cy="19.415" r="19.415" transform="translate(-107.415 -1677.415)" fill="#00cc4f" opacity="0.059"/>
      <g id="Group_190" data-name="Group 190">
        <text id="Cycling-7" data-name="Cycling" transform="translate(-97 -1658)" fill="#00cc4f" font-size="13" font-family="SFProText-Medium, SF Pro Text" font-weight="500"><tspan x="0" y="0">30</tspan></text>
        <text id="Cycling-8" data-name="Cycling" transform="translate(-99 -1650)" fill="#00cc4f" font-size="9" font-family="SFProText-Regular, SF Pro Text"><tspan x="0" y="0">MON</tspan></text>
      </g>
    </g>
    <g id="Group_198" data-name="Group 198" transform="matrix(0.819, -0.574, 0.574, 0.819, 1239.66, 1487.079)">
      <circle id="Ellipse_35" data-name="Ellipse 35" cx="19.415" cy="19.415" r="19.415" transform="translate(-54.415 -1677.415)" fill="#006cfa" opacity="0.059"/>
      <g id="Group_189" data-name="Group 189">
        <text id="Cycling-9" data-name="Cycling" transform="translate(-43 -1658)" fill="#006cfa" font-size="13" font-family="SFProText-Medium, SF Pro Text" font-weight="500"><tspan x="0" y="0">31</tspan></text>
        <text id="Cycling-10" data-name="Cycling" transform="translate(-44 -1650)" fill="#006cfa" font-size="9" font-family="SFProText-Regular, SF Pro Text"><tspan x="0" y="0">TUE</tspan></text>
      </g>
    </g>
    <g id="Group_199" data-name="Group 199" transform="translate(1365.953 1397.672) rotate(-40)">
      <circle id="Ellipse_36" data-name="Ellipse 36" cx="19.415" cy="19.415" r="19.415" transform="translate(-1.415 -1677.415)" fill="#006cfa" opacity="0.059"/>
      <g id="Group_188" data-name="Group 188">
        <text id="Cycling-11" data-name="Cycling" transform="translate(15 -1658)" fill="#006cfa" font-size="13" font-family="SFProText-Medium, SF Pro Text" font-weight="500"><tspan x="0" y="0">1</tspan></text>
        <text id="Cycling-12" data-name="Cycling" transform="translate(7 -1650)" fill="#006cfa" font-size="9" font-family="SFProText-Regular, SF Pro Text"><tspan x="0" y="0">WED</tspan></text>
      </g>
    </g>
    <g id="Group_200" data-name="Group 200" transform="translate(1478.178 1292.588) rotate(-45)">
      <circle id="Ellipse_37" data-name="Ellipse 37" cx="19.415" cy="19.415" r="19.415" transform="translate(51.585 -1677.415)" fill="#006cfa" opacity="0.059"/>
      <g id="Group_187" data-name="Group 187">
        <text id="Cycling-13" data-name="Cycling" transform="translate(67 -1658)" fill="#006cfa" font-size="13" font-family="SFProText-Medium, SF Pro Text" font-weight="500"><tspan x="0" y="0">2</tspan></text>
        <text id="Cycling-14" data-name="Cycling" transform="translate(61 -1650)" fill="#006cfa" font-size="9" font-family="SFProText-Regular, SF Pro Text"><tspan x="0" y="0">THU</tspan></text>
      </g>
    </g>
    <g id="Repeat_Grid_3" data-name="Repeat Grid 3" transform="translate(-7.5 181.297)" clip-path="url(#clip-path)">
      <g id="Group_206" data-name="Group 206" transform="translate(7.5 -181.297)">
        <g id="Group_205" data-name="Group 205">
          <g transform="matrix(1, 0, 0, 1, 0, 0)" filter="url(#Rectangle_5)">
            <rect id="Rectangle_5-8" data-name="Rectangle 5" width="318" height="65" rx="32.5" transform="translate(15 224)" fill="#fff"/>
          </g>
          <g id="Group_182" data-name="Group 182" transform="translate(-119 -58)">
            <text id="Cycling-15" data-name="Cycling" transform="translate(178 312)" font-size="18" font-family="SFProText-Semibold, SF Pro Text" font-weight="600"><tspan x="0" y="0">Cycling for 30mins</tspan></text>
            <text id="_7:30PM" data-name="7:30PM" transform="translate(178 332)" fill="#9498b8" font-size="14" font-family="SFProText-Medium, SF Pro Text" font-weight="500"><tspan x="0" y="0">7:30 PM</tspan></text>
          </g>
        </g>
        <g id="Group_204" data-name="Group 204" transform="translate(842.797 1892.797)">
          <g transform="matrix(1, 0, 0, 1, -842.8, -1892.8)" filter="url(#Ellipse_39)">
            <circle id="Ellipse_39-8" data-name="Ellipse 39" cx="52.141" cy="52.141" r="52.141" transform="translate(250.86 200.8)" fill="#fff"/>
          </g>
          <g id="Group_203" data-name="Group 203" transform="translate(-582.214 -1682.222)">
            <g id="Group_202" data-name="Group 202" transform="translate(0 0)">
              <path id="Fill_1" data-name="Fill 1" d="M42.086,84.172A42.086,42.086,0,1,1,84.172,42.086,42.134,42.134,0,0,1,42.086,84.172Zm0-75.879A33.793,33.793,0,1,0,75.879,42.086,33.831,33.831,0,0,0,42.086,8.293Z" fill="#ebf2f4"/>
              <path id="Fill_4" data-name="Fill 4" d="M42.086,84.173A42.086,42.086,0,0,1,42.086,0a4.147,4.147,0,0,1,0,8.294A33.792,33.792,0,1,0,75.879,42.086a4.147,4.147,0,1,1,8.294,0A42.135,42.135,0,0,1,42.086,84.173" fill="#006cfa"/>
            </g>
            <text id="_79_" data-name="79%" transform="translate(28.041 49.628)" font-size="22" font-family="SFCompactText-Bold, SF Compact Text" font-weight="700"><tspan x="0" y="0">79</tspan><tspan y="0" font-size="11">%</tspan></text>
          </g>
        </g>
      </g>
      <g id="Group_206-2" data-name="Group 206" transform="translate(7.5 -66.297)">
        <g id="Group_205-2" data-name="Group 205">
          <g transform="matrix(1, 0, 0, 1, 0, -115)" filter="url(#Rectangle_5-2)">
            <rect id="Rectangle_5-9" data-name="Rectangle 5" width="318" height="65" rx="32.5" transform="translate(15 339)" fill="#fff"/>
          </g>
          <g id="Group_182-2" data-name="Group 182" transform="translate(-119 -58)">
            <text id="Cycling-16" data-name="Cycling" transform="translate(178 312)" font-size="18" font-family="SFProText-Semibold, SF Pro Text" font-weight="600"><tspan x="0" y="0">Cycling for 30mins</tspan></text>
            <text id="_7:30PM-2" data-name="7:30PM" transform="translate(178 332)" fill="#9498b8" font-size="14" font-family="SFProText-Medium, SF Pro Text" font-weight="500"><tspan x="0" y="0">7:30 PM</tspan></text>
          </g>
        </g>
        <g id="Group_204-2" data-name="Group 204" transform="translate(842.797 1892.797)">
          <g transform="matrix(1, 0, 0, 1, -842.8, -2007.8)" filter="url(#Ellipse_39-2)">
            <circle id="Ellipse_39-9" data-name="Ellipse 39" cx="52.141" cy="52.141" r="52.141" transform="translate(250.86 315.8)" fill="#fff"/>
          </g>
          <g id="Group_203-2" data-name="Group 203" transform="translate(-582.214 -1682.222)">
            <g id="Group_202-2" data-name="Group 202" transform="translate(0 0)">
              <path id="Fill_1-2" data-name="Fill 1" d="M42.086,84.172A42.086,42.086,0,1,1,84.172,42.086,42.134,42.134,0,0,1,42.086,84.172Zm0-75.879A33.793,33.793,0,1,0,75.879,42.086,33.831,33.831,0,0,0,42.086,8.293Z" fill="#ebf2f4"/>
              <path id="Fill_4-2" data-name="Fill 4" d="M42.086,84.173A42.086,42.086,0,0,1,42.086,0a4.147,4.147,0,0,1,0,8.294A33.792,33.792,0,1,0,75.879,42.086a4.147,4.147,0,1,1,8.294,0A42.135,42.135,0,0,1,42.086,84.173" fill="#006cfa"/>
            </g>
            <text id="_79_2" data-name="79%" transform="translate(28.041 49.628)" font-size="22" font-family="SFCompactText-Bold, SF Compact Text" font-weight="700"><tspan x="0" y="0">79</tspan><tspan y="0" font-size="11">%</tspan></text>
          </g>
        </g>
      </g>
      <g id="Group_206-3" data-name="Group 206" transform="translate(7.5 48.703)">
        <g id="Group_205-3" data-name="Group 205">
          <g transform="matrix(1, 0, 0, 1, 0, -230)" filter="url(#Rectangle_5-3)">
            <rect id="Rectangle_5-10" data-name="Rectangle 5" width="318" height="65" rx="32.5" transform="translate(15 454)" fill="#fff"/>
          </g>
          <g id="Group_182-3" data-name="Group 182" transform="translate(-119 -58)">
            <text id="Cycling-17" data-name="Cycling" transform="translate(178 312)" font-size="18" font-family="SFProText-Semibold, SF Pro Text" font-weight="600"><tspan x="0" y="0">Cycling for 30mins</tspan></text>
            <text id="_7:30PM-3" data-name="7:30PM" transform="translate(178 332)" fill="#9498b8" font-size="14" font-family="SFProText-Medium, SF Pro Text" font-weight="500"><tspan x="0" y="0">7:30 PM</tspan></text>
          </g>
        </g>
        <g id="Group_204-3" data-name="Group 204" transform="translate(842.797 1892.797)">
          <g transform="matrix(1, 0, 0, 1, -842.8, -2122.8)" filter="url(#Ellipse_39-3)">
            <circle id="Ellipse_39-10" data-name="Ellipse 39" cx="52.141" cy="52.141" r="52.141" transform="translate(250.86 430.8)" fill="#fff"/>
          </g>
          <g id="Group_203-3" data-name="Group 203" transform="translate(-582.214 -1682.222)">
            <g id="Group_202-3" data-name="Group 202" transform="translate(0 0)">
              <path id="Fill_1-3" data-name="Fill 1" d="M42.086,84.172A42.086,42.086,0,1,1,84.172,42.086,42.134,42.134,0,0,1,42.086,84.172Zm0-75.879A33.793,33.793,0,1,0,75.879,42.086,33.831,33.831,0,0,0,42.086,8.293Z" fill="#ebf2f4"/>
              <path id="Fill_4-3" data-name="Fill 4" d="M42.086,84.173A42.086,42.086,0,0,1,42.086,0a4.147,4.147,0,0,1,0,8.294A33.792,33.792,0,1,0,75.879,42.086a4.147,4.147,0,1,1,8.294,0A42.135,42.135,0,0,1,42.086,84.173" fill="#006cfa"/>
            </g>
            <text id="_79_3" data-name="79%" transform="translate(28.041 49.628)" font-size="22" font-family="SFCompactText-Bold, SF Compact Text" font-weight="700"><tspan x="0" y="0">79</tspan><tspan y="0" font-size="11">%</tspan></text>
          </g>
        </g>
      </g>
      <g id="Group_206-4" data-name="Group 206" transform="translate(7.5 163.703)">
        <g id="Group_205-4" data-name="Group 205">
          <g transform="matrix(1, 0, 0, 1, 0, -345)" filter="url(#Rectangle_5-4)">
            <rect id="Rectangle_5-11" data-name="Rectangle 5" width="318" height="65" rx="32.5" transform="translate(15 569)" fill="#fff"/>
          </g>
          <g id="Group_182-4" data-name="Group 182" transform="translate(-119 -58)">
            <text id="Cycling-18" data-name="Cycling" transform="translate(178 312)" font-size="18" font-family="SFProText-Semibold, SF Pro Text" font-weight="600"><tspan x="0" y="0">Cycling for 30mins</tspan></text>
            <text id="_7:30PM-4" data-name="7:30PM" transform="translate(178 332)" fill="#9498b8" font-size="14" font-family="SFProText-Medium, SF Pro Text" font-weight="500"><tspan x="0" y="0">7:30 PM</tspan></text>
          </g>
        </g>
        <g id="Group_204-4" data-name="Group 204" transform="translate(842.797 1892.797)">
          <g transform="matrix(1, 0, 0, 1, -842.8, -2237.8)" filter="url(#Ellipse_39-4)">
            <circle id="Ellipse_39-11" data-name="Ellipse 39" cx="52.141" cy="52.141" r="52.141" transform="translate(250.86 545.8)" fill="#fff"/>
          </g>
          <g id="Group_203-4" data-name="Group 203" transform="translate(-582.214 -1682.222)">
            <g id="Group_202-4" data-name="Group 202" transform="translate(0 0)">
              <path id="Fill_1-4" data-name="Fill 1" d="M42.086,84.172A42.086,42.086,0,1,1,84.172,42.086,42.134,42.134,0,0,1,42.086,84.172Zm0-75.879A33.793,33.793,0,1,0,75.879,42.086,33.831,33.831,0,0,0,42.086,8.293Z" fill="#ebf2f4"/>
              <path id="Fill_4-4" data-name="Fill 4" d="M42.086,84.173A42.086,42.086,0,0,1,42.086,0a4.147,4.147,0,0,1,0,8.294A33.792,33.792,0,1,0,75.879,42.086a4.147,4.147,0,1,1,8.294,0A42.135,42.135,0,0,1,42.086,84.173" fill="#006cfa"/>
            </g>
            <text id="_79_4" data-name="79%" transform="translate(28.041 49.628)" font-size="22" font-family="SFCompactText-Bold, SF Compact Text" font-weight="700"><tspan x="0" y="0">79</tspan><tspan y="0" font-size="11">%</tspan></text>
          </g>
        </g>
      </g>
      <g id="Group_206-5" data-name="Group 206" transform="translate(7.5 278.703)">
        <g id="Group_205-5" data-name="Group 205">
          <g transform="matrix(1, 0, 0, 1, 0, -460)" filter="url(#Rectangle_5-5)">
            <rect id="Rectangle_5-12" data-name="Rectangle 5" width="318" height="65" rx="32.5" transform="translate(15 684)" fill="#fff"/>
          </g>
          <g id="Group_182-5" data-name="Group 182" transform="translate(-119 -58)">
            <text id="Cycling-19" data-name="Cycling" transform="translate(178 312)" font-size="18" font-family="SFProText-Semibold, SF Pro Text" font-weight="600"><tspan x="0" y="0">Cycling for 30mins</tspan></text>
            <text id="_7:30PM-5" data-name="7:30PM" transform="translate(178 332)" fill="#9498b8" font-size="14" font-family="SFProText-Medium, SF Pro Text" font-weight="500"><tspan x="0" y="0">7:30 PM</tspan></text>
          </g>
        </g>
        <g id="Group_204-5" data-name="Group 204" transform="translate(842.797 1892.797)">
          <g transform="matrix(1, 0, 0, 1, -842.8, -2352.8)" filter="url(#Ellipse_39-5)">
            <circle id="Ellipse_39-12" data-name="Ellipse 39" cx="52.141" cy="52.141" r="52.141" transform="translate(250.86 660.8)" fill="#fff"/>
          </g>
          <g id="Group_203-5" data-name="Group 203" transform="translate(-582.214 -1682.222)">
            <g id="Group_202-5" data-name="Group 202" transform="translate(0 0)">
              <path id="Fill_1-5" data-name="Fill 1" d="M42.086,84.172A42.086,42.086,0,1,1,84.172,42.086,42.134,42.134,0,0,1,42.086,84.172Zm0-75.879A33.793,33.793,0,1,0,75.879,42.086,33.831,33.831,0,0,0,42.086,8.293Z" fill="#ebf2f4"/>
              <path id="Fill_4-5" data-name="Fill 4" d="M42.086,84.173A42.086,42.086,0,0,1,42.086,0a4.147,4.147,0,0,1,0,8.294A33.792,33.792,0,1,0,75.879,42.086a4.147,4.147,0,1,1,8.294,0A42.135,42.135,0,0,1,42.086,84.173" fill="#006cfa"/>
            </g>
            <text id="_79_5" data-name="79%" transform="translate(28.041 49.628)" font-size="22" font-family="SFCompactText-Bold, SF Compact Text" font-weight="700"><tspan x="0" y="0">79</tspan><tspan y="0" font-size="11">%</tspan></text>
          </g>
        </g>
      </g>
      <g id="Group_206-6" data-name="Group 206" transform="translate(7.5 393.703)">
        <g id="Group_205-6" data-name="Group 205">
          <g transform="matrix(1, 0, 0, 1, 0, -575)" filter="url(#Rectangle_5-6)">
            <rect id="Rectangle_5-13" data-name="Rectangle 5" width="318" height="65" rx="32.5" transform="translate(15 799)" fill="#fff"/>
          </g>
          <g id="Group_182-6" data-name="Group 182" transform="translate(-119 -58)">
            <text id="Cycling-20" data-name="Cycling" transform="translate(178 312)" font-size="18" font-family="SFProText-Semibold, SF Pro Text" font-weight="600"><tspan x="0" y="0">Cycling for 30mins</tspan></text>
            <text id="_7:30PM-6" data-name="7:30PM" transform="translate(178 332)" fill="#9498b8" font-size="14" font-family="SFProText-Medium, SF Pro Text" font-weight="500"><tspan x="0" y="0">7:30 PM</tspan></text>
          </g>
        </g>
        <g id="Group_204-6" data-name="Group 204" transform="translate(842.797 1892.797)">
          <g transform="matrix(1, 0, 0, 1, -842.8, -2467.8)" filter="url(#Ellipse_39-6)">
            <circle id="Ellipse_39-13" data-name="Ellipse 39" cx="52.141" cy="52.141" r="52.141" transform="translate(250.86 775.8)" fill="#fff"/>
          </g>
          <g id="Group_203-6" data-name="Group 203" transform="translate(-582.214 -1682.222)">
            <g id="Group_202-6" data-name="Group 202" transform="translate(0 0)">
              <path id="Fill_1-6" data-name="Fill 1" d="M42.086,84.172A42.086,42.086,0,1,1,84.172,42.086,42.134,42.134,0,0,1,42.086,84.172Zm0-75.879A33.793,33.793,0,1,0,75.879,42.086,33.831,33.831,0,0,0,42.086,8.293Z" fill="#ebf2f4"/>
              <path id="Fill_4-6" data-name="Fill 4" d="M42.086,84.173A42.086,42.086,0,0,1,42.086,0a4.147,4.147,0,0,1,0,8.294A33.792,33.792,0,1,0,75.879,42.086a4.147,4.147,0,1,1,8.294,0A42.135,42.135,0,0,1,42.086,84.173" fill="#006cfa"/>
            </g>
            <text id="_79_6" data-name="79%" transform="translate(28.041 49.628)" font-size="22" font-family="SFCompactText-Bold, SF Compact Text" font-weight="700"><tspan x="0" y="0">79</tspan><tspan y="0" font-size="11">%</tspan></text>
          </g>
        </g>
      </g>
      <g id="Group_206-7" data-name="Group 206" transform="translate(7.5 508.703)">
        <g id="Group_205-7" data-name="Group 205">
          <g transform="matrix(1, 0, 0, 1, 0, -690)" filter="url(#Rectangle_5-7)">
            <rect id="Rectangle_5-14" data-name="Rectangle 5" width="318" height="65" rx="32.5" transform="translate(15 914)" fill="#fff"/>
          </g>
          <g id="Group_182-7" data-name="Group 182" transform="translate(-119 -58)">
            <text id="Cycling-21" data-name="Cycling" transform="translate(178 312)" font-size="18" font-family="SFProText-Semibold, SF Pro Text" font-weight="600"><tspan x="0" y="0">Cycling for 30mins</tspan></text>
            <text id="_7:30PM-7" data-name="7:30PM" transform="translate(178 332)" fill="#9498b8" font-size="14" font-family="SFProText-Medium, SF Pro Text" font-weight="500"><tspan x="0" y="0">7:30 PM</tspan></text>
          </g>
        </g>
        <g id="Group_204-7" data-name="Group 204" transform="translate(842.797 1892.797)">
          <g transform="matrix(1, 0, 0, 1, -842.8, -2582.8)" filter="url(#Ellipse_39-7)">
            <circle id="Ellipse_39-14" data-name="Ellipse 39" cx="52.141" cy="52.141" r="52.141" transform="translate(250.86 890.8)" fill="#fff"/>
          </g>
          <g id="Group_203-7" data-name="Group 203" transform="translate(-582.214 -1682.222)">
            <g id="Group_202-7" data-name="Group 202" transform="translate(0 0)">
              <path id="Fill_1-7" data-name="Fill 1" d="M42.086,84.172A42.086,42.086,0,1,1,84.172,42.086,42.134,42.134,0,0,1,42.086,84.172Zm0-75.879A33.793,33.793,0,1,0,75.879,42.086,33.831,33.831,0,0,0,42.086,8.293Z" fill="#ebf2f4"/>
              <path id="Fill_4-7" data-name="Fill 4" d="M42.086,84.173A42.086,42.086,0,0,1,42.086,0a4.147,4.147,0,0,1,0,8.294A33.792,33.792,0,1,0,75.879,42.086a4.147,4.147,0,1,1,8.294,0A42.135,42.135,0,0,1,42.086,84.173" fill="#006cfa"/>
            </g>
            <text id="_79_7" data-name="79%" transform="translate(28.041 49.628)" font-size="22" font-family="SFCompactText-Bold, SF Compact Text" font-weight="700"><tspan x="0" y="0">79</tspan><tspan y="0" font-size="11">%</tspan></text>
          </g>
        </g>
      </g>
    </g>
    <g id="Group_207" data-name="Group 207">
      <rect id="Rectangle_18" data-name="Rectangle 18" width="375" height="53" transform="translate(0 614)" fill="#fff"/>
      <path id="Path_109" data-name="Path 109" d="M-992,617.412h375.342" transform="translate(992 -3)" fill="none" stroke="#cbcddc" stroke-width="1" opacity="0.176"/>
      <g id="add" transform="translate(150 594.5)" clip-path="url(#clip-path-2)">
        <circle id="Combined_Shape_Copy" data-name="Combined Shape Copy" cx="27.5" cy="27.5" r="27.5" fill="#ff035d"/>
        <path id="Combined_Shape" data-name="Combined Shape" d="M10,22V14H2a2,2,0,0,1,0-4h8V2a2,2,0,0,1,4,0v8h8a2,2,0,1,1,0,4H14v8a2,2,0,1,1-4,0Z" transform="translate(16 16)" fill="#fff"/>
      </g>
      <g id="Group_20" data-name="Group 20" transform="translate(-9)">
        <text id="_7:30PM-8" data-name="7:30PM" transform="translate(81 657.5)" fill="#9498b8" font-size="12" font-family="SFProText-Regular, SF Pro Text"><tspan x="0" y="0">Progress</tspan></text>
        <g id="chart-bar-32" transform="translate(97 624)" clip-path="url(#clip-path-3)">
          <path id="Union_8" data-name="Union 8" d="M14.625,18A1.063,1.063,0,0,1,13.5,16.875V6.75a1.063,1.063,0,0,1,1.126-1.125h2.25A1.063,1.063,0,0,1,18,6.75V16.875A1.063,1.063,0,0,1,16.875,18Zm-6.75,0A1.062,1.062,0,0,1,6.75,16.875V1.125A1.063,1.063,0,0,1,7.875,0h2.25A1.063,1.063,0,0,1,11.25,1.125v15.75A1.062,1.062,0,0,1,10.125,18Zm-6.75,0A1.063,1.063,0,0,1,0,16.875v-4.5A1.064,1.064,0,0,1,1.125,11.25h2.25A1.064,1.064,0,0,1,4.5,12.376v4.5A1.063,1.063,0,0,1,3.375,18Z" transform="translate(0 0)" fill="#a5a4bf"/>
        </g>
      </g>
      <g id="Group_19" data-name="Group 19" transform="translate(-10)">
        <text id="_7:30PM-9" data-name="7:30PM" transform="translate(22 657.5)" fill="#006cfa" font-size="12" font-family="SFProText-Regular, SF Pro Text"><tspan x="0" y="0">Home</tspan></text>
        <g id="house" transform="translate(30 624)">
          <path id="Path_99" data-name="Path 99" d="M17.529,5.834,9.654.209a1.125,1.125,0,0,0-1.307,0L.471,5.834A1.125,1.125,0,0,0,1.779,7.666l.471-.337v9.546A1.125,1.125,0,0,0,3.375,18h11.25a1.125,1.125,0,0,0,1.125-1.125V7.329a1.917,1.917,0,0,0,1.124.546,1.125,1.125,0,0,0,.655-2.041ZM13.5,15.75H11.25V12.375a2.25,2.25,0,0,0-4.5,0V15.75H4.5V5.722L9,2.508l4.5,3.214Z" transform="translate(0)" fill="#006cfa"/>
        </g>
      </g>
      <g id="Group_22" data-name="Group 22" transform="translate(1)">
        <text id="_7:30PM-10" data-name="7:30PM" transform="translate(315 657.5)" fill="#9498b8" font-size="12" font-family="SFProText-Regular, SF Pro Text"><tspan x="0" y="0">Settings</tspan></text>
        <g id="settings-gear-64" transform="translate(330 624)" clip-path="url(#clip-path-3)">
          <path id="Path_108" data-name="Path 108" d="M14.963,5.85,16.2,3.487,14.625,1.912,12.263,3.15a4.03,4.03,0,0,0-1.238-.45l-.9-2.7H7.875l-.9,2.587a4.7,4.7,0,0,0-1.125.45L3.487,1.8,1.8,3.487,3.038,5.85a4.7,4.7,0,0,0-.45,1.125L0,7.875v2.25l2.587.9c.112.45.338.787.45,1.238L1.8,14.625,3.375,16.2l2.362-1.237a4.03,4.03,0,0,0,1.237.45L7.875,18h2.25l.9-2.588c.45-.113.787-.338,1.238-.45L14.625,16.2,16.2,14.625l-1.237-2.363a4.03,4.03,0,0,0,.45-1.238l2.588-.9V7.875l-2.588-.9A4.7,4.7,0,0,0,14.963,5.85ZM9,12.375A3.315,3.315,0,0,1,5.625,9,3.315,3.315,0,0,1,9,5.625,3.315,3.315,0,0,1,12.375,9,3.315,3.315,0,0,1,9,12.375Z" fill="#a5a4bf"/>
        </g>
      </g>
      <g id="Group_21" data-name="Group 21" transform="translate(-7)">
        <text id="_7:30PM-11" data-name="7:30PM" transform="translate(239 657.5)" fill="#9498b8" font-size="12" font-family="SFProText-Regular, SF Pro Text"><tspan x="0" y="0">Messages</tspan></text>
        <g id="chat-46" transform="translate(259 624)">
          <path id="Union_11" data-name="Union 11" d="M11.25,14.625H5.625l2.056-2.251h6.944A1.125,1.125,0,0,0,15.75,11.25V4.5h1.125A1.125,1.125,0,0,1,18,5.625V13.5a1.126,1.126,0,0,1-1.125,1.126h-2.25V18Zm-7.875-4.5H1.125A1.126,1.126,0,0,1,0,9V1.125A1.126,1.126,0,0,1,1.125,0h11.25A1.125,1.125,0,0,1,13.5,1.125V9a1.125,1.125,0,0,1-1.125,1.125H6.75L3.375,13.5Z" transform="translate(0 0)" fill="#a5a4bf"/>
        </g>
      </g>
    </g>
    <g id="Group_213" data-name="Group 213" transform="translate(-4 -9)">
      <g id="Group_211" data-name="Group 211" transform="translate(-196 1872.456)" opacity="0.782">
        <circle id="Ellipse_40" data-name="Ellipse 40" cx="7.419" cy="7.419" r="7.419" transform="translate(385.624 -1843.376)" fill="#ffcf4a"/>
        <g id="Ellipse_41" data-name="Ellipse 41" transform="translate(378 -1851)" fill="none" stroke="#ffcf4a" stroke-width="6" stroke-dasharray="2 12">
          <circle cx="15.044" cy="15.044" r="15.044" stroke="none"/>
          <circle cx="15.044" cy="15.044" r="12.044" fill="none"/>
        </g>
      </g>
      <text id="Cycling-22" data-name="Cycling" transform="translate(135 71)" fill="#414141" font-size="18" font-family="SFProText-Semibold, SF Pro Text" font-weight="600"><tspan x="0" y="0">Good morning</tspan></text>
      <text id="Monday_September_31_2017" data-name="Monday, September 31,2017" transform="translate(131 87)" fill="#b1b1b1" font-size="10" font-family="SFProText-Regular, SF Pro Text"><tspan x="0" y="0">Monday, September 31,2017</tspan></text>
      <g id="Group_212" data-name="Group 212" transform="translate(2)">
        <rect id="Rectangle_743" data-name="Rectangle 743" width="48" height="16" rx="8" transform="translate(172 96)" fill="#006cfa" opacity="0.06"/>
        <text id="Cycling-23" data-name="Cycling" transform="translate(182 108)" fill="#006cfa" font-size="10" font-family="SFProText-Regular, SF Pro Text"><tspan x="0" y="0">Today</tspan></text>
      </g>
    </g>
  </g>
</svg>
