<svg xmlns="http://www.w3.org/2000/svg" viewBox="0 0 3120 1736.4"><defs><style>.cls-1,.cls-25{fill:none;}.cls-1{stroke:#979797;}.cls-2,.cls-23,.cls-26,.cls-28,.cls-3,.cls-34,.cls-35{isolation:isolate;}.cls-17,.cls-23,.cls-26,.cls-28,.cls-3{font-size:37px;}.cls-17,.cls-26,.cls-3,.cls-34,.cls-35{fill:#5b6166;}.cls-17,.cls-23,.cls-26,.cls-28,.cls-3,.cls-35{font-family:Inter-Medium, Inter;font-weight:500;}.cls-4{letter-spacing:-0.01em;}.cls-5{letter-spacing:-0.02em;}.cls-6{letter-spacing:0em;}.cls-7{letter-spacing:-0.02em;}.cls-8{letter-spacing:0.01em;}.cls-9{letter-spacing:-0.01em;}.cls-10{letter-spacing:0em;}.cls-11{fill:#006cfa;}.cls-12{fill:#10af6a;}.cls-13{fill:#e60001;}.cls-14{letter-spacing:-0.01em;}.cls-15{letter-spacing:0em;}.cls-16{letter-spacing:0em;}.cls-18{letter-spacing:-0.02em;}.cls-19{letter-spacing:0em;}.cls-20{letter-spacing:0em;}.cls-21{letter-spacing:0em;}.cls-22{letter-spacing:-0.03em;}.cls-23{fill:#fff;}.cls-24{fill:#76a1da;}.cls-25{stroke:#e69200;stroke-width:2px;}.cls-26{letter-spacing:-0.01em;}.cls-27{letter-spacing:-0.02em;}.cls-28{fill:#5a5a5a;}.cls-29{letter-spacing:-0.02em;}.cls-30{letter-spacing:-0.02em;}.cls-31{letter-spacing:-0.02em;}.cls-32{letter-spacing:-0.02em;}.cls-33{letter-spacing:0em;}.cls-34{font-size:45px;font-family:Inter-Bold, Inter;font-weight:700;}.cls-35{font-size:30px;}.cls-36{letter-spacing:0.01em;}.cls-37{letter-spacing:0em;}.cls-38{letter-spacing:-0.01em;}.cls-39{letter-spacing:0.01em;}.cls-40{fill:#f37034;}.cls-41{letter-spacing:-0.02em;}.cls-42{letter-spacing:0em;}</style></defs><g id="Layer_2" data-name="Layer 2"><g id="Layer_1-2" data-name="Layer 1"><g id="Artboard-Copy"><g id="Group-2"><rect id="Rectangle" class="cls-1" x="41.5" y="94.5" width="437" height="138" rx="18"/><rect id="Rectangle-Copy-4" class="cls-1" x="1730.5" y="94.5" width="437" height="138" rx="18"/><g id="Group"><rect id="Rectangle-Copy-6" class="cls-1" x="2615.5" y="94.5" width="437" height="138" rx="18"/><rect id="Rectangle-Copy-7" class="cls-1" x="2615.5" y="1121.5" width="437" height="138" rx="18"/><g id="App-Store" class="cls-2"><text class="cls-3" transform="translate(2751 177)">App S<tspan class="cls-4" x="105.18" y="0">t</tspan><tspan x="118.73" y="0">o</tspan><tspan class="cls-5" x="141.01" y="0">r</tspan><tspan x="154.49" y="0">e</tspan></text></g><g id="Branch-Api" class="cls-2"><text class="cls-3" transform="translate(2751 1204)">B<tspan class="cls-6" x="24.2" y="0">r</tspan><tspan x="38.24" y="0">anch Api</tspan></text></g><g id="Downloads-Miles-app" class="cls-2"><text class="cls-3" transform="translate(2645.33 315)">D<tspan class="cls-7" x="26.7" y="0">o</tspan><tspan x="48.37" y="0">wnloads Miles app</tspan></text></g><g id="Branch-authenticates" class="cls-2"><text class="cls-3" transform="translate(2582.4 1342)">B<tspan class="cls-6" x="24.2" y="0">r</tspan><tspan x="38.24" y="0">anch au</tspan><tspan class="cls-8" x="177.54" y="0">t</tspan><tspan x="191.71" y="0">hentica</tspan><tspan class="cls-9" x="322.86" y="0">t</tspan><tspan x="336.4" y="0">es in n</tspan><tspan class="cls-10" x="450.97" y="0">e</tspan><tspan x="472.65" y="0">w </tspan></text><text class="cls-3" transform="translate(2685.74 1387)">user during login</text></g><circle id="Oval-Copy-6" class="cls-11" cx="2615" cy="100" r="41"/><circle id="Oval-Copy-7" class="cls-12" cx="2615" cy="1127" r="41"/><circle id="Oval-Copy-13" class="cls-13" cx="2601" cy="1569" r="27"/><g id="_1.-Device-attributed" data-name="1.-Device-attributed" class="cls-2"><text class="cls-3" transform="translate(2671 1576)">1<tspan class="cls-14" x="17.49" y="0">.</tspan><tspan x="27.54" y="0" xml:space="preserve"> D</tspan><tspan class="cls-15" x="64.04" y="0">e</tspan><tspan x="85.67" y="0">vice attribu</tspan><tspan class="cls-9" x="285.53" y="0">t</tspan><tspan x="299.07" y="0">ed as </tspan></text><text class="cls-3" transform="translate(2699 1624.36)">second time d<tspan class="cls-16" x="250.25" y="0">e</tspan><tspan x="271.88" y="0">vice</tspan></text><text class="cls-17" transform="translate(3043.79 1624.36)"> </text><text class="cls-3" transform="translate(2699 1675.36)">2.No <tspan class="cls-5" x="92.88" y="0">r</tspan><tspan x="106.36" y="0">e</tspan><tspan class="cls-18" x="128.09" y="0">f</tspan><tspan class="cls-19" x="141.01" y="0">er</tspan><tspan class="cls-20" x="176.96" y="0">r</tspan><tspan class="cls-21" x="190.99" y="0">al</tspan></text><text class="cls-17" transform="translate(2920.26 1675.36)"> </text><text class="cls-3" transform="translate(2699 1726.36)"><tspan class="cls-22">3</tspan><tspan class="cls-14" x="22.57" y="0">.</tspan><tspan x="32.63" y="0" xml:space="preserve"> Existing email</tspan></text></g><g id="_4" data-name="4" class="cls-2"><text class="cls-23" transform="translate(2606 113)">4</text></g><g id="_5" data-name="5" class="cls-2"><text class="cls-23" transform="translate(2606 1140)">5</text></g><path id="Path-3-Copy-3" class="cls-24" d="M2854.75,963l-7,14-7-14h6l.36-499.76h2L2848.75,963Z"/><rect id="Rectangle-2" data-name="Rectangle" class="cls-25" x="2548" y="1044" width="571" height="431" rx="41"/></g><rect id="Rectangle-Copy-8" class="cls-1" x="1686.5" y="1121.5" width="437" height="138" rx="18"/><rect id="Rectangle-Copy" class="cls-1" x="923.5" y="350.5" width="437" height="138" rx="18"/><rect id="Rectangle-Copy-5" class="cls-1" x="923.5" y="107.5" width="437" height="138" rx="18"/><rect id="Rectangle-Copy-2" class="cls-1" x="923.5" y="558.5" width="437" height="138" rx="18"/><rect id="Rectangle-Copy-3" class="cls-1" x="923.5" y="766.5" width="437" height="138" rx="18"/><g id="Refer-a-friend" class="cls-2"><text class="cls-26" transform="translate(140 177)">R<tspan class="cls-19" x="23.61" y="0">e</tspan><tspan class="cls-18" x="45.34" y="0">f</tspan><tspan class="cls-19" x="58.26" y="0">er a friend</tspan></text></g><g id="Branch.io" class="cls-2"><text class="cls-3" transform="translate(1866 177)">B<tspan class="cls-6" x="24.2" y="0">r</tspan><tspan x="38.24" y="0">anch.io</tspan></text></g><g id="Bonus-Miles" class="cls-2"><text class="cls-3" transform="translate(1794 1204)">Bonus Miles</text></g><g id="Social-Media" class="cls-2"><text class="cls-3" transform="translate(1029 433)">Social Media</text></g><g id="Channels-for-referin" class="cls-2"><text class="cls-3" transform="translate(954 194)">Channels <tspan class="cls-18" x="175.32" y="0">f</tspan><tspan x="188.23" y="0">or </tspan><tspan class="cls-5" x="234.53" y="0">r</tspan><tspan x="248.02" y="0">e</tspan><tspan class="cls-27" x="269.75" y="0">f</tspan><tspan class="cls-21" x="282.66" y="0">ering</tspan></text></g><g id="Channels-for-referin-2" data-name="Channels-for-referin" class="cls-2"><text class="cls-28" transform="translate(954 1013)">Channels <tspan class="cls-18" x="175.32" y="0">f</tspan><tspan x="188.23" y="0">or </tspan><tspan class="cls-5" x="234.53" y="0">r</tspan><tspan x="248.02" y="0">e</tspan><tspan class="cls-27" x="269.75" y="0">f</tspan><tspan class="cls-21" x="282.66" y="0">ering</tspan></text></g><g id="In-app-feature" class="cls-2"><text class="cls-3" transform="translate(137 315)">In app <tspan class="cls-27" x="118.41" y="0">f</tspan><tspan x="131.33" y="0">eatu</tspan><tspan class="cls-5" x="209.87" y="0">r</tspan><tspan class="cls-19" x="223.35" y="0">e</tspan></text></g><g id="Single-responsive-we" class="cls-2"><text class="cls-3" transform="translate(1705.45 315)">Single <tspan class="cls-5" x="118.7" y="0">r</tspan><tspan class="cls-19" x="132.18" y="0">esponsi</tspan><tspan class="cls-29" x="270" y="0">v</tspan><tspan class="cls-19" x="290.24" y="0">e </tspan><tspan class="cls-30" x="321.78" y="0">w</tspan><tspan x="351.68" y="0">ebpage</tspan></text><text class="cls-17" transform="translate(2190.49 315)"> </text><text class="cls-3" transform="translate(1752.1 360)"><tspan class="cls-18">f</tspan><tspan x="12.92" y="0">or attribution channel</tspan></text></g><g id="New-user-awarded-ref" class="cls-2"><text class="cls-3" transform="translate(1609.39 1342)">N<tspan class="cls-10" x="27.63" y="0">e</tspan><tspan class="cls-21" x="49.31" y="0">w user awa</tspan><tspan class="cls-5" x="249.85" y="0">r</tspan><tspan x="263.34" y="0">ded </tspan><tspan class="cls-31" x="341.17" y="0">r</tspan><tspan x="354.65" y="0">e</tspan><tspan class="cls-32" x="376.39" y="0">f</tspan><tspan x="389.3" y="0">er</tspan><tspan class="cls-6" x="425.25" y="0">r</tspan><tspan class="cls-33" x="439.28" y="0">al bonus</tspan></text></g><g id="Legend" class="cls-2"><text class="cls-34" transform="translate(0.81 1142)">Legend</text></g><g id="Inside-the-app" class="cls-2"><text class="cls-35" transform="translate(77.11 1216)">Inside <tspan class="cls-36" x="93.89" y="0">t</tspan><tspan class="cls-37" x="105.38" y="0">he app</tspan></text></g><g id="Outside-the-app" class="cls-2"><text class="cls-35" transform="translate(77.1 1278)">Ou<tspan class="cls-38" x="40.88" y="0">t</tspan><tspan x="51.75" y="0">side </tspan><tspan class="cls-39" x="119.64" y="0">t</tspan><tspan x="131.13" y="0">he app</tspan></text></g><g id="Sharing-channels" class="cls-2"><text class="cls-35" transform="translate(77.01 1342)">Sharing channels</text></g><g id="Issues" class="cls-2"><text class="cls-35" transform="translate(76.62 1403)">Issues</text></g><g id="Email" class="cls-2"><text class="cls-3" transform="translate(1095 641)">Email</text></g><g id="SMS" class="cls-2"><text class="cls-3" transform="translate(1101 849)">SMS</text></g><circle id="Oval" class="cls-12" cx="41" cy="100" r="41"/><circle id="Oval-Copy-5" class="cls-12" cx="926" cy="100" r="41"/><circle id="Oval-Copy-4" class="cls-11" cx="1730" cy="100" r="41"/><circle id="Oval-Copy-8" class="cls-12" cx="1686" cy="1127" r="41"/><circle id="Oval-Copy-9" class="cls-12" cx="20.81" cy="1208" r="20"/><circle id="Oval-Copy-10" class="cls-11" cx="20" cy="1269.87" r="20"/><circle id="Oval-Copy-11" class="cls-40" cx="20" cy="1331.17" r="20"/><circle id="Oval-Copy-15" class="cls-13" cx="20" cy="1392.17" r="20"/><circle id="Oval-Copy" class="cls-40" cx="923" cy="356" r="41"/><circle id="Oval-Copy-12" class="cls-13" cx="1794" cy="534" r="27"/><circle id="Oval-Copy-14" class="cls-13" cx="1672" cy="1569" r="27"/><g id="Attribution-fails" class="cls-2"><text class="cls-3" transform="translate(1836.92 548)"><tspan class="cls-22">A</tspan><tspan x="24.64" y="0">ttribution </tspan><tspan class="cls-41" x="197.88" y="0">f</tspan><tspan x="210.75" y="0">ails</tspan></text></g><g id="No-Bonus-Miles-Assig" class="cls-2"><text class="cls-3" transform="translate(1724 1586)">No Bonus Miles <tspan class="cls-42" x="283.6" y="0">A</tspan><tspan x="309.34" y="0">ssigned</tspan></text></g><circle id="Oval-Copy-2" class="cls-40" cx="923" cy="571" r="41"/><circle id="Oval-Copy-3" class="cls-40" cx="923" cy="772" r="41"/><g id="_1" data-name="1" class="cls-2"><text class="cls-23" transform="translate(32 113)">1</text></g><g id="_2" data-name="2" class="cls-2"><text class="cls-23" transform="translate(917 113)">2</text></g><g id="_3" data-name="3" class="cls-2"><text class="cls-23" transform="translate(1721 113)">3</text></g><g id="_6" data-name="6" class="cls-2"><text class="cls-23" transform="translate(1677 1140)">6</text></g><g id="_1-copy" data-name="1-copy" class="cls-2"><text class="cls-23" transform="translate(914 369)">1</text></g><g id="_2-2" data-name="2" class="cls-2"><text class="cls-23" transform="translate(914 584)">2</text></g><g id="_3-2" data-name="3" class="cls-2"><text class="cls-23" transform="translate(914 785)">3</text></g><path id="Path-3" class="cls-24" d="M732,156l14,7-14,7,0-6-164.89.46v-2L732,162Z"/><path id="Path-3-Copy" class="cls-24" d="M2482.63,156.5l14,7-14,7v-6H2256.11v-2h226.52Z"/><path id="Path-3-Copy-4" class="cls-24" d="M2270.11,1197.5l-14-7,14-7v6h226.52v2H2270.11Z"/><path id="Path-3-Copy-2" class="cls-24" d="M1602,156l14,7-14,7,0-6-174.89.46v-2L1602,162Z"/><rect id="Rectangle-Copy-10" class="cls-25" x="1590" y="1044" width="618" height="431" rx="41"/><rect id="Rectangle-Copy-9" class="cls-25" x="1657" y="1" width="571" height="461" rx="41"/></g></g></g></g></svg>