<svg xmlns="http://www.w3.org/2000/svg" viewBox="0 0 3095.52 2181.17"><defs><style>.cls-1,.cls-41,.cls-44{fill:none;}.cls-1{stroke:#979797;}.cls-15,.cls-2,.cls-26,.cls-27,.cls-28,.cls-3,.cls-37,.cls-47,.cls-6{isolation:isolate;}.cls-15,.cls-18,.cls-26,.cls-3,.cls-37,.cls-6{font-size:37px;}.cls-18,.cls-26,.cls-27,.cls-28,.cls-3,.cls-6{fill:#5b6166;}.cls-15,.cls-18,.cls-26,.cls-28,.cls-3,.cls-37,.cls-47,.cls-6{font-family:Inter-Medium, Inter;font-weight:500;}.cls-3,.cls-36{letter-spacing:-0.01em;}.cls-4{letter-spacing:0em;}.cls-5{letter-spacing:-0.02em;}.cls-7{letter-spacing:0em;}.cls-8{letter-spacing:-0.01em;}.cls-9{letter-spacing:-0.02em;}.cls-10{letter-spacing:-0.01em;}.cls-11{letter-spacing:0em;}.cls-12{letter-spacing:-0.01em;}.cls-13{letter-spacing:-0.02em;}.cls-14{letter-spacing:0em;}.cls-15{fill:#5a5a5a;}.cls-16{letter-spacing:-0.02em;}.cls-17{letter-spacing:-0.02em;}.cls-19{letter-spacing:-0.02em;}.cls-20{letter-spacing:0.01em;}.cls-21{letter-spacing:-0.01em;}.cls-22{letter-spacing:0em;}.cls-23{letter-spacing:-0.02em;}.cls-24{letter-spacing:-0.02em;}.cls-25{letter-spacing:0em;}.cls-26{letter-spacing:-0.09em;}.cls-27{font-size:45px;font-family:Inter-Bold, Inter;font-weight:700;}.cls-28{font-size:30px;}.cls-29{letter-spacing:0.01em;}.cls-30{letter-spacing:0em;}.cls-31{letter-spacing:-0.01em;}.cls-32{letter-spacing:0.01em;}.cls-33{fill:#10af6a;}.cls-34{fill:#006cfa;}.cls-35{fill:#f37034;}.cls-37{fill:#fff;}.cls-38{fill:#76a1da;}.cls-39{fill:#cfffea;}.cls-39,.cls-40,.cls-42,.cls-43,.cls-45,.cls-46{fill-rule:evenodd;}.cls-40{fill:#10af94;}.cls-41,.cls-44{stroke:#fff;stroke-linecap:round;}.cls-41{stroke-linejoin:round;stroke-width:6px;}.cls-42{fill:#ffdadc;}.cls-43{fill:#e64d53;}.cls-44{stroke-width:7px;}.cls-45{fill:#fff1cb;}.cls-46{fill:#ffc21a;}.cls-47{font-size:32px;fill:#212324;}.cls-48{letter-spacing:0em;}</style></defs><g id="Layer_2" data-name="Layer 2"><g id="Layer_1-2" data-name="Layer 1"><g id="RAF"><g id="Artboard-Copy-5"><g id="Group-4"><rect id="Rectangle" class="cls-1" x="41.5" y="35.5" width="437" height="138" rx="18"/><rect id="Rectangle-Copy-4" class="cls-1" x="1730.5" y="35.5" width="437" height="138" rx="18"/><rect id="Rectangle-Copy-6" class="cls-1" x="2615.5" y="35.5" width="437" height="138" rx="18"/><rect id="Rectangle-Copy-7" class="cls-1" x="2615.5" y="1062.5" width="437" height="138" rx="18"/><rect id="Rectangle-Copy-8" class="cls-1" x="1733.5" y="1062.5" width="437" height="138" rx="18"/><rect id="Rectangle-Copy-10" class="cls-1" x="1733.5" y="1532.5" width="437" height="184" rx="18"/><rect id="Rectangle-Copy-11" class="cls-1" x="1733.5" y="1996.5" width="437" height="184" rx="18"/><rect id="Rectangle-Copy" class="cls-1" x="923.5" y="291.5" width="437" height="138" rx="18"/><rect id="Rectangle-Copy-5" class="cls-1" x="923.5" y="48.5" width="437" height="138" rx="18"/><rect id="Rectangle-Copy-2" class="cls-1" x="923.5" y="499.5" width="437" height="138" rx="18"/><rect id="Rectangle-Copy-3" class="cls-1" x="923.5" y="707.5" width="437" height="138" rx="18"/><rect id="Rectangle-Copy-9" class="cls-1" x="923.5" y="933.5" width="437" height="138" rx="18"/><g id="Refer-a-friend" class="cls-2"><text class="cls-3" transform="translate(140 118)">R<tspan class="cls-4" x="23.61" y="0">e</tspan><tspan class="cls-5" x="45.34" y="0">f</tspan><tspan class="cls-4" x="58.26" y="0">er a friend</tspan></text></g><g id="Branch.io" class="cls-2"><text class="cls-6" transform="translate(1866 118)">B<tspan class="cls-7" x="24.2" y="0">r</tspan><tspan x="38.24" y="0">anch.io</tspan></text></g><g id="App-Store" class="cls-2"><text class="cls-6" transform="translate(2751 118)">App S<tspan class="cls-8" x="105.18" y="0">t</tspan><tspan x="118.73" y="0">o</tspan><tspan class="cls-9" x="141.01" y="0">r</tspan><tspan x="154.49" y="0">e</tspan></text></g><g id="Branch-Api" class="cls-2"><text class="cls-6" transform="translate(2751 1145)">B<tspan class="cls-7" x="24.2" y="0">r</tspan><tspan x="38.24" y="0">anch Api</tspan></text></g><g id="Bonus-_-Referral-Mil" data-name="Bonus-+-Referral-Mil" class="cls-2"><text class="cls-6" transform="translate(1752 1145)">Bonus + <tspan class="cls-10" x="154.65" y="0">R</tspan><tspan x="178.26" y="0">e</tspan><tspan class="cls-5" x="199.99" y="0">f</tspan><tspan class="cls-4" x="212.91" y="0">er</tspan><tspan class="cls-11" x="248.86" y="0">r</tspan><tspan x="262.89" y="0">al Miles</tspan></text></g><g id="Bonus-Miles-Copy" class="cls-2"><text class="cls-6" transform="translate(1841 1615)">Bonus Miles</text></g><g id="Account" class="cls-2"><text class="cls-6" transform="translate(1870 2079)"><tspan class="cls-12">A</tspan><tspan x="25.58" y="0">ccount</tspan></text></g><g id="_Enter-referral-code" data-name="[Enter-referral-code" class="cls-2"><text class="cls-6" transform="translate(1776 1660)">[En<tspan class="cls-8" x="58.39" y="0">t</tspan><tspan x="71.94" y="0">er </tspan><tspan class="cls-9" x="117.69" y="0">r</tspan><tspan class="cls-4" x="131.17" y="0">e</tspan><tspan class="cls-5" x="152.9" y="0">f</tspan><tspan class="cls-4" x="165.82" y="0">er</tspan><tspan class="cls-7" x="201.77" y="0">r</tspan><tspan x="215.8" y="0">al code]</tspan></text></g><g id="_Enter-referral-code-Copy" data-name="[Enter-referral-code-Copy" class="cls-2"><text class="cls-6" transform="translate(1776 2124)">[En<tspan class="cls-8" x="58.39" y="0">t</tspan><tspan x="71.94" y="0">er </tspan><tspan class="cls-9" x="117.69" y="0">r</tspan><tspan class="cls-4" x="131.17" y="0">e</tspan><tspan class="cls-5" x="152.9" y="0">f</tspan><tspan class="cls-4" x="165.82" y="0">er</tspan><tspan class="cls-7" x="201.77" y="0">r</tspan><tspan x="215.8" y="0">al code]</tspan></text></g><g id="Social-Media" class="cls-2"><text class="cls-6" transform="translate(1029 374)">Social Media</text></g><g id="Channels-for-referin" class="cls-2"><text class="cls-6" transform="translate(954 135)">Channels <tspan class="cls-5" x="175.32" y="0">f</tspan><tspan x="188.23" y="0">or </tspan><tspan class="cls-9" x="234.53" y="0">r</tspan><tspan x="248.02" y="0">e</tspan><tspan class="cls-13" x="269.75" y="0">f</tspan><tspan class="cls-14" x="282.66" y="0">ering</tspan></text></g><g id="Channels-for-referin-2" data-name="Channels-for-referin" class="cls-2"><text class="cls-15" transform="translate(940 1191)">Channels <tspan class="cls-5" x="175.32" y="0">f</tspan><tspan x="188.23" y="0">or </tspan><tspan class="cls-9" x="234.53" y="0">r</tspan><tspan x="248.02" y="0">e</tspan><tspan class="cls-13" x="269.75" y="0">f</tspan><tspan class="cls-14" x="282.66" y="0">ering</tspan></text></g><g id="In-app-feature" class="cls-2"><text class="cls-6" transform="translate(137 256)">In app <tspan class="cls-13" x="118.41" y="0">f</tspan><tspan x="131.33" y="0">eatu</tspan><tspan class="cls-9" x="209.87" y="0">r</tspan><tspan class="cls-4" x="223.35" y="0">e</tspan></text></g><g id="Single-responsive-we" class="cls-2"><text class="cls-6" transform="translate(1705.45 256)">Single <tspan class="cls-9" x="118.7" y="0">r</tspan><tspan class="cls-4" x="132.18" y="0">esponsi</tspan><tspan class="cls-16" x="270" y="0">v</tspan><tspan class="cls-4" x="290.24" y="0">e </tspan><tspan class="cls-17" x="321.78" y="0">w</tspan><tspan x="351.68" y="0">ebpage</tspan></text><text class="cls-18" transform="translate(2190.49 256)"> </text><text class="cls-6" transform="translate(1752.1 301)"><tspan class="cls-5">f</tspan><tspan x="12.92" y="0">or attribution channel</tspan></text></g><g id="Downloads-Miles-app" class="cls-2"><text class="cls-6" transform="translate(2645.33 256)">D<tspan class="cls-19" x="26.7" y="0">o</tspan><tspan x="48.37" y="0">wnloads Miles app</tspan></text></g><g id="Branch-authenticates" class="cls-2"><text class="cls-6" transform="translate(2582.4 1283)">B<tspan class="cls-7" x="24.2" y="0">r</tspan><tspan x="38.24" y="0">anch au</tspan><tspan class="cls-20" x="177.54" y="0">t</tspan><tspan x="191.71" y="0">hentica</tspan><tspan class="cls-21" x="322.86" y="0">t</tspan><tspan x="336.4" y="0">es in n</tspan><tspan class="cls-22" x="450.97" y="0">e</tspan><tspan x="472.65" y="0">w </tspan></text><text class="cls-6" transform="translate(2685.74 1328)">user during login</text></g><g id="New-user-awarded-ref" class="cls-2"><text class="cls-6" transform="translate(1656.39 1257)">N<tspan class="cls-22" x="27.63" y="0">e</tspan><tspan class="cls-14" x="49.31" y="0">w user awa</tspan><tspan class="cls-9" x="249.85" y="0">r</tspan><tspan x="263.34" y="0">ded </tspan><tspan class="cls-23" x="341.17" y="0">r</tspan><tspan x="354.65" y="0">e</tspan><tspan class="cls-24" x="376.39" y="0">f</tspan><tspan x="389.3" y="0">er</tspan><tspan class="cls-7" x="425.25" y="0">r</tspan><tspan class="cls-25" x="439.28" y="0">al bonus</tspan></text></g><g id="_Skip-Option_" data-name="[Skip-Option]" class="cls-2"><text class="cls-6" transform="translate(1835.59 1776)">[Skip Option]</text></g><g id="Yes" class="cls-2"><text class="cls-26" transform="translate(2419.55 1081)">Y<tspan class="cls-4" x="22.05" y="0">es</tspan></text></g><g id="No" class="cls-2"><text class="cls-6" transform="translate(2541.04 1593)">No</text></g><g id="Group"><g id="Legend" class="cls-2"><text class="cls-27" transform="translate(0.81 1972)">Legend</text></g><g id="Inside-the-app" class="cls-2"><text class="cls-28" transform="translate(77.11 2046)">Inside <tspan class="cls-29" x="93.89" y="0">t</tspan><tspan class="cls-30" x="105.38" y="0">he app</tspan></text></g><g id="Outside-the-app" class="cls-2"><text class="cls-28" transform="translate(77.1 2108)">Ou<tspan class="cls-31" x="40.88" y="0">t</tspan><tspan x="51.75" y="0">side </tspan><tspan class="cls-32" x="119.64" y="0">t</tspan><tspan x="131.13" y="0">he app</tspan></text></g><g id="Sharing-channels" class="cls-2"><text class="cls-28" transform="translate(77.01 2172)">Sharing channels</text></g><circle id="Oval-Copy-9" class="cls-33" cx="20.81" cy="2038" r="20"/><circle id="Oval-Copy-10" class="cls-34" cx="20" cy="2099.87" r="20"/><circle id="Oval-Copy-11" class="cls-35" cx="20" cy="2161.17" r="20"/></g><g id="Email" class="cls-2"><text class="cls-6" transform="translate(1095 582)">Email</text></g><g id="SMS" class="cls-2"><text class="cls-6" transform="translate(1101 790)">SMS</text></g><g id="Referral-code" class="cls-2"><text class="cls-6" transform="translate(1023 1016)"><tspan class="cls-36">R</tspan><tspan class="cls-4" x="23.61" y="0">e</tspan><tspan class="cls-5" x="45.34" y="0">f</tspan><tspan class="cls-4" x="58.26" y="0">er</tspan><tspan class="cls-7" x="94.21" y="0">r</tspan><tspan x="108.24" y="0">al code</tspan></text></g><circle id="Oval" class="cls-33" cx="41" cy="41" r="41"/><circle id="Oval-Copy-5" class="cls-33" cx="926" cy="41" r="41"/><circle id="Oval-Copy-4" class="cls-34" cx="1730" cy="41" r="41"/><circle id="Oval-Copy-6" class="cls-34" cx="2615" cy="41" r="41"/><circle id="Oval-Copy-7" class="cls-33" cx="2615" cy="1068" r="41"/><circle id="Oval-Copy-8" class="cls-33" cx="1733" cy="1068" r="41"/><circle id="Oval-Copy-13" class="cls-33" cx="1733" cy="1538" r="41"/><circle id="Oval-Copy-14" class="cls-33" cx="1733" cy="2002" r="41"/><circle id="Oval-Copy" class="cls-35" cx="923" cy="297" r="41"/><circle id="Oval-Copy-2" class="cls-35" cx="923" cy="512" r="41"/><circle id="Oval-Copy-3" class="cls-35" cx="923" cy="713" r="41"/><circle id="Oval-Copy-12" class="cls-35" cx="923" cy="939" r="41"/><g id="_1" data-name="1" class="cls-2"><text class="cls-37" transform="translate(32 54)">1</text></g><g id="_2" data-name="2" class="cls-2"><text class="cls-37" transform="translate(917 54)">2</text></g><g id="_3" data-name="3" class="cls-2"><text class="cls-37" transform="translate(1721 54)">3</text></g><g id="_4" data-name="4" class="cls-2"><text class="cls-37" transform="translate(2606 54)">4</text></g><g id="_5" data-name="5" class="cls-2"><text class="cls-37" transform="translate(2606 1081)">5</text></g><g id="_6" data-name="6" class="cls-2"><text class="cls-37" transform="translate(1724 1081)">6</text></g><g id="_6-copy" data-name="6-copy" class="cls-2"><text class="cls-37" transform="translate(1724 1551)">6</text></g><g id="_7" data-name="7" class="cls-2"><text class="cls-37" transform="translate(1724 2015)">7</text></g><g id="_1-copy" data-name="1-copy" class="cls-2"><text class="cls-37" transform="translate(914 310)">1</text></g><g id="_2-2" data-name="2" class="cls-2"><text class="cls-37" transform="translate(914 525)">2</text></g><g id="_3-2" data-name="3" class="cls-2"><text class="cls-37" transform="translate(914 726)">3</text></g><g id="_4-2" data-name="4" class="cls-2"><text class="cls-37" transform="translate(914 952)">4</text></g><path id="Path-3" class="cls-38" d="M732,97l14,7-14,7,0-6-164.89.46v-2L732,103Z"/><path id="Path-3-Copy" class="cls-38" d="M2482.63,97.5l14,7-14,7v-6H2256.11v-2h226.52Z"/><path id="Path-3-Copy-4" class="cls-38" d="M2270.11,1124.5l-14,7,14,7v-6h226.52v-2H2270.11Z"/><path id="Path-3-Copy-5" class="cls-38" d="M2831.63,1404.47v224H2261v-6l-14,7,14,7v-6h572.63v-226Z"/><path id="Path-3-Copy-3" class="cls-38" d="M2840.75,988l-7,14-7-14h6l.36-583.76h2L2834.75,988Z"/><path id="Path-3-Copy-6" class="cls-38" d="M1954.75,1947l-7,14-7-14h6l.33-139.76h2l-.33,139.76Z"/><path id="Path-3-Copy-2" class="cls-38" d="M1602,97l14,7-14,7,0-6-174.89.46v-2L1602,103Z"/><g id="Group-3"><path id="Star-Copy" class="cls-39" d="M2367.18,1108.73a4.9,4.9,0,0,1-8.76-3.19,11.8,11.8,0,0,0-11.36-12.23,11.93,11.93,0,0,0-2.92.25,4.9,4.9,0,0,1-4.66-8.07,11.8,11.8,0,0,0-.84-16.68,12.1,12.1,0,0,0-2.39-1.68,4.89,4.89,0,0,1,1.61-9.17,11.81,11.81,0,0,0,10.08-13.32,11.62,11.62,0,0,0-.76-2.83,4.9,4.9,0,0,1,7.14-6,11.82,11.82,0,0,0,17.52-6.37,4.9,4.9,0,0,1,9.32,0,11.81,11.81,0,0,0,17.52,6.37,4.9,4.9,0,0,1,7.14,6,11.81,11.81,0,0,0,6.49,15.39,12.09,12.09,0,0,0,2.83.76,4.89,4.89,0,0,1,1.61,9.17,11.81,11.81,0,0,0-3.23,18.36,4.89,4.89,0,0,1-4.66,8.07,11.79,11.79,0,0,0-14.28,12,4.9,4.9,0,0,1-8.76,3.19,11.81,11.81,0,0,0-18.64,0Z"/><path id="Star" class="cls-40" d="M2369.66,1098.29a3.6,3.6,0,0,1-6.43-2.34,8.66,8.66,0,0,0-8.34-9,9,9,0,0,0-2.14.19,3.59,3.59,0,0,1-3.42-5.92,8.67,8.67,0,0,0-.61-12.24,8.89,8.89,0,0,0-1.76-1.24,3.59,3.59,0,0,1,1.18-6.73,8.67,8.67,0,0,0,7.4-9.78,8.81,8.81,0,0,0-.56-2.07,3.6,3.6,0,0,1,5.24-4.4,8.67,8.67,0,0,0,12.86-4.68,3.6,3.6,0,0,1,6.84,0,8.66,8.66,0,0,0,10.91,5.59,8.87,8.87,0,0,0,2-.91,3.59,3.59,0,0,1,4.95,1.13,3.64,3.64,0,0,1,.29,3.27,8.66,8.66,0,0,0,4.76,11.29,8.76,8.76,0,0,0,2.08.56,3.59,3.59,0,0,1,1.18,6.73,8.67,8.67,0,0,0-3.6,11.72,8.84,8.84,0,0,0,1.23,1.76,3.59,3.59,0,0,1-3.42,5.92,8.66,8.66,0,0,0-10.29,6.65,8.16,8.16,0,0,0-.19,2.14,3.59,3.59,0,0,1-6.43,2.34,8.68,8.68,0,0,0-12.16-1.52A9.11,9.11,0,0,0,2369.66,1098.29Z"/><polyline id="Path-4" class="cls-41" points="2367.73 1069.86 2374.45 1077.25 2389.66 1064.41"/></g><g id="Group-3-Copy"><path id="Star-Copy-2" data-name="Star-Copy" class="cls-42" d="M2477.18,1618.73a4.9,4.9,0,0,1-8.76-3.19,11.8,11.8,0,0,0-11.36-12.23,11.93,11.93,0,0,0-2.92.25,4.9,4.9,0,0,1-4.66-8.07,11.8,11.8,0,0,0-.84-16.68,12.1,12.1,0,0,0-2.39-1.68,4.89,4.89,0,0,1,1.61-9.17,11.81,11.81,0,0,0,10.08-13.32,11.62,11.62,0,0,0-.76-2.83,4.9,4.9,0,0,1,7.14-6,11.82,11.82,0,0,0,17.52-6.37,4.9,4.9,0,0,1,9.32,0,11.81,11.81,0,0,0,17.52,6.37,4.9,4.9,0,0,1,7.14,6,11.81,11.81,0,0,0,6.49,15.39,12.09,12.09,0,0,0,2.83.76,4.89,4.89,0,0,1,1.61,9.17,11.81,11.81,0,0,0-3.23,18.36,4.89,4.89,0,0,1-4.66,8.07,11.79,11.79,0,0,0-14.28,12,4.9,4.9,0,0,1-8.76,3.19,11.81,11.81,0,0,0-18.64,0Z"/><path id="Star-2" data-name="Star" class="cls-43" d="M2479.66,1608.29a3.6,3.6,0,0,1-6.43-2.34,8.66,8.66,0,0,0-8.34-9,9,9,0,0,0-2.14.19,3.59,3.59,0,0,1-3.42-5.92,8.67,8.67,0,0,0-.61-12.24,8.89,8.89,0,0,0-1.76-1.24,3.59,3.59,0,0,1,1.18-6.73,8.67,8.67,0,0,0,7.4-9.78,8.81,8.81,0,0,0-.56-2.07,3.6,3.6,0,0,1,5.24-4.4,8.67,8.67,0,0,0,12.86-4.68,3.6,3.6,0,0,1,6.84,0,8.66,8.66,0,0,0,10.91,5.59,8.87,8.87,0,0,0,2-.91,3.59,3.59,0,0,1,4.95,1.13,3.64,3.64,0,0,1,.29,3.27,8.66,8.66,0,0,0,4.76,11.29,8.76,8.76,0,0,0,2.08.56,3.59,3.59,0,0,1,1.18,6.73,8.67,8.67,0,0,0-3.6,11.72,8.84,8.84,0,0,0,1.23,1.76,3.59,3.59,0,0,1-3.42,5.92,8.66,8.66,0,0,0-10.29,6.65,8.16,8.16,0,0,0-.19,2.14,3.59,3.59,0,0,1-6.43,2.34,8.68,8.68,0,0,0-12.16-1.52A9.11,9.11,0,0,0,2479.66,1608.29Z"/><line id="Path-5" class="cls-44" x1="2479.98" y1="1572.09" x2="2493.92" y2="1586.91"/><line id="Path-5-2" data-name="Path-5" class="cls-44" x1="2494.54" y1="1572.72" x2="2479.36" y2="1586.27"/></g><g id="Group-2"><path id="Rectangle-2" data-name="Rectangle" class="cls-45" d="M1280.48,912h95a28,28,0,0,1,28,28h0a28,28,0,0,1-28,28h-95a28,28,0,0,1-28-28h0A28,28,0,0,1,1280.48,912Z"/><polygon id="Star-3" data-name="Star" class="cls-46" points="1283 949 1272.42 954.56 1274.44 942.78 1265.88 934.44 1277.71 932.72 1283 922 1288.29 932.72 1300.12 934.44 1291.56 942.78 1293.58 954.56 1283 949"/><g id="New" class="cls-2"><text class="cls-47" transform="translate(1314 951)">N<tspan class="cls-48" x="23.9" y="0">e</tspan><tspan x="42.65" y="0">w</tspan></text></g></g><g id="Group-2-Copy"><path id="Rectangle-3" data-name="Rectangle" class="cls-45" d="M2112.48,1504h95a28,28,0,0,1,28,28h0a28,28,0,0,1-28,28h-95a28,28,0,0,1-28-28h0A28,28,0,0,1,2112.48,1504Z"/><polygon id="Star-4" data-name="Star" class="cls-46" points="2115 1541 2104.42 1546.56 2106.44 1534.78 2097.88 1526.44 2109.71 1524.72 2115 1514 2120.29 1524.72 2132.12 1526.44 2123.56 1534.78 2125.58 1546.56 2115 1541"/><g id="New-2" data-name="New" class="cls-2"><text class="cls-47" transform="translate(2146 1543)">N<tspan class="cls-48" x="23.9" y="0">e</tspan><tspan x="42.65" y="0">w</tspan></text></g></g><g id="Group-2-Copy-3"><path id="Rectangle-4" data-name="Rectangle" class="cls-45" d="M2972.48,1040h95a28,28,0,0,1,28,28h0a28,28,0,0,1-28,28h-95a28,28,0,0,1-28-28h0A28,28,0,0,1,2972.48,1040Z"/><polygon id="Star-5" data-name="Star" class="cls-46" points="2975 1077 2964.42 1082.56 2966.44 1070.78 2957.88 1062.44 2969.71 1060.72 2975 1050 2980.29 1060.72 2992.12 1062.44 2983.56 1070.78 2985.58 1082.56 2975 1077"/><g id="New-3" data-name="New" class="cls-2"><text class="cls-47" transform="translate(3006 1079)">N<tspan class="cls-48" x="23.9" y="0">e</tspan><tspan x="42.65" y="0">w</tspan></text></g></g><g id="Group-2-Copy-2"><path id="Rectangle-5" data-name="Rectangle" class="cls-45" d="M2112.48,1968h95a28,28,0,0,1,28,28h0a28,28,0,0,1-28,28h-95a28,28,0,0,1-28-28h0A28,28,0,0,1,2112.48,1968Z"/><polygon id="Star-6" data-name="Star" class="cls-46" points="2115 2005 2104.42 2010.56 2106.44 1998.78 2097.88 1990.44 2109.71 1988.72 2115 1978 2120.29 1988.72 2132.12 1990.44 2123.56 1998.78 2125.58 2010.56 2115 2005"/><g id="New-4" data-name="New" class="cls-2"><text class="cls-47" transform="translate(2146 2007)">N<tspan class="cls-48" x="23.9" y="0">e</tspan><tspan x="42.65" y="0">w</tspan></text></g></g></g></g></g></g></g></svg>