<?xml version="1.0" encoding="utf-8"?>
<!-- Generator: Adobe Illustrator 25.2.1, SVG Export Plug-In . SVG Version: 6.00 Build 0)  -->
<svg version="1.1" id="Layer_1" xmlns="http://www.w3.org/2000/svg" xmlns:xlink="http://www.w3.org/1999/xlink" x="0px" y="0px"
	 viewBox="0 0 3096 2182" style="enable-background:new 0 0 3096 2182;" xml:space="preserve">
<style type="text/css">
	.st0{fill:none;stroke:#979797;}
	.st1{fill:#5B6166;}
	.st2{font-family:'Inter-Medium';}
	.st3{font-size:37px;}
	.st4{fill:#5A5A5A;}
	.st5{font-family:'Inter-Bold';}
	.st6{font-size:45px;}
	.st7{font-size:30px;}
	.st8{fill-rule:evenodd;clip-rule:evenodd;fill:#10AF6A;}
	.st9{fill-rule:evenodd;clip-rule:evenodd;fill:#006CFA;}
	.st10{fill-rule:evenodd;clip-rule:evenodd;fill:#F37034;}
	.st11{fill:#FFFFFF;}
	.st12{fill:#76A1DA;}
	.st13{fill-rule:evenodd;clip-rule:evenodd;fill:#CFFFEA;}
	.st14{fill-rule:evenodd;clip-rule:evenodd;fill:#10AF94;}
	.st15{fill:none;stroke:#FFFFFF;stroke-width:6;stroke-linecap:round;stroke-linejoin:round;}
	.st16{fill-rule:evenodd;clip-rule:evenodd;fill:#FFDADC;}
	.st17{fill-rule:evenodd;clip-rule:evenodd;fill:#E64D53;}
	.st18{fill:none;stroke:#FFFFFF;stroke-width:7;stroke-linecap:round;}
	.st19{fill-rule:evenodd;clip-rule:evenodd;fill:#FFF1CB;}
	.st20{fill-rule:evenodd;clip-rule:evenodd;fill:#FFC21A;}
	.st21{fill:#212324;}
	.st22{font-size:32px;}
</style>
<g id="RAF">
	<g id="Artboard-Copy-5" transform="translate(-129.000000, -118.000000)">
		<g id="Group-4" transform="translate(129.000000, 118.000000)">
			<path id="Rectangle" class="st0" d="M59.5,35.5h401c9.9,0,18,8.1,18,18v102c0,9.9-8.1,18-18,18h-401c-9.9,0-18-8.1-18-18v-102
				C41.5,43.6,49.6,35.5,59.5,35.5z"/>
			<path id="Rectangle-Copy-4" class="st0" d="M1748.5,35.5h401c9.9,0,18,8.1,18,18v102c0,9.9-8.1,18-18,18h-401
				c-9.9,0-18-8.1-18-18v-102C1730.5,43.6,1738.6,35.5,1748.5,35.5z"/>
			<path id="Rectangle-Copy-6" class="st0" d="M2633.5,35.5h401c9.9,0,18,8.1,18,18v102c0,9.9-8.1,18-18,18h-401
				c-9.9,0-18-8.1-18-18v-102C2615.5,43.6,2623.6,35.5,2633.5,35.5z"/>
			<path id="Rectangle-Copy-7" class="st0" d="M2633.5,1062.5h401c9.9,0,18,8.1,18,18v102c0,9.9-8.1,18-18,18h-401
				c-9.9,0-18-8.1-18-18v-102C2615.5,1070.6,2623.6,1062.5,2633.5,1062.5z"/>
			<path id="Rectangle-Copy-8" class="st0" d="M1751.5,1062.5h401c9.9,0,18,8.1,18,18v102c0,9.9-8.1,18-18,18h-401
				c-9.9,0-18-8.1-18-18v-102C1733.5,1070.6,1741.6,1062.5,1751.5,1062.5z"/>
			<path id="Rectangle-Copy-10" class="st0" d="M1751.5,1532.5h401c9.9,0,18,8.1,18,18v148c0,9.9-8.1,18-18,18h-401
				c-9.9,0-18-8.1-18-18v-148C1733.5,1540.6,1741.6,1532.5,1751.5,1532.5z"/>
			<path id="Rectangle-Copy-11" class="st0" d="M1751.5,1996.5h401c9.9,0,18,8.1,18,18v148c0,9.9-8.1,18-18,18h-401
				c-9.9,0-18-8.1-18-18v-148C1733.5,2004.6,1741.6,1996.5,1751.5,1996.5z"/>
			<path id="Rectangle-Copy" class="st0" d="M941.5,291.5h401c9.9,0,18,8.1,18,18v102c0,9.9-8.1,18-18,18h-401c-9.9,0-18-8.1-18-18
				v-102C923.5,299.6,931.6,291.5,941.5,291.5z"/>
			<path id="Rectangle-Copy-5" class="st0" d="M941.5,48.5h401c9.9,0,18,8.1,18,18v102c0,9.9-8.1,18-18,18h-401c-9.9,0-18-8.1-18-18
				v-102C923.5,56.6,931.6,48.5,941.5,48.5z"/>
			<path id="Rectangle-Copy-2" class="st0" d="M941.5,499.5h401c9.9,0,18,8.1,18,18v102c0,9.9-8.1,18-18,18h-401
				c-9.9,0-18-8.1-18-18v-102C923.5,507.6,931.6,499.5,941.5,499.5z"/>
			<path id="Rectangle-Copy-3" class="st0" d="M941.5,707.5h401c9.9,0,18,8.1,18,18v102c0,9.9-8.1,18-18,18h-401
				c-9.9,0-18-8.1-18-18v-102C923.5,715.6,931.6,707.5,941.5,707.5z"/>
			<path id="Rectangle-Copy-9" class="st0" d="M941.5,933.5h401c9.9,0,18,8.1,18,18v102c0,9.9-8.1,18-18,18h-401
				c-9.9,0-18-8.1-18-18v-102C923.5,941.6,931.6,933.5,941.5,933.5z"/>
			<text transform="matrix(1 0 0 1 140 117.9999)" class="st1 st2 st3">Refer a friend</text>
			<text transform="matrix(1 0 0 1 1866 117.9999)" class="st1 st2 st3">Branch.io</text>
			<text transform="matrix(1 0 0 1 2751 117.9999)" class="st1 st2 st3">App Store</text>
			<text transform="matrix(1 0 0 1 2751 1145)" class="st1 st2 st3">Branch Api</text>
			<text transform="matrix(1 0 0 1 1752 1145)" class="st1 st2 st3">Bonus + Referral Miles</text>
			<text transform="matrix(1 0 0 1 1841 1615)" class="st1 st2 st3">Bonus Miles</text>
			<text transform="matrix(1 0 0 1 1870 2079)" class="st1 st2 st3">Account</text>
			<text transform="matrix(1 0 0 1 1776 1660)" class="st1 st2 st3">[Enter referral code]</text>
			<text transform="matrix(1 0 0 1 1776 2124)" class="st1 st2 st3">[Enter referral code]</text>
			<text transform="matrix(1 0 0 1 1029 373.9999)" class="st1 st2 st3">Social Media</text>
			<text transform="matrix(1 0 0 1 954 134.9999)" class="st1 st2 st3">Channels for refering</text>
			<text transform="matrix(1 0 0 1 940 1191)" class="st4 st2 st3">Channels for refering</text>
			<text transform="matrix(1 0 0 1 137 255.9999)" class="st1 st2 st3">In app feature</text>
			<text transform="matrix(1 0 0 1 1705.4517 255.9999)" class="st1 st2 st3">Single responsive webpage</text>
			<text transform="matrix(1 0 0 1 2190.4856 255.9999)" class="st1 st2 st3"> </text>
			<text transform="matrix(1 0 0 1 1752.0958 300.9999)" class="st1 st2 st3">for attribution channel</text>
			<text transform="matrix(1 0 0 1 2645.3276 255.9999)" class="st1 st2 st3">Downloads Miles app</text>
			<text transform="matrix(1 0 0 1 2582.3975 1283)" class="st1 st2 st3">Branch authenticates in new </text>
			<text transform="matrix(1 0 0 1 2685.7373 1328)" class="st1 st2 st3">user during login</text>
			<text transform="matrix(1 0 0 1 1656.3876 1257)" class="st1 st2 st3">New user awarded referral bonus</text>
			<text transform="matrix(1 0 0 1 1835.5933 1776)" class="st1 st2 st3">[Skip Option]</text>
			<text transform="matrix(1 0 0 1 2419.5542 1081)" class="st1 st2 st3">Yes</text>
			<text transform="matrix(1 0 0 1 2541.042 1593)" class="st1 st2 st3">No</text>
			<g id="Group" transform="translate(0.000000, 1928.000000)">
				<text transform="matrix(1 0 0 1 0.8063 43.9999)" class="st1 st5 st6">Legend</text>
				<text transform="matrix(1 0 0 1 77.1115 117.9999)" class="st1 st2 st7">Inside the app</text>
				<text transform="matrix(1 0 0 1 77.0984 179.9999)" class="st1 st2 st7">Outside the app</text>
				<text transform="matrix(1 0 0 1 77.0057 243.9999)" class="st1 st2 st7">Sharing channels</text>
				<circle id="Oval-Copy-9" class="st8" cx="20.8" cy="110" r="20"/>
				<circle id="Oval-Copy-10" class="st9" cx="20" cy="171.9" r="20"/>
				<circle id="Oval-Copy-11" class="st10" cx="20" cy="233.2" r="20"/>
			</g>
			<text transform="matrix(1 0 0 1 1095 582)" class="st1 st2 st3">Email</text>
			<text transform="matrix(1 0 0 1 1101 790)" class="st1 st2 st3">SMS</text>
			<text transform="matrix(1 0 0 1 1023 1016)" class="st1 st2 st3">Referral code</text>
			<circle id="Oval" class="st8" cx="41" cy="41" r="41"/>
			<circle id="Oval-Copy-5" class="st8" cx="926" cy="41" r="41"/>
			<circle id="Oval-Copy-4" class="st9" cx="1730" cy="41" r="41"/>
			<circle id="Oval-Copy-6" class="st9" cx="2615" cy="41" r="41"/>
			<circle id="Oval-Copy-7" class="st8" cx="2615" cy="1068" r="41"/>
			<circle id="Oval-Copy-8" class="st8" cx="1733" cy="1068" r="41"/>
			<circle id="Oval-Copy-13" class="st8" cx="1733" cy="1538" r="41"/>
			<circle id="Oval-Copy-14" class="st8" cx="1733" cy="2002" r="41"/>
			<circle id="Oval-Copy" class="st10" cx="923" cy="297" r="41"/>
			<circle id="Oval-Copy-2" class="st10" cx="923" cy="512" r="41"/>
			<circle id="Oval-Copy-3" class="st10" cx="923" cy="713" r="41"/>
			<circle id="Oval-Copy-12" class="st10" cx="923" cy="939" r="41"/>
			<text transform="matrix(1 0 0 1 32 53.9999)" class="st11 st2 st3">1</text>
			<text transform="matrix(1 0 0 1 917 53.9999)" class="st11 st2 st3">2</text>
			<text transform="matrix(1 0 0 1 1721 53.9999)" class="st11 st2 st3">3</text>
			<text transform="matrix(1 0 0 1 2606 53.9999)" class="st11 st2 st3">4</text>
			<text transform="matrix(1 0 0 1 2606 1081)" class="st11 st2 st3">5</text>
			<text transform="matrix(1 0 0 1 1724 1081)" class="st11 st2 st3">6</text>
			<text transform="matrix(1 0 0 1 1724 1551)" class="st11 st2 st3">6</text>
			<text transform="matrix(1 0 0 1 1724 2015)" class="st11 st2 st3">7</text>
			<text transform="matrix(1 0 0 1 914 309.9999)" class="st11 st2 st3">1</text>
			<text transform="matrix(1 0 0 1 914 525)" class="st11 st2 st3">2</text>
			<text transform="matrix(1 0 0 1 914 726)" class="st11 st2 st3">3</text>
			<text transform="matrix(1 0 0 1 914 952)" class="st11 st2 st3">4</text>
			<path id="Path-3" class="st12" d="M732,97l14,7l-14,7l0-6l-164.9,0.5l0-2L732,103L732,97z"/>
			<path id="Path-3-Copy" class="st12" d="M2482.6,97.5l14,7l-14,7l0-6h-226.5v-2h226.5L2482.6,97.5z"/>
			<path id="Path-3-Copy-4" class="st12" d="M2270.1,1124.5l-14,7l14,7l0-6h226.5v-2h-226.5L2270.1,1124.5z"/>
			<path id="Path-3-Copy-5" class="st12" d="M2831.6,1404.5v224H2261l0-6l-14,7l14,7l0-6h572.6v-226H2831.6z"/>
			<path id="Path-3-Copy-3" class="st12" d="M2840.7,988l-7,14l-7-14l6,0l0.4-583.8l2,0l-0.4,583.8L2840.7,988z"/>
			<path id="Path-3-Copy-6" class="st12" d="M1954.7,1947l-7,14l-7-14l6,0l0.3-139.8l2,0l-0.3,139.8L1954.7,1947z"/>
			<path id="Path-3-Copy-2" class="st12" d="M1602,97l14,7l-14,7l0-6l-174.9,0.5l0-2L1602,103L1602,97z"/>
			<g id="Group-3" transform="translate(2322.000000, 1015.000000)">
				<path id="Star-Copy" class="st13" d="M45.2,93.7c-1.7,2.1-4.7,2.5-6.9,0.9c-1.2-1-1.9-2.5-1.9-4c0.2-6.5-4.8-12-11.4-12.2
					c-1,0-2,0-2.9,0.3c-2.6,0.6-5.2-1.1-5.8-3.8c-0.3-1.5,0.1-3.1,1.2-4.3c4.4-4.8,4-12.3-0.8-16.7c-0.7-0.7-1.5-1.2-2.4-1.7
					c-2.4-1.3-3.3-4.2-2-6.6c0.7-1.4,2.1-2.3,3.7-2.6c6.5-0.9,11-6.9,10.1-13.3c-0.1-1-0.4-1.9-0.8-2.8c-1-2.5,0.2-5.4,2.7-6.4
					c1.5-0.6,3.1-0.4,4.4,0.4c5.5,3.5,12.8,1.8,16.3-3.7c0.5-0.8,0.9-1.7,1.2-2.7c0.8-2.6,3.6-4,6.2-3.2c1.5,0.5,2.7,1.7,3.2,3.2
					c2,6.2,8.7,9.6,14.9,7.6c0.9-0.3,1.8-0.7,2.7-1.2c2.3-1.4,5.3-0.7,6.8,1.5c0.8,1.3,1,3,0.4,4.4c-2.5,6,0.5,12.9,6.5,15.4
					c0.9,0.4,1.9,0.6,2.8,0.8c2.7,0.4,4.5,2.8,4.2,5.5c-0.2,1.6-1.2,2.9-2.6,3.7c-5.8,3-8,10.2-4.9,16c0.5,0.9,1,1.7,1.7,2.4
					c1.8,2,1.7,5.1-0.3,6.9c-1.2,1.1-2.8,1.5-4.3,1.2c-6.4-1.4-12.7,2.7-14,9.1c-0.2,1-0.3,1.9-0.3,2.9c0.1,2.7-2,5-4.7,5.1
					c-1.6,0.1-3.1-0.6-4-1.9c-4-5.1-11.4-6.1-16.6-2.1C46.5,92.3,45.8,93,45.2,93.7z"/>
				<path id="Star" class="st14" d="M47.7,83.3c-1.2,1.6-3.5,1.8-5,0.6c-0.9-0.7-1.4-1.8-1.4-3c0.2-4.8-3.6-8.8-8.3-9
					c-0.7,0-1.4,0-2.1,0.2c-1.9,0.4-3.9-0.8-4.3-2.8c-0.2-1.1,0.1-2.3,0.8-3.2c3.2-3.6,2.9-9-0.6-12.2c-0.5-0.5-1.1-0.9-1.8-1.2
					c-1.8-0.9-2.4-3.1-1.5-4.9c0.5-1,1.5-1.7,2.7-1.9c4.7-0.7,8.1-5,7.4-9.8c-0.1-0.7-0.3-1.4-0.6-2.1c-0.7-1.8,0.1-3.9,2-4.7
					c1.1-0.4,2.3-0.3,3.3,0.3c4.1,2.5,9.4,1.3,11.9-2.7c0.4-0.6,0.7-1.3,0.9-1.9c0.6-1.9,2.6-2.9,4.5-2.3c1.1,0.4,2,1.2,2.3,2.3
					c1.5,4.6,6.4,7.1,10.9,5.6c0.7-0.2,1.3-0.5,1.9-0.9c1.7-1.1,3.9-0.5,5,1.1c0.6,1,0.7,2.2,0.3,3.3c-1.8,4.4,0.3,9.5,4.8,11.3
					c0.7,0.3,1.4,0.5,2.1,0.6c2,0.3,3.3,2.1,3.1,4.1c-0.2,1.1-0.9,2.1-1.9,2.7c-4.2,2.2-5.8,7.5-3.6,11.7c0.3,0.6,0.8,1.2,1.2,1.8
					c1.3,1.5,1.2,3.7-0.3,5.1c-0.9,0.8-2,1.1-3.2,0.8c-4.7-1-9.3,2-10.3,6.7c-0.2,0.7-0.2,1.4-0.2,2.1c0.1,2-1.5,3.7-3.5,3.7
					c-1.2,0-2.3-0.5-3-1.4c-2.9-3.8-8.4-4.5-12.2-1.5C48.6,82.2,48.1,82.7,47.7,83.3z"/>
				<polyline id="Path-4" class="st15" points="45.7,54.9 52.5,62.3 67.7,49.4 				"/>
			</g>
			<g id="Group-3-Copy" transform="translate(2432.000000, 1525.000000)">
				<path id="Star-Copy_1_" class="st16" d="M45.2,93.7c-1.7,2.1-4.7,2.5-6.9,0.9c-1.2-1-1.9-2.5-1.9-4c0.2-6.5-4.8-12-11.4-12.2
					c-1,0-2,0-2.9,0.3c-2.6,0.6-5.2-1.1-5.8-3.8c-0.3-1.5,0.1-3.1,1.2-4.3c4.4-4.8,4-12.3-0.8-16.7c-0.7-0.7-1.5-1.2-2.4-1.7
					c-2.4-1.3-3.3-4.2-2-6.6c0.7-1.4,2.1-2.3,3.7-2.6c6.5-0.9,11-6.9,10.1-13.3c-0.1-1-0.4-1.9-0.8-2.8c-1-2.5,0.2-5.4,2.7-6.4
					c1.5-0.6,3.1-0.4,4.4,0.4c5.5,3.5,12.8,1.8,16.3-3.7c0.5-0.8,0.9-1.7,1.2-2.7c0.8-2.6,3.6-4,6.2-3.2c1.5,0.5,2.7,1.7,3.2,3.2
					c2,6.2,8.7,9.6,14.9,7.6c0.9-0.3,1.8-0.7,2.7-1.2c2.3-1.4,5.3-0.7,6.8,1.5c0.8,1.3,1,3,0.4,4.4c-2.5,6,0.5,12.9,6.5,15.4
					c0.9,0.4,1.9,0.6,2.8,0.8c2.7,0.4,4.5,2.8,4.2,5.5c-0.2,1.6-1.2,2.9-2.6,3.7c-5.8,3-8,10.2-4.9,16c0.5,0.9,1,1.7,1.7,2.4
					c1.8,2,1.7,5.1-0.3,6.9c-1.2,1.1-2.8,1.5-4.3,1.2c-6.4-1.4-12.7,2.7-14,9.1c-0.2,1-0.3,1.9-0.3,2.9c0.1,2.7-2,5-4.7,5.1
					c-1.6,0.1-3.1-0.6-4-1.9c-4-5.1-11.4-6.1-16.6-2.1C46.5,92.3,45.8,93,45.2,93.7z"/>
				<path id="Star_1_" class="st17" d="M47.7,83.3c-1.2,1.6-3.5,1.8-5,0.6c-0.9-0.7-1.4-1.8-1.4-3c0.2-4.8-3.6-8.8-8.3-9
					c-0.7,0-1.4,0-2.1,0.2c-1.9,0.4-3.9-0.8-4.3-2.8c-0.2-1.1,0.1-2.3,0.8-3.2c3.2-3.6,2.9-9-0.6-12.2c-0.5-0.5-1.1-0.9-1.8-1.2
					c-1.8-0.9-2.4-3.1-1.5-4.9c0.5-1,1.5-1.7,2.7-1.9c4.7-0.7,8.1-5,7.4-9.8c-0.1-0.7-0.3-1.4-0.6-2.1c-0.7-1.8,0.1-3.9,2-4.7
					c1.1-0.4,2.3-0.3,3.3,0.3c4.1,2.5,9.4,1.3,11.9-2.7c0.4-0.6,0.7-1.3,0.9-1.9c0.6-1.9,2.6-2.9,4.5-2.3c1.1,0.4,2,1.2,2.3,2.3
					c1.5,4.6,6.4,7.1,10.9,5.6c0.7-0.2,1.3-0.5,1.9-0.9c1.7-1.1,3.9-0.5,5,1.1c0.6,1,0.7,2.2,0.3,3.3c-1.8,4.4,0.3,9.5,4.8,11.3
					c0.7,0.3,1.4,0.5,2.1,0.6c2,0.3,3.3,2.1,3.1,4.1c-0.2,1.1-0.9,2.1-1.9,2.7c-4.2,2.2-5.8,7.5-3.6,11.7c0.3,0.6,0.8,1.2,1.2,1.8
					c1.3,1.5,1.2,3.7-0.3,5.1c-0.9,0.8-2,1.1-3.2,0.8c-4.7-1-9.3,2-10.3,6.7c-0.2,0.7-0.2,1.4-0.2,2.1c0.1,2-1.5,3.7-3.5,3.7
					c-1.2,0-2.3-0.5-3-1.4c-2.9-3.8-8.4-4.5-12.2-1.5C48.6,82.2,48.1,82.7,47.7,83.3z"/>
				<line id="Path-5" class="st18" x1="48" y1="47.1" x2="61.9" y2="61.9"/>
				<line id="Path-5_1_" class="st18" x1="62.5" y1="47.7" x2="47.4" y2="61.3"/>
			</g>
			<g id="Group-2" transform="translate(1252.484848, 912.000000)">
				<path id="Rectangle_1_" class="st19" d="M28,0h95c15.5,0,28,12.5,28,28l0,0c0,15.5-12.5,28-28,28H28C12.5,56,0,43.5,0,28l0,0
					C0,12.5,12.5,0,28,0z"/>
				<polygon id="Star_2_" class="st20" points="30.5,37 19.9,42.6 22,30.8 13.4,22.4 25.2,20.7 30.5,10 35.8,20.7 47.6,22.4 
					39.1,30.8 41.1,42.6 				"/>
				<text transform="matrix(1 0 0 1 61.5151 39)" class="st21 st2 st22">New</text>
			</g>
			<g id="Group-2-Copy" transform="translate(2084.484848, 1504.000000)">
				<path id="Rectangle_2_" class="st19" d="M28,0h95c15.5,0,28,12.5,28,28l0,0c0,15.5-12.5,28-28,28H28C12.5,56,0,43.5,0,28l0,0
					C0,12.5,12.5,0,28,0z"/>
				<polygon id="Star_3_" class="st20" points="30.5,37 19.9,42.6 22,30.8 13.4,22.4 25.2,20.7 30.5,10 35.8,20.7 47.6,22.4 
					39.1,30.8 41.1,42.6 				"/>
				<text transform="matrix(1 0 0 1 61.5151 39)" class="st21 st2 st22">New</text>
			</g>
			<g id="Group-2-Copy-3" transform="translate(2944.484848, 1040.000000)">
				<path id="Rectangle_3_" class="st19" d="M28,0h95c15.5,0,28,12.5,28,28l0,0c0,15.5-12.5,28-28,28H28C12.5,56,0,43.5,0,28l0,0
					C0,12.5,12.5,0,28,0z"/>
				<polygon id="Star_4_" class="st20" points="30.5,37 19.9,42.6 22,30.8 13.4,22.4 25.2,20.7 30.5,10 35.8,20.7 47.6,22.4 
					39.1,30.8 41.1,42.6 				"/>
				<text transform="matrix(1 0 0 1 61.5151 39)" class="st21 st2 st22">New</text>
			</g>
			<g id="Group-2-Copy-2" transform="translate(2084.484848, 1968.000000)">
				<path id="Rectangle_4_" class="st19" d="M28,0h95c15.5,0,28,12.5,28,28l0,0c0,15.5-12.5,28-28,28H28C12.5,56,0,43.5,0,28l0,0
					C0,12.5,12.5,0,28,0z"/>
				<polygon id="Star_5_" class="st20" points="30.5,37 19.9,42.6 22,30.8 13.4,22.4 25.2,20.7 30.5,10 35.8,20.7 47.6,22.4 
					39.1,30.8 41.1,42.6 				"/>
				<text transform="matrix(1 0 0 1 61.5151 38.9999)" class="st21 st2 st22">New</text>
			</g>
		</g>
	</g>
</g>
</svg>
