<?xml version="1.0" encoding="UTF-8"?>
<svg width="2746px" height="1122px" viewBox="0 0 2746 1122" version="1.1" xmlns="http://www.w3.org/2000/svg" xmlns:xlink="http://www.w3.org/1999/xlink">
    <title>Group 19</title>
    <g id="RAF" stroke="none" stroke-width="1" fill="none" fill-rule="evenodd">
        <g id="Group-19">
            <rect id="Rectangle-Copy-34" fill="#000000" x="0" y="81" width="438" height="139" rx="18"></rect>
            <rect id="Rectangle-Copy-35" stroke="#979797" x="0.5" y="395.5" width="437" height="138" rx="18"></rect>
            <rect id="Rectangle-Copy-48" fill="#F0F1F0" x="0" y="869" width="453" height="253" rx="18"></rect>
            <rect id="Rectangle-Copy-49" fill="#F0F1F0" x="558" y="869" width="438" height="253" rx="18"></rect>
            <rect id="Rectangle-Copy-50" fill="#F0F1F0" x="1112" y="869" width="438" height="253" rx="18"></rect>
            <rect id="Rectangle-Copy-51" fill="#F0F1F0" x="1703" y="869" width="452" height="253" rx="18"></rect>
            <rect id="Rectangle-Copy-52" fill="#F0F1F0" x="2246" y="869" width="438" height="253" rx="18"></rect>
            <rect id="Rectangle-Copy-36" stroke="#979797" x="1704.5" y="395.5" width="437" height="138" rx="18"></rect>
            <rect id="Rectangle-Copy-37" stroke="#979797" x="2246.5" y="395.5" width="437" height="138" rx="18"></rect>
            <rect id="Rectangle-Copy-38" stroke="#979797" x="561.5" y="395.5" width="437" height="138" rx="18"></rect>
            <rect id="Rectangle-Copy-39" stroke="#979797" x="62.5" y="584.5" width="437" height="138" rx="18"></rect>
            <rect id="Rectangle-Copy-40" stroke="#979797" x="1766.5" y="584.5" width="437" height="138" rx="18"></rect>
            <rect id="Rectangle-Copy-41" stroke="#979797" x="2308.5" y="584.5" width="437" height="138" rx="18"></rect>
            <rect id="Rectangle-Copy-42" stroke="#979797" x="561.5" y="584.5" width="437" height="138" rx="18"></rect>
            <rect id="Rectangle-Copy-43" stroke="#979797" x="1113.5" y="394.5" width="437" height="138" rx="18"></rect>
            <rect id="Rectangle-Copy-44" fill="#000000" x="558" y="81" width="438" height="139" rx="18"></rect>
            <rect id="Rectangle-Copy-45" fill="#000000" x="1113" y="81" width="438" height="139" rx="18"></rect>
            <rect id="Rectangle-Copy-46" fill="#000000" x="1704" y="81" width="438" height="139" rx="18"></rect>
            <rect id="Rectangle-Copy-47" fill="#000000" x="2246" y="81" width="438" height="139" rx="18"></rect>
            <text id="Phase-1-Copy-2" font-family="ProductSans-Bold, Product Sans" font-size="50" font-weight="bold" fill="#FFFFFF">
                <tspan x="151" y="164">Phase 1</tspan>
            </text>
            <text id="Referer-shares-the-a-Copy" font-family="Inter-Medium, Inter" font-size="37" font-weight="400" fill="#5B6166">
                <tspan x="18.3198529" y="950">Referer shares the app </tspan>
                <tspan x="18.3198529" y="995">from the RAF pages. </tspan>
                <tspan x="18.3198529" y="1040">Monitors it from the </tspan>
                <tspan x="18.3198529" y="1085">history page</tspan>
            </text>
            <text id="Recipient-recieves-a" font-family="Inter-Medium, Inter" font-size="37" font-weight="400" fill="#5B6166">
                <tspan x="589" y="954">Recipient recieves a </tspan>
                <tspan x="589" y="999">link with image </tspan>
                <tspan x="589" y="1044">overview </tspan>
            </text>
            <text id="Clicks-on-the-link-a" font-family="Inter-Medium, Inter" font-size="37" font-weight="400" fill="#5B6166">
                <tspan x="1123" y="954">Clicks on the link and </tspan>
                <tspan x="1123" y="999">goes to the </tspan>
                <tspan x="1123" y="1044">app.getmiles.com page</tspan>
            </text>
            <text id="After-downloading,-a-Copy" font-family="Inter-Medium, Inter" font-size="37" font-weight="400" fill="#5B6166">
                <tspan x="1730" y="954">After downloading, and </tspan>
                <tspan x="1730" y="999">during onboarding </tspan>
                <tspan x="1730" y="1044">recieves bonus or can </tspan>
                <tspan x="1730" y="1089">type promo-code</tspan>
            </text>
            <text id="If-promo-code-is-not-Copy" font-family="Inter-Medium, Inter" font-size="37" font-weight="400" fill="#5B6166">
                <tspan x="2284" y="954">If promo-code is not </tspan>
                <tspan x="2284" y="999">ready, can type it in </tspan>
                <tspan x="2284" y="1044">accounts later</tspan>
            </text>
            <text id="Refer-a-friend-page-Copy" font-family="Inter-Medium, Inter" font-size="37" font-weight="400" fill="#5B6166">
                <tspan x="38" y="478">Refer-a-friend page</tspan>
            </text>
            <text id="Bonus-miles-page-Copy" font-family="Inter-Medium, Inter" font-size="37" font-weight="400" fill="#5B6166">
                <tspan x="1742" y="478">Bonus miles page</tspan>
            </text>
            <text id="Accounts-page-Copy" font-family="Inter-Medium, Inter" font-size="37" font-weight="400" fill="#5B6166">
                <tspan x="2330" y="478">Accounts page</tspan>
            </text>
            <text id="SMS-Link-media-Copy" font-family="Inter-Medium, Inter" font-size="37" font-weight="400" fill="#5B6166">
                <tspan x="591" y="478">SMS Link media</tspan>
            </text>
            <text id="Refferal-history-pag-Copy" font-family="Inter-Medium, Inter" font-size="37" font-weight="400" fill="#5B6166">
                <tspan x="100" y="667">Refferal history page</tspan>
            </text>
            <text id="Promo-code-page-Copy" font-family="Inter-Medium, Inter" font-size="37" font-weight="400" fill="#5B6166">
                <tspan x="1825" y="667">Promo code page</tspan>
            </text>
            <text id="Promo-code-page-Copy-2" font-family="Inter-Medium, Inter" font-size="37" font-weight="400" fill="#5B6166">
                <tspan x="2367" y="667">Promo code page</tspan>
            </text>
            <text id="Social-media-banner-Copy" font-family="Inter-Medium, Inter" font-size="37" font-weight="400" fill="#5B6166">
                <tspan x="591" y="667">Social media banner</tspan>
            </text>
            <text id="Responsive-webpage-Copy" font-family="Inter-Medium, Inter" font-size="37" font-weight="400" fill="#5B6166">
                <tspan x="1142" y="477">Responsive webpage</tspan>
            </text>
            <text id="Phase-2-Copy" font-family="ProductSans-Bold, Product Sans" font-size="50" font-weight="bold" fill="#FFFFFF">
                <tspan x="692" y="164">Phase 2</tspan>
            </text>
            <text id="Phase-3-Copy" font-family="ProductSans-Bold, Product Sans" font-size="50" font-weight="bold" fill="#FFFFFF">
                <tspan x="1247" y="164">Phase 3</tspan>
            </text>
            <text id="Phase-4-Copy" font-family="ProductSans-Bold, Product Sans" font-size="50" font-weight="bold" fill="#FFFFFF">
                <tspan x="1833" y="164">Phase 4</tspan>
            </text>
            <text id="Phase-5-Copy" font-family="ProductSans-Bold, Product Sans" font-size="50" font-weight="bold" fill="#FFFFFF">
                <tspan x="2380" y="164">Phase 5</tspan>
            </text>
            <line x1="144" y1="220" x2="144.5" y2="394.5" id="Path-6-Copy-6" stroke="#979797"></line>
            <line x1="1848" y1="220" x2="1848.5" y2="394.5" id="Path-6-Copy-7" stroke="#979797"></line>
            <line x1="2390" y1="220" x2="2390.5" y2="394.5" id="Path-6-Copy-8" stroke="#979797"></line>
            <line x1="780.25" y1="220" x2="780.75" y2="394.5" id="Path-6-Copy-9" stroke="#979797"></line>
            <line x1="1332" y1="220" x2="1332.5" y2="394.5" id="Path-6-Copy-10" stroke="#979797"></line>
            <line x1="779.75" y1="533.5" x2="779.75" y2="585.5" id="Path-6-Copy-11" stroke="#979797"></line>
            <polyline id="Path-7-Copy-3" stroke="#979797" points="38 534 38 653.5 62 653.5"></polyline>
            <polyline id="Path-7-Copy-4" stroke="#979797" points="1742 534 1742 653.5 1766 653.5"></polyline>
            <polyline id="Path-7-Copy-5" stroke="#979797" points="2284 534 2284 653.5 2308 653.5"></polyline>
            <path id="Path-3-Copy-11" d="M514.954187,143.092386 L529,150 L515.046421,157.092082 L515.007,151.092 L453.114071,151.499978 L453.100895,149.500022 L514.993,149.092 L514.954187,143.092386 Z" fill="#76A1DA" fill-rule="nonzero"></path>
            <path id="Path-3-Copy-12" d="M1083.95419,143.092386 L1098,150 L1084.04642,157.092082 L1084.007,151.092 L1022.11407,151.499978 L1022.10089,149.500022 L1083.993,149.092 L1083.95419,143.092386 Z" fill="#76A1DA" fill-rule="nonzero"></path>
            <path id="Path-3-Copy-13" d="M1648.95419,143.092386 L1663,150 L1649.04642,157.092082 L1649.007,151.092 L1587.11407,151.499978 L1587.10089,149.500022 L1648.993,149.092 L1648.95419,143.092386 Z" fill="#76A1DA" fill-rule="nonzero"></path>
            <path id="Path-3-Copy-14" d="M2216.95419,143.092386 L2231,150 L2217.04642,157.092082 L2217.007,151.092 L2155.11407,151.499978 L2155.10089,149.500022 L2216.993,149.092 L2216.95419,143.092386 Z" fill="#76A1DA" fill-rule="nonzero"></path>
            <text id="Phase" font-family="ProductSans-Bold, Product Sans" font-size="50" font-weight="bold" fill="#5A5A5A">
                <tspan x="0" y="48">Phase</tspan>
            </text>
            <text id="Screens" font-family="ProductSans-Bold, Product Sans" font-size="50" font-weight="bold" fill="#5A5A5A">
                <tspan x="0" y="362">Screens</tspan>
            </text>
            <text id="User-tasks" font-family="ProductSans-Bold, Product Sans" font-size="50" font-weight="bold" fill="#5A5A5A">
                <tspan x="0" y="836">User tasks</tspan>
            </text>
        </g>
    </g>
</svg>