<svg xmlns="http://www.w3.org/2000/svg" viewBox="0 0 3095.38 1338.04"><defs><style>.cls-1{fill:none;stroke:#979797;}.cls-12,.cls-2,.cls-23,.cls-24,.cls-3,.cls-32,.cls-6{isolation:isolate;}.cls-12,.cls-15,.cls-3,.cls-32,.cls-6{font-size:37px;}.cls-15,.cls-23,.cls-24,.cls-3,.cls-6{fill:#5b6166;}.cls-12,.cls-15,.cls-24,.cls-3,.cls-32,.cls-6{font-family:Inter-Medium, Inter;font-weight:500;}.cls-3{letter-spacing:-0.01em;}.cls-4{letter-spacing:0em;}.cls-5{letter-spacing:-0.02em;}.cls-7{letter-spacing:0em;}.cls-8{letter-spacing:-0.01em;}.cls-9{letter-spacing:-0.02em;}.cls-10{letter-spacing:-0.02em;}.cls-11{letter-spacing:0em;}.cls-12{fill:#5a5a5a;}.cls-13{letter-spacing:-0.02em;}.cls-14{letter-spacing:-0.02em;}.cls-16{letter-spacing:-0.02em;}.cls-17{letter-spacing:0.01em;}.cls-18{letter-spacing:-0.01em;}.cls-19{letter-spacing:0em;}.cls-20{letter-spacing:-0.02em;}.cls-21{letter-spacing:-0.02em;}.cls-22{letter-spacing:0em;}.cls-23{font-size:45px;font-family:Inter-Bold, Inter;font-weight:700;}.cls-24{font-size:30px;}.cls-25{letter-spacing:0.01em;}.cls-26{letter-spacing:0em;}.cls-27{letter-spacing:-0.01em;}.cls-28{letter-spacing:0.01em;}.cls-29{fill:#10af6a;}.cls-30{fill:#006cfa;}.cls-31{fill:#f37034;}.cls-32{fill:#fff;}.cls-33{fill:#76a1da;}</style></defs><g id="Layer_2" data-name="Layer 2"><g id="Layer_1-2" data-name="Layer 1"><g id="RAF"><g id="Artboard"><g id="Group"><rect id="Rectangle" class="cls-1" x="41.5" y="35.5" width="437" height="138" rx="18"/><rect id="Rectangle-Copy-4" class="cls-1" x="1730.5" y="35.5" width="437" height="138" rx="18"/><rect id="Rectangle-Copy-6" class="cls-1" x="2615.5" y="35.5" width="437" height="138" rx="18"/><rect id="Rectangle-Copy-7" class="cls-1" x="2615.5" y="1062.5" width="437" height="138" rx="18"/><rect id="Rectangle-Copy-8" class="cls-1" x="1733.5" y="1062.5" width="437" height="138" rx="18"/><rect id="Rectangle-Copy" class="cls-1" x="923.5" y="291.5" width="437" height="138" rx="18"/><rect id="Rectangle-Copy-5" class="cls-1" x="923.5" y="48.5" width="437" height="138" rx="18"/><rect id="Rectangle-Copy-2" class="cls-1" x="923.5" y="499.5" width="437" height="138" rx="18"/><rect id="Rectangle-Copy-3" class="cls-1" x="923.5" y="707.5" width="437" height="138" rx="18"/><g id="Refer-a-friend" class="cls-2"><text class="cls-3" transform="translate(140 118)">R<tspan class="cls-4" x="23.61" y="0">e</tspan><tspan class="cls-5" x="45.34" y="0">f</tspan><tspan class="cls-4" x="58.26" y="0">er a friend</tspan></text></g><g id="Branch.io" class="cls-2"><text class="cls-6" transform="translate(1866 118)">B<tspan class="cls-7" x="24.2" y="0">r</tspan><tspan x="38.24" y="0">anch.io</tspan></text></g><g id="App-Store" class="cls-2"><text class="cls-6" transform="translate(2751 118)">App S<tspan class="cls-8" x="105.18" y="0">t</tspan><tspan x="118.73" y="0">o</tspan><tspan class="cls-9" x="141.01" y="0">r</tspan><tspan x="154.49" y="0">e</tspan></text></g><g id="Branch-Api" class="cls-2"><text class="cls-6" transform="translate(2751 1145)">B<tspan class="cls-7" x="24.2" y="0">r</tspan><tspan x="38.24" y="0">anch Api</tspan></text></g><g id="Bonus-Miles" class="cls-2"><text class="cls-6" transform="translate(1841 1145)">Bonus Miles</text></g><g id="Social-Media" class="cls-2"><text class="cls-6" transform="translate(1029 374)">Social Media</text></g><g id="Channels-for-referin" class="cls-2"><text class="cls-6" transform="translate(954 135)">Channels <tspan class="cls-5" x="175.32" y="0">f</tspan><tspan x="188.23" y="0">or </tspan><tspan class="cls-9" x="234.53" y="0">r</tspan><tspan x="248.02" y="0">e</tspan><tspan class="cls-10" x="269.75" y="0">f</tspan><tspan class="cls-11" x="282.66" y="0">ering</tspan></text></g><g id="Channels-for-referin-2" data-name="Channels-for-referin" class="cls-2"><text class="cls-12" transform="translate(954 954)">Channels <tspan class="cls-5" x="175.32" y="0">f</tspan><tspan x="188.23" y="0">or </tspan><tspan class="cls-9" x="234.53" y="0">r</tspan><tspan x="248.02" y="0">e</tspan><tspan class="cls-10" x="269.75" y="0">f</tspan><tspan class="cls-11" x="282.66" y="0">ering</tspan></text></g><g id="In-app-feature" class="cls-2"><text class="cls-6" transform="translate(137 256)">In app <tspan class="cls-10" x="118.41" y="0">f</tspan><tspan x="131.33" y="0">eatu</tspan><tspan class="cls-9" x="209.87" y="0">r</tspan><tspan class="cls-4" x="223.35" y="0">e</tspan></text></g><g id="Single-responsive-we" class="cls-2"><text class="cls-6" transform="translate(1705.45 256)">Single <tspan class="cls-9" x="118.7" y="0">r</tspan><tspan class="cls-4" x="132.18" y="0">esponsi</tspan><tspan class="cls-13" x="270" y="0">v</tspan><tspan class="cls-4" x="290.24" y="0">e </tspan><tspan class="cls-14" x="321.78" y="0">w</tspan><tspan x="351.68" y="0">ebpage</tspan></text><text class="cls-15" transform="translate(2190.49 256)"> </text><text class="cls-6" transform="translate(1752.1 301)"><tspan class="cls-5">f</tspan><tspan x="12.92" y="0">or attribution channel</tspan></text></g><g id="Downloads-Miles-app" class="cls-2"><text class="cls-6" transform="translate(2645.33 256)">D<tspan class="cls-16" x="26.7" y="0">o</tspan><tspan x="48.37" y="0">wnloads Miles app</tspan></text></g><g id="Branch-authenticates" class="cls-2"><text class="cls-6" transform="translate(2582.4 1283)">B<tspan class="cls-7" x="24.2" y="0">r</tspan><tspan x="38.24" y="0">anch au</tspan><tspan class="cls-17" x="177.54" y="0">t</tspan><tspan x="191.71" y="0">hentica</tspan><tspan class="cls-18" x="322.86" y="0">t</tspan><tspan x="336.4" y="0">es in n</tspan><tspan class="cls-19" x="450.97" y="0">e</tspan><tspan x="472.65" y="0">w </tspan></text><text class="cls-6" transform="translate(2685.74 1328)">user during login</text></g><g id="New-user-awarded-ref" class="cls-2"><text class="cls-6" transform="translate(1656.39 1283)">N<tspan class="cls-19" x="27.63" y="0">e</tspan><tspan class="cls-11" x="49.31" y="0">w user awa</tspan><tspan class="cls-9" x="249.85" y="0">r</tspan><tspan x="263.34" y="0">ded </tspan><tspan class="cls-20" x="341.17" y="0">r</tspan><tspan x="354.65" y="0">e</tspan><tspan class="cls-21" x="376.39" y="0">f</tspan><tspan x="389.3" y="0">er</tspan><tspan class="cls-7" x="425.25" y="0">r</tspan><tspan class="cls-22" x="439.28" y="0">al bonus</tspan></text></g><g id="Legend" class="cls-2"><text class="cls-23" transform="translate(0.81 1083)">Legend</text></g><g id="Inside-the-app" class="cls-2"><text class="cls-24" transform="translate(77.11 1157)">Inside <tspan class="cls-25" x="93.89" y="0">t</tspan><tspan class="cls-26" x="105.38" y="0">he app</tspan></text></g><g id="Outside-the-app" class="cls-2"><text class="cls-24" transform="translate(77.1 1219)">Ou<tspan class="cls-27" x="40.88" y="0">t</tspan><tspan x="51.75" y="0">side </tspan><tspan class="cls-28" x="119.64" y="0">t</tspan><tspan x="131.13" y="0">he app</tspan></text></g><g id="Sharing-channels" class="cls-2"><text class="cls-24" transform="translate(77.01 1283)">Sharing channels</text></g><g id="Email" class="cls-2"><text class="cls-6" transform="translate(1095 582)">Email</text></g><g id="SMS" class="cls-2"><text class="cls-6" transform="translate(1101 790)">SMS</text></g><circle id="Oval" class="cls-29" cx="41" cy="41" r="41"/><circle id="Oval-Copy-5" class="cls-29" cx="926" cy="41" r="41"/><circle id="Oval-Copy-4" class="cls-30" cx="1730" cy="41" r="41"/><circle id="Oval-Copy-6" class="cls-30" cx="2615" cy="41" r="41"/><circle id="Oval-Copy-7" class="cls-29" cx="2615" cy="1068" r="41"/><circle id="Oval-Copy-8" class="cls-29" cx="1733" cy="1068" r="41"/><circle id="Oval-Copy-9" class="cls-29" cx="20.81" cy="1149" r="20"/><circle id="Oval-Copy-10" class="cls-30" cx="20" cy="1210.87" r="20"/><circle id="Oval-Copy-11" class="cls-31" cx="20" cy="1272.17" r="20"/><circle id="Oval-Copy" class="cls-31" cx="923" cy="297" r="41"/><circle id="Oval-Copy-2" class="cls-31" cx="923" cy="512" r="41"/><circle id="Oval-Copy-3" class="cls-31" cx="923" cy="713" r="41"/><g id="_1" data-name="1" class="cls-2"><text class="cls-32" transform="translate(32 54)">1</text></g><g id="_2" data-name="2" class="cls-2"><text class="cls-32" transform="translate(917 54)">2</text></g><g id="_3" data-name="3" class="cls-2"><text class="cls-32" transform="translate(1721 54)">3</text></g><g id="_4" data-name="4" class="cls-2"><text class="cls-32" transform="translate(2606 54)">4</text></g><g id="_5" data-name="5" class="cls-2"><text class="cls-32" transform="translate(2606 1081)">5</text></g><g id="_6" data-name="6" class="cls-2"><text class="cls-32" transform="translate(1724 1081)">6</text></g><g id="_1-copy" data-name="1-copy" class="cls-2"><text class="cls-32" transform="translate(914 310)">1</text></g><g id="_2-2" data-name="2" class="cls-2"><text class="cls-32" transform="translate(914 525)">2</text></g><g id="_3-2" data-name="3" class="cls-2"><text class="cls-32" transform="translate(914 726)">3</text></g><path id="Path-3" class="cls-33" d="M732,97l14,7-14,7,0-6-164.89.46v-2L732,103Z"/><path id="Path-3-Copy" class="cls-33" d="M2482.63,97.5l14,7-14,7v-6H2256.11v-2h226.52Z"/><path id="Path-3-Copy-4" class="cls-33" d="M2482.63,1124.5l14,7-14,7v-6H2256.11v-2h226.52Z"/><path id="Path-3-Copy-3" class="cls-33" d="M2840.75,988l-7,14-7-14h6l.36-583.76h2L2834.75,988Z"/><path id="Path-3-Copy-2" class="cls-33" d="M1602,97l14,7-14,7,0-6-174.89.46v-2L1602,103Z"/></g></g></g></g></g></svg>