<?xml version="1.0" encoding="utf-8"?>
<!-- Generator: Adobe Illustrator 25.2.1, SVG Export Plug-In . SVG Version: 6.00 Build 0)  -->
<svg version="1.1" id="Layer_1" xmlns="http://www.w3.org/2000/svg" xmlns:xlink="http://www.w3.org/1999/xlink" x="0px" y="0px"
	 viewBox="0 0 20 20" style="enable-background:new 0 0 20 20;" xml:space="preserve">
<style type="text/css">
	.st0{fill:none;}
	.st1{fill:#FFFFFF;enable-background:new    ;}
</style>
<path class="st0" d="M-1-1h22v22H-1V-1z"/>
<path class="st1" d="M4.6,19.7V7.1H0.4v12.7H4.6z M2.5,5.3c1.5,0,2.4-1,2.4-2.2c0-1.2-0.9-2.2-2.4-2.2S0.2,1.9,0.2,3.1
	C0.2,4.3,1.1,5.3,2.5,5.3L2.5,5.3L2.5,5.3z M7,19.7h4.2v-7.1c0-0.4,0-0.8,0.1-1c0.3-0.8,1-1.5,2.2-1.5c1.5,0,2.1,1.2,2.1,2.9v6.8
	h4.2v-7.3c0-3.9-2.1-5.7-4.9-5.7c-2.3,0-3.3,1.3-3.8,2.1h0V7.1H7C7,8.2,7,19.7,7,19.7L7,19.7z"/>
</svg>
