<svg xmlns="http://www.w3.org/2000/svg" viewBox="0 0 20 17.21"><defs><style>.cls-1{fill:#fff;}</style></defs><title>icon_medium</title><g id="Layer_2" data-name="Layer 2"><g id="primary_Logo" data-name="primary Logo"><path class="cls-1" d="M.37.11A.24.24,0,0,0,0,.34V13.68a.74.74,0,0,0,.37.6l5.75,2.88a.35.35,0,0,0,.55-.35V3.35a.17.17,0,0,0-.09-.13Z"/><path class="cls-1" d="M13.56,14.21l5.89,2.94c.3.15.55,0,.55-.35v-13Z"/><path class="cls-1" d="M19.86,3.19,13.52,0a.24.24,0,0,0-.3.09L9.11,6.79l4.33,7.13L19.92,3.4A.15.15,0,0,0,19.86,3.19Z"/><polygon class="cls-1" points="6.92 10.89 13.33 14.1 6.92 3.67 6.92 10.89"/></g></g></svg>