<svg xmlns="http://www.w3.org/2000/svg" viewBox="0 0 188.34 46.8"><defs><style>.cls-1{fill:#fff;}</style></defs><title>Asset 5</title><g id="Layer_2" data-name="Layer 2"><g id="Layer_1-2" data-name="Layer 1"><path class="cls-1" d="M12.48,3.9q9.3,0,14.28,3.27t5,10.71q0,7.5-5,10.83T12.3,32H9.36V46H0V5a53,53,0,0,1,6.48-.84Q9.9,3.9,12.48,3.9Zm.6,8q-1,0-2,.06l-1.71.12v12H12.3q4.86,0,7.32-1.32t2.46-4.92a5.9,5.9,0,0,0-.63-2.88,4.79,4.79,0,0,0-1.8-1.83,8.11,8.11,0,0,0-2.85-1A23.54,23.54,0,0,0,13.08,11.88Z"/><path class="cls-1" d="M57.06,22.32q-1.2-.3-2.82-.63a17.43,17.43,0,0,0-3.48-.33,16.15,16.15,0,0,0-2,.15,11.83,11.83,0,0,0-1.77.33V46H38V16.08a53.7,53.7,0,0,1,5.67-1.59A32.67,32.67,0,0,1,51,13.74q.72,0,1.74.09t2,.24q1,.15,2,.36a9.6,9.6,0,0,1,1.74.51Z"/><path class="cls-1" d="M73.14,5.28a4.91,4.91,0,0,1-1.59,3.87,5.69,5.69,0,0,1-7.5,0,4.91,4.91,0,0,1-1.59-3.87,4.91,4.91,0,0,1,1.59-3.87,5.69,5.69,0,0,1,7.5,0A4.91,4.91,0,0,1,73.14,5.28ZM72.3,46H63.36V14.4H72.3Z"/><path class="cls-1" d="M80.7,15.48a49.83,49.83,0,0,1,5.88-1.23,48.32,48.32,0,0,1,7.56-.57,18.41,18.41,0,0,1,6.69,1.05,10,10,0,0,1,4.23,3,11.57,11.57,0,0,1,2.22,4.56,24.26,24.26,0,0,1,.66,5.88V46H99V29.22q0-4.32-1.14-6.12T93.6,21.3q-1,0-2,.09t-1.92.21V46H80.7Z"/><path class="cls-1" d="M114.54,30.18a18.6,18.6,0,0,1,1.11-6.45A15.1,15.1,0,0,1,124,14.88a16.83,16.83,0,0,1,6.84-1.32,22.08,22.08,0,0,1,4.62.45,22.49,22.49,0,0,1,4.08,1.29l-1.86,7.14a22.53,22.53,0,0,0-2.76-.84,14.42,14.42,0,0,0-3.36-.36,7.08,7.08,0,0,0-5.91,2.46,10.13,10.13,0,0,0-2,6.48,10.49,10.49,0,0,0,1.83,6.6q1.83,2.34,6.39,2.34a21.92,21.92,0,0,0,3.48-.3,14.79,14.79,0,0,0,3.42-1L140,45.18a21,21,0,0,1-3.9,1.14,25.73,25.73,0,0,1-5.16.48,19.42,19.42,0,0,1-7.44-1.29A14,14,0,0,1,118.41,42a13.69,13.69,0,0,1-2.94-5.25A22.29,22.29,0,0,1,114.54,30.18Z"/><path class="cls-1" d="M143,30.42a19.3,19.3,0,0,1,1.29-7.35,15.76,15.76,0,0,1,3.39-5.25,14.1,14.1,0,0,1,4.83-3.18,15.12,15.12,0,0,1,5.61-1.08q6.72,0,10.62,4.11t3.9,12.09q0,.78-.06,1.71t-.12,1.65H152.22a5.94,5.94,0,0,0,2.58,4.38,10.37,10.37,0,0,0,6.12,1.62,25.84,25.84,0,0,0,4.83-.45,18.23,18.23,0,0,0,3.87-1.11l1.2,7.26a12.35,12.35,0,0,1-1.92.72,25.12,25.12,0,0,1-2.67.63q-1.47.27-3.15.45a31.52,31.52,0,0,1-3.36.18,19.89,19.89,0,0,1-7.41-1.26,14.43,14.43,0,0,1-5.22-3.45A13.69,13.69,0,0,1,144,36.9,20.56,20.56,0,0,1,143,30.42ZM164,27a9.23,9.23,0,0,0-.39-2.22,5.54,5.54,0,0,0-1-1.92,5.43,5.43,0,0,0-1.74-1.38,5.67,5.67,0,0,0-2.61-.54,6,6,0,0,0-2.58.51,5.33,5.33,0,0,0-1.8,1.35,6,6,0,0,0-1.11,1.95,12.8,12.8,0,0,0-.57,2.25Z"/><path d="M188.34,41.22a5,5,0,0,1-1.71,4.11,6,6,0,0,1-7.74,0,5,5,0,0,1-1.71-4.11,5,5,0,0,1,1.71-4.11,6,6,0,0,1,7.74,0A5,5,0,0,1,188.34,41.22Z"/></g></g></svg>