<?xml version="1.0" encoding="utf-8"?>
<!-- Generator: Adobe Illustrator 23.1.1, SVG Export Plug-In . SVG Version: 6.00 Build 0)  -->
<svg version="1.1" id="Layer_1" xmlns="http://www.w3.org/2000/svg" xmlns:xlink="http://www.w3.org/1999/xlink" x="0px" y="0px"
	 viewBox="0 0 16 16" style="enable-background:new 0 0 16 16;" xml:space="preserve">
<style type="text/css">
	.st0{fill:#485AF9;}
	.st1{fill:#FFFFFF;}
</style>
<title>Asset 4</title>
<text transform="matrix(1 0 0 1 7.1032 -87.6301)" style="font-family:'CircularStd-Medium'; font-size:30px;">Prince Owusu Attah</text>
<text transform="matrix(1 0 0 1 7.1032 -121.3044)" style="font-family:'CircularStd-Medium'; font-size:30px;">P</text>
<rect x="3.4" y="-142.7" class="st0" width="3.7" height="21.4"/>
<rect x="31.9" y="-129.5" class="st0" width="3.7" height="8.2"/>
<path class="st0" d="M26.1-121.3L26.1-121.3c-2.3,0-4.1-1.8-4.1-4.1v0c0-2.3,1.8-4.1,4.1-4.1h0c2.3,0,4.1,1.8,4.1,4.1v0
	C30.2-123.1,28.3-121.3,26.1-121.3z"/>
<text transform="matrix(1 0 0 1 -70.7571 -107.537)" style="font-family:'CircularStd-Medium'; font-size:30px;">P</text>
<rect x="-45.9" y="-115.7" class="st0" width="3.7" height="8.2"/>
<path class="st0" d="M-51.8-107.5L-51.8-107.5c-2.3,0-4.1-1.8-4.1-4.1v0c0-2.3,1.8-4.1,4.1-4.1h0c2.3,0,4.1,1.8,4.1,4.1v0
	C-47.7-109.4-49.5-107.5-51.8-107.5z"/>
<rect x="45.6" y="-72.1" class="st0" width="81.5" height="4.2"/>
<circle class="st0" cx="-19.7" cy="-118.4" r="10.3"/>
<rect x="-16.6" y="-117.5" class="st1" width="2" height="5"/>
<path class="st1" d="M-19.1-112.5L-19.1-112.5c-1.4,0-2.5-1.1-2.5-2.5v0c0-1.4,1.1-2.5,2.5-2.5h0c1.4,0,2.5,1.1,2.5,2.5v0
	C-16.6-113.6-17.7-112.5-19.1-112.5z"/>
<text transform="matrix(1 0 0 1 -25.5443 -112.4676)" class="st1" style="font-family:'CircularStd-Medium'; font-size:18px;">P</text>
<text transform="matrix(1 0 0 1 48.8148 73.2759)" style="font-family:'CircularStd-Medium'; font-size:30px;">Prince Owusu Attah</text>
<g>
	<circle class="st0" cx="25.1" cy="63.6" r="12.7"/>
	<g>
		<rect x="29.2" y="64.9" class="st1" width="2" height="4.9"/>
		<path class="st1" d="M26.6,69.9L26.6,69.9c-1.4,0-2.5-1.1-2.5-2.5v0c0-1.4,1.1-2.5,2.5-2.5h0c1.4,0,2.5,1.1,2.5,2.5v0
			C29.1,68.8,28,69.9,26.6,69.9z"/>
		<g>
			<path class="st1" d="M24.8,65h-2.5v4.9h-2.1V57.3h4.7c1.2,0,2.2,0.4,2.9,1.1c0.7,0.7,1.1,1.6,1.1,2.7c0,1.1-0.4,2-1.1,2.8
				C27,64.6,26,65,24.8,65z M22.3,63.1h2.2c0.7,0,1.2-0.2,1.6-0.5c0.4-0.3,0.6-0.8,0.6-1.4c0-0.6-0.2-1.1-0.6-1.4
				c-0.4-0.4-0.9-0.5-1.6-0.5h-2.2V63.1z"/>
		</g>
	</g>
</g>
<g>
	<circle class="st0" cx="35.9" cy="-0.2" r="16"/>
	<g>
		<rect x="41.1" y="1.5" class="st1" width="2.5" height="6.2"/>
		<path class="st1" d="M37.8,7.7L37.8,7.7c-1.7,0-3.1-1.4-3.1-3.1v0c0-1.7,1.4-3.1,3.1-3.1h0c1.7,0,3.1,1.4,3.1,3.1v0
			C41,6.3,39.6,7.7,37.8,7.7z"/>
		<g>
			<path class="st1" d="M35.5,1.5h-3.2v6.2h-2.7V-8.1h5.9c1.5,0,2.7,0.5,3.6,1.4c0.9,0.9,1.4,2.1,1.4,3.5c0,1.4-0.5,2.6-1.4,3.5
				C38.2,1.1,37,1.5,35.5,1.5z M32.3-0.8h2.8c0.8,0,1.5-0.2,2-0.7c0.5-0.4,0.7-1,0.7-1.8c0-0.8-0.2-1.4-0.7-1.8
				c-0.5-0.4-1.1-0.7-2-0.7h-2.8V-0.8z"/>
		</g>
	</g>
</g>
<g>
	<circle class="st0" cx="8" cy="8" r="8"/>
	<g>
		<rect x="10.6" y="8.8" class="st1" width="1.2" height="3.1"/>
		<path class="st1" d="M9,11.9L9,11.9c-0.9,0-1.6-0.7-1.6-1.6v0c0-0.9,0.7-1.6,1.6-1.6h0c0.9,0,1.6,0.7,1.6,1.6v0
			C10.5,11.3,9.8,11.9,9,11.9z"/>
		<g>
			<path class="st1" d="M7.8,8.9H6.2v3.1H4.9V4.1h2.9c0.7,0,1.4,0.2,1.8,0.7c0.5,0.5,0.7,1,0.7,1.7c0,0.7-0.2,1.3-0.7,1.7
				C9.2,8.6,8.6,8.9,7.8,8.9z M6.2,7.7h1.4c0.4,0,0.8-0.1,1-0.3C8.9,7.1,9,6.8,9,6.5c0-0.4-0.1-0.7-0.4-0.9C8.4,5.3,8,5.2,7.6,5.2
				H6.2V7.7z"/>
		</g>
	</g>
</g>
<g>
	<circle class="st0" cx="89.6" cy="-16" r="32"/>
	<g>
		<rect x="100" y="-12.6" class="st1" width="5" height="12.4"/>
		<path class="st1" d="M93.5-0.2L93.5-0.2c-3.4,0-6.2-2.8-6.2-6.2v0c0-3.4,2.8-6.2,6.2-6.2h0c3.4,0,6.2,2.8,6.2,6.2v0
			C99.8-3,97-0.2,93.5-0.2z"/>
		<g>
			<path class="st1" d="M88.9-12.5h-6.4v12.3h-5.3v-31.6h11.7c3,0,5.4,0.9,7.3,2.7C98-27.3,99-25,99-22.2c0,2.8-0.9,5.1-2.8,6.9
				C94.3-13.4,91.9-12.5,88.9-12.5z M82.5-17.3h5.6c1.7,0,3-0.4,4-1.3c1-0.9,1.4-2.1,1.4-3.5c0-1.5-0.5-2.7-1.4-3.6
				c-1-0.9-2.3-1.3-4-1.3h-5.6V-17.3z"/>
		</g>
	</g>
</g>
<g>
	<text transform="matrix(1 0 0 1 48.8148 133.7409)" class="st1" style="font-family:'CircularStd-Medium'; font-size:30px;">Prince Owusu Attah</text>
	<circle class="st1" cx="25.1" cy="124" r="12.7"/>
	<g>
		<rect x="29.2" y="125.4" class="st0" width="2" height="4.9"/>
		<path class="st0" d="M26.6,130.3L26.6,130.3c-1.4,0-2.5-1.1-2.5-2.5l0,0c0-1.4,1.1-2.5,2.5-2.5h0c1.4,0,2.5,1.1,2.5,2.5l0,0
			C29.1,129.2,28,130.3,26.6,130.3z"/>
		<g>
			<path class="st0" d="M24.8,125.4h-2.5v4.9h-2.1v-12.6h4.7c1.2,0,2.2,0.4,2.9,1.1c0.7,0.7,1.1,1.6,1.1,2.7c0,1.1-0.4,2-1.1,2.8
				C27,125.1,26,125.4,24.8,125.4z M22.3,123.5h2.2c0.7,0,1.2-0.2,1.6-0.5c0.4-0.3,0.6-0.8,0.6-1.4c0-0.6-0.2-1.1-0.6-1.4
				c-0.4-0.4-0.9-0.5-1.6-0.5h-2.2V123.5z"/>
		</g>
	</g>
</g>
</svg>
