<svg width="228" height="60" viewBox="0 0 228 60" fill="none" xmlns="http://www.w3.org/2000/svg">
<path d="M0 59.2519V6.88279H22.4023C25.52 6.88279 28.336 7.63092 30.8503 9.12718C33.4149 10.5736 35.4263 12.5686 36.8846 15.1122C38.3932 17.6559 39.1475 20.5237 39.1475 23.7157C39.1475 26.9576 38.3932 29.8753 36.8846 32.4688C35.4263 35.0623 33.4149 37.1322 30.8503 38.6783C28.336 40.1746 25.52 40.9227 22.4023 40.9227H11.3143V59.2519H0ZM11.1634 30.8229H21.12C22.3269 30.8229 23.408 30.5237 24.3635 29.9252C25.3189 29.2768 26.0732 28.4289 26.6263 27.3815C27.2298 26.3342 27.5315 25.1372 27.5315 23.7905C27.5315 22.4439 27.2298 21.2718 26.6263 20.2743C26.0732 19.2269 25.3189 18.4289 24.3635 17.8803C23.408 17.2818 22.3269 16.9825 21.12 16.9825H11.1634V30.8229Z" fill="black"/>
<path d="M47.7705 59.2519V19.6758H58.1042L58.4814 32.394L56.6711 29.7756C57.2745 27.7307 58.2551 25.8853 59.6128 24.2394C60.9705 22.5436 62.5545 21.2219 64.3648 20.2743C66.2254 19.3267 68.1614 18.8529 70.1728 18.8529C71.0277 18.8529 71.8574 18.9277 72.662 19.0773C73.4665 19.2269 74.1454 19.4015 74.6985 19.601L71.8322 31.2718C71.2288 30.9726 70.4997 30.7232 69.6448 30.5237C68.79 30.2743 67.91 30.1496 67.0048 30.1496C65.798 30.1496 64.6665 30.3741 63.6105 30.8229C62.6048 31.2219 61.7248 31.8205 60.9705 32.6185C60.2162 33.3666 59.6128 34.2643 59.1602 35.3117C58.7579 36.3591 58.5568 37.5062 58.5568 38.7531V59.2519H47.7705Z" fill="black"/>
<path d="M81.7494 59.2519V19.6758H92.4602V59.2519H81.7494ZM87.0294 11.5212C84.9676 11.5212 83.3585 11.0224 82.2019 10.0249C81.0454 9.02743 80.4671 7.60599 80.4671 5.7606C80.4671 4.06484 81.0454 2.69327 82.2019 1.64589C83.4088 0.548629 85.0179 0 87.0294 0C89.0911 0 90.7002 0.523691 91.8568 1.57107C93.0134 2.56858 93.5917 3.96509 93.5917 5.7606C93.5917 7.50624 92.9882 8.90275 91.7814 9.95013C90.6248 10.9975 89.0408 11.5212 87.0294 11.5212Z" fill="black"/>
<path d="M103.9 59.2519V19.6758H114.158L114.46 27.7556L112.348 28.6534C112.901 26.8579 113.882 25.2369 115.29 23.7905C116.748 22.2943 118.483 21.0973 120.494 20.1995C122.506 19.3017 124.618 18.8529 126.83 18.8529C129.848 18.8529 132.362 19.4514 134.373 20.6484C136.435 21.8454 137.969 23.6658 138.974 26.1097C140.03 28.5037 140.558 31.4713 140.558 35.0125V59.2519H129.848V35.8354C129.848 34.0399 129.596 32.5436 129.093 31.3466C128.59 30.1496 127.811 29.2768 126.755 28.7282C125.749 28.1297 124.492 27.8803 122.983 27.9801C121.777 27.9801 120.645 28.1796 119.589 28.5786C118.583 28.9277 117.703 29.4514 116.949 30.1496C116.245 30.8479 115.667 31.6459 115.214 32.5436C114.812 33.4414 114.611 34.414 114.611 35.4613V59.2519H109.331C108.174 59.2519 107.143 59.2519 106.238 59.2519C105.333 59.2519 104.554 59.2519 103.9 59.2519Z" fill="black"/>
<path d="M168.171 60C164.349 60 160.929 59.1022 157.912 57.3067C154.895 55.5112 152.507 53.0673 150.747 49.9751C149.037 46.8828 148.182 43.3666 148.182 39.4264C148.182 35.5362 149.037 32.0449 150.747 28.9526C152.507 25.8105 154.895 23.3416 157.912 21.5461C160.929 19.7506 164.349 18.8529 168.171 18.8529C171.741 18.8529 175.009 19.5012 177.976 20.798C180.943 22.0948 183.256 23.8903 184.916 26.1845L179.032 33.217C178.328 32.2693 177.448 31.4214 176.392 30.6733C175.336 29.8753 174.18 29.2519 172.923 28.803C171.716 28.3541 170.459 28.1297 169.151 28.1297C167.089 28.1297 165.254 28.6284 163.645 29.6259C162.086 30.5736 160.854 31.8953 159.949 33.591C159.044 35.2868 158.591 37.2319 158.591 39.4264C158.591 41.5711 159.044 43.4913 159.949 45.187C160.904 46.8329 162.187 48.1796 163.796 49.2269C165.405 50.2244 167.215 50.7232 169.227 50.7232C170.534 50.7232 171.766 50.5486 172.923 50.1995C174.079 49.8005 175.16 49.2269 176.166 48.4788C177.222 47.7307 178.177 46.8329 179.032 45.7855L184.84 52.818C183.131 54.9626 180.767 56.7082 177.75 58.0549C174.733 59.3516 171.54 60 168.171 60Z" fill="black"/>
<path d="M210.636 60C206.312 60 202.54 59.1272 199.322 57.3816C196.104 55.6359 193.589 53.2419 191.779 50.1995C189.969 47.1571 189.064 43.6658 189.064 39.7257C189.064 36.6833 189.567 33.8903 190.572 31.3466C191.578 28.803 192.986 26.6085 194.796 24.7631C196.607 22.8678 198.744 21.4214 201.208 20.4239C203.722 19.3766 206.437 18.8529 209.354 18.8529C212.069 18.8529 214.584 19.3516 216.897 20.3491C219.21 21.2968 221.196 22.6683 222.856 24.4638C224.565 26.2095 225.873 28.2793 226.778 30.6733C227.683 33.0673 228.085 35.6858 227.985 38.5287L227.909 41.8204H195.852L194.117 35.3117H219.084L217.877 36.6584V35.0125C217.777 33.6658 217.324 32.4439 216.52 31.3466C215.765 30.2494 214.785 29.4015 213.578 28.803C212.371 28.2045 211.013 27.9052 209.505 27.9052C207.292 27.9052 205.407 28.3292 203.848 29.1771C202.339 30.0249 201.183 31.2718 200.378 32.9177C199.573 34.5636 199.171 36.5586 199.171 38.9027C199.171 41.2968 199.674 43.3666 200.68 45.1122C201.736 46.8579 203.194 48.2294 205.055 49.2269C206.965 50.1746 209.203 50.6484 211.768 50.6484C213.528 50.6484 215.137 50.3741 216.595 49.8254C218.053 49.2768 219.612 48.3292 221.272 46.9825L226.401 54.0898C224.943 55.3865 223.333 56.4838 221.573 57.3816C219.813 58.2294 218.003 58.8778 216.143 59.3267C214.282 59.7756 212.447 60 210.636 60Z" fill="black"/>
</svg>
