<svg xmlns="http://www.w3.org/2000/svg" viewBox="0 0 310.72 32.78"><defs><style>.cls-1{font-size:30px;font-family:CircularStd-Medium, Circular Std;font-weight:500;}.cls-1,.cls-9{fill:#fff;}.cls-2{letter-spacing:-0.01em;}.cls-3{letter-spacing:0em;}.cls-4{letter-spacing:0em;}.cls-5{letter-spacing:0em;}.cls-6{letter-spacing:0em;}.cls-7{letter-spacing:-0.02em;}.cls-8{letter-spacing:0em;}.cls-10{fill:#485af9;}</style></defs><title>Prince_logo_white</title><g id="Layer_2" data-name="Layer 2"><g id="Layer_1-2" data-name="Layer 1"><text class="cls-1" transform="translate(36.46 25.64)"><tspan class="cls-2">P</tspan><tspan class="cls-3" x="17.67" y="0">r</tspan><tspan class="cls-4" x="29.13" y="0">in</tspan><tspan class="cls-5" x="54.3" y="0">c</tspan><tspan x="70.38" y="0">e Owu</tspan><tspan class="cls-6" x="160.14" y="0">s</tspan><tspan x="173.7" y="0">u </tspan><tspan class="cls-7" x="198.45" y="0">A</tspan><tspan x="219.09" y="0">t</tspan><tspan class="cls-8" x="230.04" y="0">t</tspan><tspan x="241.08" y="0">ah</tspan></text><circle class="cls-9" cx="12.74" cy="15.94" r="12.74"/><rect class="cls-10" x="16.85" y="17.28" width="1.98" height="4.95"/><rect class="cls-10" x="11.82" y="17.28" width="4.95" height="4.95" rx="2.47"/><path class="cls-10" d="M12.45,17.31H9.91v4.91H7.79V9.65h4.66a4,4,0,0,1,2.9,1.08,3.68,3.68,0,0,1,1.11,2.75,3.68,3.68,0,0,1-1.11,2.76A4,4,0,0,1,12.45,17.31ZM9.91,15.43h2.22a2.29,2.29,0,0,0,1.59-.52,1.82,1.82,0,0,0,.57-1.41,1.89,1.89,0,0,0-.57-1.44,2.3,2.3,0,0,0-1.59-.53H9.91Z"/></g></g></svg>