<?xml version="1.0" encoding="utf-8"?>
<!-- Generator: Adobe Illustrator 25.2.1, SVG Export Plug-In . SVG Version: 6.00 Build 0)  -->
<svg version="1.1" id="Layer_1" xmlns="http://www.w3.org/2000/svg" xmlns:xlink="http://www.w3.org/1999/xlink" x="0px" y="0px"
	 viewBox="0 0 274 32.8" style="enable-background:new 0 0 274 32.8;" xml:space="preserve">
<style type="text/css">
	.st0{enable-background:new    ;}
	.st1{fill:#FFFFFF;}
</style>
<g id="Layer_2_1_">
	<g id="Layer_1-2">
		<g class="st0">
			<path class="st1" d="M10.2,17.3H5.9v8.3H2.3V4.4h7.9c2,0,3.7,0.6,4.9,1.8C16.3,7.4,17,9,17,10.9c0,1.9-0.6,3.5-1.9,4.7
				C13.8,16.7,12.2,17.3,10.2,17.3z M5.9,14.1h3.7c1.1,0,2-0.3,2.7-0.9s1-1.4,1-2.4c0-1-0.3-1.8-1-2.4c-0.6-0.6-1.5-0.9-2.7-0.9H5.9
				V14.1z"/>
		</g>
		<g class="st0">
			<path class="st1" d="M28.2,10.9v3.5c-0.4-0.1-0.8-0.1-1.1-0.1c-2.6,0-3.9,1.4-3.9,4.3v7h-3.5V11H23v2.3c0.3-0.8,0.9-1.4,1.6-1.8
				c0.8-0.5,1.6-0.7,2.6-0.7C27.6,10.9,27.9,10.9,28.2,10.9z"/>
		</g>
		<g class="st0">
			<path class="st1" d="M31.2,7.5c-0.4-0.4-0.7-1-0.7-1.6c0-0.6,0.2-1.2,0.7-1.6c0.4-0.5,1-0.7,1.6-0.7c0.6,0,1.2,0.2,1.6,0.7
				c0.4,0.4,0.7,1,0.7,1.6c0,0.6-0.2,1.2-0.7,1.6c-0.4,0.4-1,0.7-1.6,0.7C32.2,8.1,31.7,7.9,31.2,7.5z M34.6,25.6h-3.5V11h3.5V25.6z
				"/>
			<path class="st1" d="M42.5,17.2v8.4h-3.5V11h3.4v2c0.5-0.8,1.1-1.4,1.8-1.8c0.8-0.4,1.6-0.6,2.5-0.6c1.7,0,3,0.5,3.9,1.6
				s1.4,2.5,1.4,4.2v9.2h-3.5V17c0-1-0.2-1.8-0.7-2.4s-1.2-0.9-2.3-0.9c-1,0-1.7,0.3-2.2,1C42.8,15.4,42.5,16.2,42.5,17.2z"/>
		</g>
		<g class="st0">
			<path class="st1" d="M62.6,13.8c-1.1,0-2.1,0.4-2.9,1.2c-0.8,0.8-1.2,1.9-1.2,3.3c0,1.4,0.4,2.5,1.2,3.4s1.8,1.2,2.9,1.2
				c1,0,1.8-0.3,2.4-0.8c0.6-0.5,1-1.2,1.2-1.9l3.1,1.1c-0.4,1.3-1.2,2.4-2.3,3.4c-1.2,0.9-2.6,1.4-4.4,1.4c-2.1,0-3.9-0.7-5.4-2.2
				c-1.5-1.5-2.2-3.3-2.2-5.6c0-2.2,0.7-4.1,2.1-5.5s3.2-2.2,5.3-2.2c1.8,0,3.3,0.5,4.5,1.4c1.2,0.9,1.9,2.1,2.2,3.4l-3.1,1.1
				c-0.2-0.8-0.6-1.4-1.2-1.9S63.7,13.8,62.6,13.8z"/>
		</g>
		<g class="st0">
			<path class="st1" d="M82.4,20.5l2.9,0.9c-0.4,1.3-1.2,2.4-2.4,3.3c-1.2,0.9-2.6,1.3-4.2,1.3c-2.1,0-3.8-0.7-5.3-2.1
				c-1.5-1.4-2.2-3.3-2.2-5.7c0-2.2,0.7-4.1,2.1-5.5c1.4-1.4,3.1-2.2,5-2.2c2.2,0,4,0.7,5.2,2.1c1.3,1.4,1.9,3.2,1.9,5.5
				c0,0.6,0,1-0.1,1.1H74.7c0,1.1,0.4,2,1.2,2.7c0.8,0.7,1.7,1.1,2.8,1.1C80.6,23.1,81.8,22.2,82.4,20.5z M74.8,16.7H82
				c0-0.9-0.4-1.7-1-2.3c-0.6-0.6-1.5-0.9-2.6-0.9c-1,0-1.9,0.3-2.5,1C75.2,15.1,74.9,15.9,74.8,16.7z"/>
			<path class="st1" d="M96.8,20.9c-1-1.7-1.5-3.7-1.5-5.9c0-2.2,0.5-4.2,1.5-5.9c1-1.7,2.4-3,4-3.9c1.6-0.9,3.4-1.3,5.3-1.3
				c1.9,0,3.7,0.4,5.3,1.3c1.6,0.9,3,2.1,4,3.9c1,1.7,1.6,3.7,1.6,5.9c0,2.2-0.5,4.2-1.6,5.9c-1,1.7-2.4,3-4,3.9
				c-1.6,0.9-3.4,1.3-5.3,1.3c-1.9,0-3.7-0.4-5.3-1.3C99.2,23.9,97.8,22.7,96.8,20.9z M101,9.3c-1.4,1.3-2.1,3.2-2.1,5.7
				c0,2.4,0.7,4.3,2.1,5.7c1.4,1.4,3.1,2,5,2c1.9,0,3.6-0.7,5-2c1.4-1.3,2.1-3.2,2.1-5.7c0-2.4-0.7-4.3-2.1-5.7c-1.4-1.4-3.1-2-5-2
				C104.1,7.3,102.4,8,101,9.3z"/>
			<path class="st1" d="M128.7,11h3.6l3.5,10.1l2.9-10.1h3.5l-4.7,14.6H134l-3.6-10.5l-3.5,10.5h-3.6L118.5,11h3.7l3,10.1L128.7,11z
				"/>
			<path class="st1" d="M154.3,24c-0.3,0.6-0.9,1.1-1.7,1.5c-0.8,0.4-1.6,0.5-2.5,0.5c-1.7,0-3-0.5-4-1.7c-1-1.1-1.5-2.5-1.5-4.2V11
				h3.5v8.6c0,1,0.2,1.8,0.7,2.4c0.5,0.6,1.2,0.9,2.2,0.9c1,0,1.7-0.3,2.3-0.9c0.5-0.6,0.8-1.4,0.8-2.4V11h3.5V23
				c0,0.9,0,1.8,0.2,2.7h-3.3C154.4,25.2,154.3,24.7,154.3,24z"/>
		</g>
		<g class="st0">
			<path class="st1" d="M160.8,21.7l3-0.8c0.1,0.7,0.3,1.3,0.9,1.8c0.5,0.5,1.2,0.7,2.1,0.7c0.7,0,1.2-0.2,1.6-0.5
				c0.4-0.3,0.6-0.7,0.6-1.2c0-0.8-0.6-1.4-1.7-1.6l-2.2-0.5c-1.3-0.3-2.2-0.8-2.9-1.6c-0.7-0.8-1-1.7-1-2.7c0-1.3,0.5-2.4,1.6-3.3
				s2.3-1.4,3.8-1.4c1,0,1.8,0.1,2.5,0.4c0.7,0.3,1.3,0.6,1.7,1.1s0.7,0.9,0.9,1.3c0.2,0.4,0.4,0.8,0.4,1.3l-2.9,0.8
				c-0.1-0.6-0.3-1.1-0.8-1.5c-0.4-0.5-1.1-0.7-1.9-0.7c-0.6,0-1.1,0.2-1.5,0.5c-0.4,0.3-0.6,0.7-0.6,1.2c0,0.8,0.5,1.3,1.5,1.5
				l2.2,0.5c1.4,0.3,2.4,0.8,3.1,1.6c0.7,0.8,1.1,1.7,1.1,2.8c0,1.2-0.5,2.3-1.5,3.3c-1,1-2.3,1.4-4.1,1.4c-1,0-1.9-0.2-2.7-0.5
				c-0.8-0.3-1.4-0.7-1.9-1.2c-0.5-0.5-0.8-0.9-1-1.4C161,22.6,160.9,22.1,160.8,21.7z"/>
		</g>
		<g class="st0">
			<path class="st1" d="M185.2,24c-0.3,0.6-0.9,1.1-1.7,1.5c-0.8,0.4-1.6,0.5-2.5,0.5c-1.7,0-3-0.5-4-1.7c-1-1.1-1.5-2.5-1.5-4.2V11
				h3.5v8.6c0,1,0.2,1.8,0.7,2.4c0.5,0.6,1.2,0.9,2.2,0.9c1,0,1.7-0.3,2.3-0.9c0.5-0.6,0.8-1.4,0.8-2.4V11h3.5V23
				c0,0.9,0,1.8,0.2,2.7h-3.3C185.2,25.2,185.2,24.7,185.2,24z"/>
		</g>
		<g class="st0">
			<path class="st1" d="M215.3,25.6l-2-5.3h-9l-2,5.3h-3.8l8.3-21.3h4.2l8.3,21.3H215.3z M208.8,8.3l-3.2,8.7h6.5L208.8,8.3z"/>
		</g>
		<g class="st0">
			<path class="st1" d="M225.5,6.6V11h3v3.1h-3v6.8c0,0.6,0.2,1.1,0.5,1.4s0.8,0.4,1.4,0.4c0.4,0,0.8,0,1.2-0.1v2.9
				c-0.5,0.2-1.2,0.3-2.1,0.3c-1.4,0-2.4-0.4-3.2-1.2c-0.8-0.8-1.2-1.8-1.2-3.2v-7.3h-2.7V11h0.8c0.7,0,1.3-0.2,1.7-0.6
				s0.6-1,0.6-1.6V6.6H225.5z"/>
		</g>
		<g class="st0">
			<path class="st1" d="M236.4,6.6V11h3v3.1h-3v6.8c0,0.6,0.2,1.1,0.4,1.4c0.3,0.3,0.8,0.4,1.4,0.4c0.4,0,0.8,0,1.2-0.1v2.9
				c-0.5,0.2-1.2,0.3-2.1,0.3c-1.4,0-2.4-0.4-3.2-1.2c-0.8-0.8-1.2-1.8-1.2-3.2v-7.3h-2.7V11h0.8c0.7,0,1.3-0.2,1.7-0.6
				c0.4-0.4,0.6-1,0.6-1.6V6.6H236.4z"/>
		</g>
		<g class="st0">
			<path class="st1" d="M242.2,21.7c0-1.2,0.4-2.2,1.2-3c0.8-0.8,1.9-1.2,3.2-1.4l3.8-0.6c0.7-0.1,1.1-0.4,1.1-1
				c0-0.7-0.2-1.2-0.7-1.6c-0.5-0.4-1.2-0.6-2.1-0.6c-0.9,0-1.6,0.2-2.1,0.7c-0.5,0.5-0.8,1.1-0.9,1.9l-3.2-0.7
				c0.1-1.3,0.8-2.4,1.9-3.4c1.1-0.9,2.5-1.4,4.3-1.4c2.1,0,3.7,0.5,4.7,1.5c1,1,1.5,2.3,1.5,3.9v7.3c0,1,0.1,1.7,0.2,2.3h-3.2
				c-0.1-0.3-0.2-0.9-0.2-1.9c-1,1.5-2.5,2.3-4.5,2.3c-1.5,0-2.7-0.4-3.6-1.3C242.6,23.9,242.2,22.9,242.2,21.7z M247.8,23.4
				c1.1,0,2-0.3,2.6-0.9s1-1.6,1-2.9v-0.7l-3.8,0.6c-1.3,0.2-2,0.9-2,2c0,0.5,0.2,1,0.6,1.3C246.6,23.2,247.1,23.4,247.8,23.4z"/>
			<path class="st1" d="M262.5,17.1v8.6H259V3.9h3.5v8.5c0.9-1.2,2.3-1.8,4.2-1.8c1.7,0,3,0.5,4,1.6s1.4,2.5,1.4,4.2v9.2h-3.5V17
				c0-1-0.2-1.8-0.7-2.4s-1.2-0.9-2.3-0.9c-0.9,0-1.6,0.3-2.2,0.9C262.8,15.3,262.5,16.1,262.5,17.1z"/>
		</g>
	</g>
</g>
</svg>
