<?xml version="1.0" encoding="utf-8"?>
<!-- Generator: Adobe Illustrator 25.2.1, SVG Export Plug-In . SVG Version: 6.00 Build 0)  -->
<svg version="1.1" id="Layer_1" xmlns="http://www.w3.org/2000/svg" xmlns:xlink="http://www.w3.org/1999/xlink" x="0px" y="0px"
	 viewBox="0 0 269.9 32.8" style="enable-background:new 0 0 269.9 32.8;" xml:space="preserve">
<style type="text/css">
	.st0{enable-background:new    ;}
	.st1{fill:#FFFFFF;}
</style>
<g id="Layer_2_1_">
	<g id="Layer_1-2">
		<g class="st0">
			<path class="st1" d="M8.1,17.3H3.8v8.3H0.2V4.4h7.9c2,0,3.7,0.6,4.9,1.8c1.2,1.2,1.9,2.8,1.9,4.7c0,1.9-0.6,3.5-1.9,4.7
				C11.7,16.7,10.1,17.3,8.1,17.3z M3.8,14.1h3.8c1.1,0,2-0.3,2.7-0.9s1-1.4,1-2.4c0-1-0.3-1.8-1-2.4C9.6,7.9,8.7,7.6,7.5,7.6H3.8
				V14.1z"/>
		</g>
		<g class="st0">
			<path class="st1" d="M26.1,10.9v3.5c-0.4-0.1-0.8-0.1-1.1-0.1c-2.6,0-3.9,1.4-3.9,4.3v7h-3.5V11h3.4v2.3c0.3-0.8,0.9-1.4,1.6-1.8
				c0.8-0.5,1.6-0.7,2.6-0.7C25.5,10.9,25.8,10.9,26.1,10.9z"/>
		</g>
		<g class="st0">
			<path class="st1" d="M29.1,7.5c-0.4-0.4-0.7-1-0.7-1.6c0-0.6,0.2-1.2,0.7-1.6c0.4-0.5,1-0.7,1.6-0.7c0.6,0,1.2,0.2,1.6,0.7
				c0.4,0.4,0.7,1,0.7,1.6c0,0.6-0.2,1.2-0.7,1.6c-0.4,0.4-1,0.7-1.6,0.7C30.1,8.1,29.6,7.9,29.1,7.5z M32.5,25.6H29V11h3.5V25.6z"
				/>
			<path class="st1" d="M40.4,17.2v8.4H37V11h3.4v2c0.5-0.8,1.1-1.4,1.8-1.8c0.8-0.4,1.6-0.6,2.5-0.6c1.7,0,3,0.5,3.9,1.6
				s1.4,2.5,1.4,4.2v9.2h-3.5V17c0-1-0.2-1.8-0.7-2.4s-1.2-0.9-2.3-0.9c-1,0-1.7,0.3-2.2,1C40.7,15.4,40.4,16.2,40.4,17.2z"/>
		</g>
		<g class="st0">
			<path class="st1" d="M60.5,13.8c-1.1,0-2.1,0.4-2.9,1.2c-0.8,0.8-1.2,1.9-1.2,3.3c0,1.4,0.4,2.5,1.2,3.4s1.8,1.2,2.9,1.2
				c1,0,1.8-0.3,2.4-0.8c0.6-0.5,1-1.2,1.2-1.9l3.1,1.1c-0.4,1.3-1.2,2.4-2.3,3.4c-1.2,0.9-2.6,1.4-4.4,1.4c-2.1,0-3.9-0.7-5.4-2.2
				c-1.5-1.5-2.2-3.3-2.2-5.6c0-2.2,0.7-4.1,2.1-5.5s3.2-2.2,5.3-2.2c1.8,0,3.3,0.5,4.5,1.4c1.2,0.9,1.9,2.1,2.2,3.4l-3.1,1.1
				c-0.2-0.8-0.6-1.4-1.2-1.9S61.6,13.8,60.5,13.8z"/>
		</g>
		<g class="st0">
			<path class="st1" d="M80.3,20.5l2.9,0.9c-0.4,1.3-1.2,2.4-2.4,3.3c-1.2,0.9-2.6,1.3-4.2,1.3c-2.1,0-3.8-0.7-5.3-2.1
				c-1.5-1.4-2.2-3.3-2.2-5.7c0-2.2,0.7-4.1,2.1-5.5c1.4-1.4,3.1-2.2,5-2.2c2.2,0,4,0.7,5.2,2.1c1.3,1.4,1.9,3.2,1.9,5.5
				c0,0.6,0,1-0.1,1.1H72.6c0,1.1,0.4,2,1.2,2.7c0.8,0.7,1.7,1.1,2.8,1.1C78.5,23.1,79.7,22.2,80.3,20.5z M72.7,16.7h7.2
				c0-0.9-0.4-1.7-1-2.3c-0.6-0.6-1.5-0.9-2.6-0.9c-1,0-1.9,0.3-2.5,1C73.1,15.1,72.8,15.9,72.7,16.7z"/>
			<path class="st1" d="M94.7,20.9c-1-1.7-1.5-3.7-1.5-5.9c0-2.2,0.5-4.2,1.5-5.9c1-1.7,2.4-3,4-3.9c1.6-0.9,3.4-1.3,5.3-1.3
				c1.9,0,3.7,0.4,5.3,1.3c1.6,0.9,3,2.1,4,3.9c1,1.7,1.6,3.7,1.6,5.9c0,2.2-0.5,4.2-1.6,5.9c-1,1.7-2.4,3-4,3.9
				c-1.6,0.9-3.4,1.3-5.3,1.3c-1.9,0-3.7-0.4-5.3-1.3C97.1,23.9,95.7,22.7,94.7,20.9z M98.9,9.3c-1.4,1.3-2.1,3.2-2.1,5.7
				c0,2.4,0.7,4.3,2.1,5.7c1.4,1.4,3.1,2,5,2c1.9,0,3.6-0.7,5-2c1.4-1.3,2.1-3.2,2.1-5.7c0-2.4-0.7-4.3-2.1-5.7c-1.4-1.4-3.1-2-5-2
				C102,7.3,100.3,8,98.9,9.3z"/>
			<path class="st1" d="M126.6,11h3.6l3.5,10.1l2.9-10.1h3.5l-4.7,14.6h-3.5l-3.6-10.5l-3.5,10.5h-3.6L116.4,11h3.7l3,10.1L126.6,11
				z"/>
			<path class="st1" d="M152.2,24c-0.3,0.6-0.9,1.1-1.7,1.5c-0.8,0.4-1.6,0.5-2.5,0.5c-1.7,0-3-0.5-4-1.7c-1-1.1-1.5-2.5-1.5-4.2V11
				h3.5v8.6c0,1,0.2,1.8,0.7,2.4c0.5,0.6,1.2,0.9,2.2,0.9c1,0,1.7-0.3,2.3-0.9c0.5-0.6,0.8-1.4,0.8-2.4V11h3.5V23
				c0,0.9,0,1.8,0.2,2.7h-3.3C152.3,25.2,152.2,24.7,152.2,24z"/>
		</g>
		<g class="st0">
			<path class="st1" d="M158.7,21.7l3-0.8c0.1,0.7,0.3,1.3,0.9,1.8c0.5,0.5,1.2,0.7,2.1,0.7c0.7,0,1.2-0.2,1.6-0.5
				c0.4-0.3,0.6-0.7,0.6-1.2c0-0.8-0.6-1.4-1.7-1.6l-2.2-0.5c-1.3-0.3-2.2-0.8-2.9-1.6c-0.7-0.8-1-1.7-1-2.7c0-1.3,0.5-2.4,1.6-3.3
				s2.3-1.4,3.8-1.4c1,0,1.8,0.1,2.5,0.4c0.7,0.3,1.3,0.6,1.7,1.1s0.7,0.9,0.9,1.3c0.2,0.4,0.4,0.8,0.4,1.3l-2.9,0.8
				c-0.1-0.6-0.3-1.1-0.8-1.5c-0.4-0.5-1.1-0.7-1.9-0.7c-0.6,0-1.1,0.2-1.5,0.5c-0.4,0.3-0.6,0.7-0.6,1.2c0,0.8,0.5,1.3,1.5,1.5
				l2.2,0.5c1.4,0.3,2.4,0.8,3.1,1.6c0.7,0.8,1.1,1.7,1.1,2.8c0,1.2-0.5,2.3-1.5,3.3c-1,1-2.3,1.4-4.1,1.4c-1,0-1.9-0.2-2.7-0.5
				c-0.8-0.3-1.4-0.7-1.9-1.2c-0.5-0.5-0.8-0.9-1-1.4C158.9,22.6,158.8,22.1,158.7,21.7z"/>
		</g>
		<g class="st0">
			<path class="st1" d="M183.1,24c-0.3,0.6-0.9,1.1-1.7,1.5c-0.8,0.4-1.6,0.5-2.5,0.5c-1.7,0-3-0.5-4-1.7c-1-1.1-1.5-2.5-1.5-4.2V11
				h3.5v8.6c0,1,0.2,1.8,0.7,2.4c0.5,0.6,1.2,0.9,2.2,0.9c1,0,1.7-0.3,2.3-0.9c0.5-0.6,0.8-1.4,0.8-2.4V11h3.5V23
				c0,0.9,0,1.8,0.2,2.7h-3.3C183.1,25.2,183.1,24.7,183.1,24z"/>
		</g>
		<g class="st0">
			<path class="st1" d="M213.2,25.6l-2-5.3h-9l-2,5.3h-3.8l8.3-21.3h4.2l8.3,21.3H213.2z M206.7,8.3l-3.2,8.7h6.5L206.7,8.3z"/>
		</g>
		<g class="st0">
			<path class="st1" d="M223.4,6.6V11h3v3.1h-3v6.8c0,0.6,0.2,1.1,0.5,1.4s0.8,0.4,1.4,0.4c0.4,0,0.8,0,1.2-0.1v2.9
				c-0.5,0.2-1.2,0.3-2.1,0.3c-1.4,0-2.4-0.4-3.2-1.2c-0.8-0.8-1.2-1.8-1.2-3.2v-7.3h-2.7V11h0.8c0.7,0,1.3-0.2,1.7-0.6
				s0.6-1,0.6-1.6V6.6H223.4z"/>
		</g>
		<g class="st0">
			<path class="st1" d="M234.3,6.6V11h3v3.1h-3v6.8c0,0.6,0.2,1.1,0.4,1.4c0.3,0.3,0.8,0.4,1.4,0.4c0.4,0,0.8,0,1.2-0.1v2.9
				c-0.5,0.2-1.2,0.3-2.1,0.3c-1.4,0-2.4-0.4-3.2-1.2c-0.8-0.8-1.2-1.8-1.2-3.2v-7.3h-2.7V11h0.8c0.7,0,1.3-0.2,1.7-0.6
				c0.4-0.4,0.6-1,0.6-1.6V6.6H234.3z"/>
		</g>
		<g class="st0">
			<path class="st1" d="M240.1,21.7c0-1.2,0.4-2.2,1.2-3c0.8-0.8,1.9-1.2,3.2-1.4l3.8-0.6c0.7-0.1,1.1-0.4,1.1-1
				c0-0.7-0.2-1.2-0.7-1.6c-0.5-0.4-1.2-0.6-2.1-0.6c-0.9,0-1.6,0.2-2.1,0.7c-0.5,0.5-0.8,1.1-0.9,1.9l-3.2-0.7
				c0.1-1.3,0.8-2.4,1.9-3.4c1.1-0.9,2.5-1.4,4.3-1.4c2.1,0,3.7,0.5,4.7,1.5c1,1,1.5,2.3,1.5,3.9v7.3c0,1,0.1,1.7,0.2,2.3h-3.2
				c-0.1-0.3-0.2-0.9-0.2-1.9c-1,1.5-2.5,2.3-4.5,2.3c-1.5,0-2.7-0.4-3.6-1.3C240.5,23.9,240.1,22.9,240.1,21.7z M245.7,23.4
				c1.1,0,2-0.3,2.6-0.9s1-1.6,1-2.9v-0.7l-3.8,0.6c-1.3,0.2-2,0.9-2,2c0,0.5,0.2,1,0.6,1.3C244.5,23.2,245,23.4,245.7,23.4z"/>
			<path class="st1" d="M260.4,17.1v8.6h-3.5V3.9h3.5v8.5c0.9-1.2,2.3-1.8,4.2-1.8c1.7,0,3,0.5,4,1.6s1.4,2.5,1.4,4.2v9.2h-3.5V17
				c0-1-0.2-1.8-0.7-2.4s-1.2-0.9-2.3-0.9c-0.9,0-1.6,0.3-2.2,0.9C260.7,15.3,260.4,16.1,260.4,17.1z"/>
		</g>
	</g>
</g>
</svg>
