<?xml version="1.0" encoding="utf-8"?>
<!-- Generator: Adobe Illustrator 25.2.1, SVG Export Plug-In . SVG Version: 6.00 Build 0)  -->
<svg version="1.1" id="Layer_1" xmlns="http://www.w3.org/2000/svg" xmlns:xlink="http://www.w3.org/1999/xlink" x="0px" y="0px"
	 viewBox="0 0 273.8 32.8" style="enable-background:new 0 0 273.8 32.8;" xml:space="preserve">
<path d="M10,17.3H5.7v8.3H2.1V4.4H10c2,0,3.7,0.6,4.9,1.8c1.2,1.2,1.9,2.8,1.9,4.7c0,1.9-0.6,3.5-1.9,4.7C13.6,16.7,12,17.3,10,17.3
	z M5.7,14.1h3.8c1.1,0,2-0.3,2.7-0.9s1-1.4,1-2.4c0-1-0.3-1.8-1-2.4c-0.6-0.6-1.5-0.9-2.7-0.9H5.7V14.1z"/>
<path d="M28,10.9v3.5c-0.4-0.1-0.8-0.1-1.1-0.1c-2.6,0-3.9,1.4-3.9,4.3v7h-3.5V11h3.4v2.3c0.3-0.8,0.9-1.4,1.6-1.8
	c0.8-0.5,1.6-0.7,2.6-0.7C27.4,10.9,27.7,10.9,28,10.9z"/>
<path d="M31,7.5c-0.4-0.4-0.7-1-0.7-1.6c0-0.6,0.2-1.2,0.7-1.6c0.4-0.5,1-0.7,1.6-0.7c0.6,0,1.2,0.2,1.6,0.7c0.4,0.4,0.7,1,0.7,1.6
	c0,0.6-0.2,1.2-0.7,1.6c-0.4,0.4-1,0.7-1.6,0.7C32,8.1,31.5,7.9,31,7.5z M34.4,25.6h-3.5V11h3.5V25.6z"/>
<path d="M42.4,17.2v8.4h-3.5V11h3.4v2c0.5-0.8,1.1-1.4,1.8-1.8c0.8-0.4,1.6-0.6,2.5-0.6c1.7,0,3,0.5,3.9,1.6s1.4,2.5,1.4,4.2v9.2
	h-3.5V17c0-1-0.2-1.8-0.7-2.4s-1.2-0.9-2.3-0.9c-1,0-1.7,0.3-2.2,1C42.6,15.4,42.4,16.2,42.4,17.2z"/>
<path d="M62.5,13.8c-1.1,0-2.1,0.4-2.9,1.2c-0.8,0.8-1.2,1.9-1.2,3.3c0,1.4,0.4,2.5,1.2,3.4s1.8,1.2,2.9,1.2c1,0,1.8-0.3,2.4-0.8
	c0.6-0.5,1-1.2,1.2-1.9l3.1,1.1c-0.4,1.3-1.2,2.4-2.3,3.4c-1.2,0.9-2.6,1.4-4.4,1.4c-2.1,0-3.9-0.7-5.4-2.2
	c-1.5-1.5-2.2-3.3-2.2-5.6c0-2.2,0.7-4.1,2.1-5.5s3.2-2.2,5.3-2.2c1.8,0,3.3,0.5,4.5,1.4c1.2,0.9,1.9,2.1,2.2,3.4L66,16.5
	c-0.2-0.8-0.6-1.4-1.2-1.9S63.5,13.8,62.5,13.8z"/>
<path d="M82.2,20.5l2.9,0.9c-0.4,1.3-1.2,2.4-2.4,3.3c-1.2,0.9-2.6,1.3-4.2,1.3c-2.1,0-3.8-0.7-5.3-2.1c-1.5-1.4-2.2-3.3-2.2-5.7
	c0-2.2,0.7-4.1,2.1-5.5c1.4-1.4,3.1-2.2,5-2.2c2.2,0,4,0.7,5.2,2.1c1.3,1.4,1.9,3.2,1.9,5.5c0,0.6,0,1-0.1,1.1H74.5
	c0,1.1,0.4,2,1.2,2.7c0.8,0.7,1.7,1.1,2.8,1.1C80.4,23.1,81.6,22.2,82.2,20.5z M74.6,16.7h7.2c0-0.9-0.4-1.7-1-2.3
	c-0.6-0.6-1.5-0.9-2.6-0.9c-1,0-1.9,0.3-2.5,1C75,15.1,74.7,15.9,74.6,16.7z"/>
<path d="M96.6,20.9c-1-1.7-1.5-3.7-1.5-5.9c0-2.2,0.5-4.2,1.5-5.9c1-1.7,2.4-3,4-3.9c1.6-0.9,3.4-1.3,5.3-1.3c1.9,0,3.7,0.4,5.3,1.3
	c1.6,0.9,3,2.1,4,3.9c1,1.7,1.6,3.7,1.6,5.9c0,2.2-0.5,4.2-1.6,5.9c-1,1.7-2.4,3-4,3.9c-1.6,0.9-3.4,1.3-5.3,1.3
	c-1.9,0-3.7-0.4-5.3-1.3C99,23.9,97.6,22.7,96.6,20.9z M100.9,9.3c-1.4,1.3-2.1,3.2-2.1,5.7c0,2.4,0.7,4.3,2.1,5.7
	c1.4,1.4,3.1,2,5,2c1.9,0,3.6-0.7,5-2c1.4-1.3,2.1-3.2,2.1-5.7c0-2.4-0.7-4.3-2.1-5.7c-1.4-1.4-3.1-2-5-2
	C103.9,7.3,102.3,8,100.9,9.3z"/>
<path d="M128.5,11h3.6l3.5,10.1l2.9-10.1h3.5l-4.7,14.6h-3.5l-3.6-10.5l-3.5,10.5h-3.6L118.3,11h3.7l3,10.1L128.5,11z"/>
<path d="M154.1,24c-0.3,0.6-0.9,1.1-1.7,1.5c-0.8,0.4-1.6,0.5-2.5,0.5c-1.7,0-3-0.5-4-1.7c-1-1.1-1.5-2.5-1.5-4.2V11h3.5v8.6
	c0,1,0.2,1.8,0.7,2.4c0.5,0.6,1.2,0.9,2.2,0.9c1,0,1.7-0.3,2.3-0.9c0.5-0.6,0.8-1.4,0.8-2.4V11h3.5V23c0,0.9,0,1.8,0.2,2.7h-3.3
	C154.2,25.2,154.1,24.7,154.1,24z"/>
<path d="M160.6,21.7l3-0.8c0.1,0.7,0.3,1.3,0.9,1.8c0.5,0.5,1.2,0.7,2.1,0.7c0.7,0,1.2-0.2,1.6-0.5c0.4-0.3,0.6-0.7,0.6-1.2
	c0-0.8-0.6-1.4-1.7-1.6l-2.2-0.5c-1.3-0.3-2.2-0.8-2.9-1.6c-0.7-0.8-1-1.7-1-2.7c0-1.3,0.5-2.4,1.6-3.3s2.3-1.4,3.8-1.4
	c1,0,1.8,0.1,2.5,0.4c0.7,0.3,1.3,0.6,1.7,1.1s0.7,0.9,0.9,1.3c0.2,0.4,0.4,0.8,0.4,1.3l-2.9,0.8c-0.1-0.6-0.3-1.1-0.8-1.5
	c-0.4-0.5-1.1-0.7-1.9-0.7c-0.6,0-1.1,0.2-1.5,0.5c-0.4,0.3-0.6,0.7-0.6,1.2c0,0.8,0.5,1.3,1.5,1.5L168,17c1.4,0.3,2.4,0.8,3.1,1.6
	c0.7,0.8,1.1,1.7,1.1,2.8c0,1.2-0.5,2.3-1.5,3.3c-1,1-2.3,1.4-4.1,1.4c-1,0-1.9-0.2-2.7-0.5c-0.8-0.3-1.4-0.7-1.9-1.2
	c-0.5-0.5-0.8-0.9-1-1.4C160.8,22.6,160.7,22.1,160.6,21.7z"/>
<path d="M185,24c-0.3,0.6-0.9,1.1-1.7,1.5c-0.8,0.4-1.6,0.5-2.5,0.5c-1.7,0-3-0.5-4-1.7c-1-1.1-1.5-2.5-1.5-4.2V11h3.5v8.6
	c0,1,0.2,1.8,0.7,2.4c0.5,0.6,1.2,0.9,2.2,0.9c1,0,1.7-0.3,2.3-0.9c0.5-0.6,0.8-1.4,0.8-2.4V11h3.5V23c0,0.9,0,1.8,0.2,2.7h-3.3
	C185,25.2,185,24.7,185,24z"/>
<path d="M215.1,25.6l-2-5.3h-9l-2,5.3h-3.8l8.3-21.3h4.2l8.3,21.3H215.1z M208.6,8.3l-3.2,8.7h6.5L208.6,8.3z"/>
<path d="M225.3,6.6V11h3v3.1h-3v6.8c0,0.6,0.2,1.1,0.5,1.4s0.8,0.4,1.4,0.4c0.4,0,0.8,0,1.2-0.1v2.9c-0.5,0.2-1.2,0.3-2.1,0.3
	c-1.4,0-2.4-0.4-3.2-1.2c-0.8-0.8-1.2-1.8-1.2-3.2v-7.3h-2.7V11h0.8c0.7,0,1.3-0.2,1.7-0.6s0.6-1,0.6-1.6V6.6H225.3z"/>
<path d="M236.2,6.6V11h3v3.1h-3v6.8c0,0.6,0.2,1.1,0.4,1.4c0.3,0.3,0.8,0.4,1.4,0.4c0.4,0,0.8,0,1.2-0.1v2.9
	c-0.5,0.2-1.2,0.3-2.1,0.3c-1.4,0-2.4-0.4-3.2-1.2c-0.8-0.8-1.2-1.8-1.2-3.2v-7.3h-2.7V11h0.8c0.7,0,1.3-0.2,1.7-0.6
	c0.4-0.4,0.6-1,0.6-1.6V6.6H236.2z"/>
<path d="M242,21.7c0-1.2,0.4-2.2,1.2-3c0.8-0.8,1.9-1.2,3.2-1.4l3.8-0.6c0.7-0.1,1.1-0.4,1.1-1c0-0.7-0.2-1.2-0.7-1.6
	c-0.5-0.4-1.2-0.6-2.1-0.6c-0.9,0-1.6,0.2-2.1,0.7c-0.5,0.5-0.8,1.1-0.9,1.9l-3.2-0.7c0.1-1.3,0.8-2.4,1.9-3.4
	c1.1-0.9,2.5-1.4,4.3-1.4c2.1,0,3.7,0.5,4.7,1.5c1,1,1.5,2.3,1.5,3.9v7.3c0,1,0.1,1.7,0.2,2.3h-3.2c-0.1-0.3-0.2-0.9-0.2-1.9
	c-1,1.5-2.5,2.3-4.5,2.3c-1.5,0-2.7-0.4-3.6-1.3C242.4,23.9,242,22.9,242,21.7z M247.6,23.4c1.1,0,2-0.3,2.6-0.9s1-1.6,1-2.9v-0.7
	l-3.8,0.6c-1.3,0.2-2,0.9-2,2c0,0.5,0.2,1,0.6,1.3C246.4,23.2,246.9,23.4,247.6,23.4z"/>
<path d="M262.3,17.1v8.6h-3.5V3.9h3.5v8.5c0.9-1.2,2.3-1.8,4.2-1.8c1.7,0,3,0.5,4,1.6s1.4,2.5,1.4,4.2v9.2h-3.5V17
	c0-1-0.2-1.8-0.7-2.4s-1.2-0.9-2.3-0.9c-0.9,0-1.6,0.3-2.2,0.9C262.6,15.3,262.4,16.1,262.3,17.1z"/>
</svg>
